<?xml version="1.0" encoding="UTF-8" standalone="no"?>
<!-- Created with Inkscape (http://www.inkscape.org/) -->

<svg
   width="1920"
   height="300"
   viewBox="0 0 508 79.374998"
   version="1.1"
   id="svg1"
   sodipodi:docname="logo.svg"
   inkscape:version="1.4 (e7c3feb100, 2024-10-09)"
   xmlns:inkscape="http://www.inkscape.org/namespaces/inkscape"
   xmlns:sodipodi="http://sodipodi.sourceforge.net/DTD/sodipodi-0.dtd"
   xmlns="http://www.w3.org/2000/svg"
   xmlns:svg="http://www.w3.org/2000/svg">
  <sodipodi:namedview
     id="namedview1"
     pagecolor="#000000"
     bordercolor="#000000"
     borderopacity="0.25"
     inkscape:showpageshadow="2"
     inkscape:pageopacity="0.0"
     inkscape:pagecheckerboard="0"
     inkscape:deskcolor="#000000"
     inkscape:document-units="mm"
     inkscape:zoom="0.70710678"
     inkscape:cx="1003.3845"
     inkscape:cy="209.30361"
     inkscape:window-width="2560"
     inkscape:window-height="1374"
     inkscape:window-x="0"
     inkscape:window-y="0"
     inkscape:window-maximized="1"
     inkscape:current-layer="layer1" />
  <defs
     id="defs1">
    <rect
       x="0"
       y="7.0990491"
       width="1233.2062"
       height="593.27765"
       id="rect2" />
    <rect
       x="0"
       y="0"
       width="1920"
       height="1080"
       id="rect1" />
    <filter
       style="color-interpolation-filters:sRGB"
       id="filter1"
       inkscape:label="filter1"
       x="-0.02311638"
       y="-0.21501453"
       width="1.0462328"
       height="1.4300291">
      <feGaussianBlur
         stdDeviation="4.7033361486486482"
         id="feGaussianBlur1"
         result="result1" />
    </filter>
  </defs>
  <g
     inkscape:label="Layer 1"
     inkscape:groupmode="layer"
     id="layer1">
    <g
       id="g1">
      <path
         style="font-size:144px;font-family:'Rubik Mono One';-inkscape-font-specification:'Rubik Mono One';text-align:center;text-anchor:middle;white-space:pre;fill:#6a4c93;stroke-width:0.188976;stroke-linecap:square;fill-opacity:1"
         d="m 1070.0597,32.706718 h 26.352 q 1.584,0 2.736,1.152 1.152,1.152 1.152,2.736 v 93.024002 q 0,1.584 -1.152,2.736 -1.152,1.152 -2.736,1.152 h -26.064 q -1.584,0 -2.736,-1.152 -1.152,-1.152 -1.152,-2.736 V 84.978718 l -10.512,20.736002 q -0.864,1.728 -2.592,2.736 -1.728,0.864 -3.456,0.864 h -9.792 q -2.448,0 -4.032,-1.296 -1.584,-1.296 -2.016,-2.304 l -10.512,-20.736002 v 44.640002 q 0,1.584 -1.152,2.736 -1.152,1.152 -2.736,1.152 h -26.06399 q -1.584,0 -2.736,-1.152 -1.152,-1.152 -1.152,-2.736 V 36.594718 q 0,-1.584 1.152,-2.736 1.152,-1.152 2.736,-1.152 h 26.35199 q 4.032,0 6.192,3.888 l 18.864,34.56 18.864,-34.56 q 2.16,-3.888 6.192,-3.888 z"
         transform="matrix(0.50635426,0,0,0.50635426,-58.985418,-2.3939405)"
         id="path18"
         inkscape:label="M" />
      <path
         style="font-size:144px;font-family:'Rubik Mono One';-inkscape-font-specification:'Rubik Mono One';text-align:center;text-anchor:middle;white-space:pre;fill:#4267ac;stroke-width:0.188976;stroke-linecap:square;fill-opacity:1"
         d="m 960.90763,124.43472 q -14.112,10.512 -38.304,10.512 -24.192,0 -38.448,-10.512 -14.112,-10.512 -14.112,-32.832002 v -55.008 q 0,-1.584 1.152,-2.736 1.152,-1.152 2.736,-1.152 h 30.096 q 1.584,0 2.736,1.152 1.152,1.152 1.152,2.736 v 57.312 q 0,5.904 3.888,9.072002 4.032,3.168 10.8,3.168 6.768,0 10.656,-3.168 4.032,-3.168002 4.032,-9.072002 v -57.312 q 0,-1.584 1.152,-2.736 1.152,-1.152 2.736,-1.152 h 30.096 q 1.584,0 2.736,1.152 1.152,1.152 1.152,2.736 v 55.008 q 0,22.320002 -14.256,32.832002 z"
         transform="matrix(0.50635426,0,0,0.50635426,-58.985418,-2.3939405)"
         id="path17"
         inkscape:label="U" />
      <path
         id="path16"
         style="font-size:144px;font-family:'Rubik Mono One';-inkscape-font-specification:'Rubik Mono One';text-align:center;text-anchor:middle;white-space:pre;fill:#1982c4;stroke-width:0.188976;stroke-linecap:square;fill-opacity:1"
         inkscape:label="R"
         d="M 755.99504 32.706419 C 754.93904 32.706419 754.02795 33.09063 753.25995 33.85863 C 752.49195 34.62663 752.10774 35.538748 752.10774 36.594748 L 752.10774 129.61869 C 752.10774 130.67469 752.49195 131.58681 753.25995 132.35481 C 754.02795 133.12281 754.93904 133.50702 755.99504 133.50702 L 787.09964 133.50702 C 788.15564 133.50702 789.06776 133.12281 789.83576 132.35481 C 790.60376 131.58681 790.98797 130.67469 790.98797 129.61869 L 790.98797 101.39513 L 803.08363 101.39513 L 815.75591 129.90648 C 816.90791 132.30648 818.92374 133.50702 821.80374 133.50702 L 854.49122 133.50702 C 855.35522 133.50702 856.07574 133.2186 856.65174 132.6426 C 857.32374 131.9706 857.65904 131.299 857.65904 130.627 C 857.65904 129.955 857.56324 129.42709 857.37124 129.04309 L 839.65944 95.922896 C 849.73944 90.066896 854.78004 80.610421 854.78004 67.554421 C 854.78004 56.802421 850.93997 48.306984 843.25997 42.066984 C 835.57997 35.826984 825.16348 32.706419 812.01148 32.706419 L 755.99504 32.706419 z M 790.98797 59.490986 L 808.98756 59.490986 C 811.19556 59.490986 812.82718 60.306286 813.88318 61.938286 C 815.03518 63.474286 815.61201 65.298522 815.61201 67.410522 C 815.61201 69.522522 815.03518 71.29886 813.88318 72.73886 C 812.73118 74.08286 811.09956 74.754464 808.98756 74.754464 L 790.98797 74.754464 L 790.98797 59.490986 z "
         transform="matrix(0.50635426,0,0,0.50635426,-58.985418,-2.3939405)" />
      <path
         style="font-size:144px;font-family:'Rubik Mono One';-inkscape-font-specification:'Rubik Mono One';text-align:center;text-anchor:middle;white-space:pre;fill:#52a675;stroke-width:0.188976;stroke-linecap:square;fill-opacity:1"
         d="m 628.12352,32.706718 h 99.36 q 1.584,0 2.736,1.152 1.152,1.152 1.152,2.736 v 23.184 q 0,1.584 -1.152,2.736 -1.152,1.152 -2.736,1.152 h -30.96 v 65.952002 q 0,1.584 -1.152,2.736 -1.152,1.152 -2.736,1.152 h -29.664 q -1.584,0 -2.736,-1.152 -1.152,-1.152 -1.152,-2.736 V 63.666718 h -30.96 q -1.584,0 -2.736,-1.152 -1.152,-1.152 -1.152,-2.736 v -23.184 q 0,-1.584 1.152,-2.736 1.152,-1.152 2.736,-1.152 z"
         transform="matrix(0.50635426,0,0,0.50635426,-58.985418,-2.3939405)"
         id="path14"
         inkscape:label="T" />
      <path
         style="font-size:144px;font-family:'Rubik Mono One';-inkscape-font-specification:'Rubik Mono One';text-align:center;text-anchor:middle;white-space:pre;fill:#8ac926;stroke-width:0.188976;stroke-linecap:square;fill-opacity:1"
         d="m 542.15546,71.586718 v 23.04 q 0,5.904002 3.888,9.072002 4.032,3.168 10.368,3.168 6.48,0 9.36,-2.016 2.88,-2.016 4.752,-5.904002 2.016,-3.888 5.184,-3.888 h 31.104 q 1.296,0 2.16,1.008 1.008,0.864 1.008,2.16 0,13.392002 -12.672,24.480002 -6.336,5.472 -16.848,8.928 -10.512,3.312 -24.768,3.312 -14.256,0 -26.064,-4.32 -11.664,-4.464 -19.008,-14.4 -7.344,-10.08 -7.344,-24.624002 v -16.992 q 0,-14.544 7.344,-24.624 13.824,-18.72 46.224,-18.72 13.104,0 23.616,3.456 10.512,3.312 16.848,8.784 12.672,11.088 12.672,24.48 0,1.296 -1.008,2.304 -0.864,0.864 -2.16,0.864 h -31.104 q -3.168,0 -5.184,-3.888 -1.872,-3.888 -4.752,-5.904 -2.88,-2.016 -9.36,-2.016 -6.336,0 -10.368,3.168 -3.888,3.168 -3.888,9.072 z"
         transform="matrix(0.50635426,0,0,0.50635426,-58.985418,-2.3939405)"
         id="path13"
         inkscape:label="C" />
      <path
         style="font-size:144px;font-family:'Rubik Mono One';-inkscape-font-specification:'Rubik Mono One';text-align:center;text-anchor:middle;white-space:pre;fill:#ffca3a;stroke-width:0.188976;stroke-linecap:square;fill-opacity:1"
         d="m 422.20341,105.42672 h 57.456 q 1.584,0 2.736,1.152 1.152,1.152 1.152,2.736 v 20.304 q 0,1.584 -1.152,2.736 -1.152,1.152 -2.736,1.152 h -91.008 q -1.584,0 -2.736,-1.152 -1.152,-1.152 -1.152,-2.736 V 36.594718 q 0,-1.584 1.152,-2.736 1.152,-1.152 2.736,-1.152 h 89.568 q 1.584,0 2.736,1.152 1.152,1.152 1.152,2.736 v 20.304 q 0,1.584 -1.152,2.736 -1.152,1.152 -2.736,1.152 h -56.016 v 9.072 h 48.096 q 1.584,0 2.736,1.152 1.152,1.152 1.152,2.736 v 18.72 q 0,1.584 -1.152,2.736 -1.152,1.152 -2.736,1.152 h -48.096 z"
         transform="matrix(0.50635426,0,0,0.50635426,-58.985418,-2.3939405)"
         id="path12"
         inkscape:label="E" />
      <path
         id="path11"
         style="font-size:144px;font-family:'Rubik Mono One';-inkscape-font-specification:'Rubik Mono One';text-align:center;text-anchor:middle;white-space:pre;fill:#ff924c;stroke-width:0.188976;stroke-linecap:square;fill-opacity:1"
         d="M 271.43574 32.706419 C 270.37974 32.706419 269.46762 33.09063 268.69962 33.85863 C 267.93162 34.62663 267.54741 35.538748 267.54741 36.594748 L 267.54741 129.61869 C 267.54741 130.67469 267.93162 131.58681 268.69962 132.35481 C 269.46762 133.12281 270.37974 133.50702 271.43574 133.50702 L 302.39542 133.50702 C 303.45142 133.50702 304.36353 133.12281 305.13153 132.35481 C 305.89953 131.58681 306.28375 130.67469 306.28375 129.61869 L 306.28375 101.97073 L 325.29165 101.97073 C 341.41965 101.97073 352.84304 98.946981 359.56304 92.89898 C 366.28304 86.75498 369.6431 78.499037 369.6431 68.131037 C 369.6431 57.763037 365.65934 49.26658 357.69134 42.64258 C 349.72334 36.01858 338.92365 32.706419 325.29165 32.706419 L 271.43574 32.706419 z M 306.42764 59.490986 L 324.71504 59.490986 C 327.01904 59.490986 328.84327 60.258387 330.18727 61.794387 C 331.53127 63.330387 332.20288 65.29832 332.20288 67.69832 C 332.20288 70.09832 331.48338 71.970455 330.04338 73.314455 C 328.69938 74.658455 326.92304 75.33108 324.71504 75.33108 L 306.42764 75.33108 L 306.42764 59.490986 z "
         transform="matrix(0.50635426,0,0,0.50635426,-58.985418,-2.3939405)"
         inkscape:label="P" />
      <path
         style="font-size:144px;font-family:'Rubik Mono One';-inkscape-font-specification:'Rubik Mono One';text-align:center;text-anchor:middle;white-space:pre;fill:#ff595e;stroke-width:0.188976;stroke-linecap:square;fill-opacity:1"
         d="m 196.1233,69.282718 q 23.616,2.736 33.552,10.224 10.08,7.344 10.08,22.176002 0,14.832 -14.544,24.048 -14.544,9.216 -38.592,9.216 -24.048,0 -37.44,-8.784 -13.248,-8.928 -13.248,-21.888 0,-3.168 3.312,-3.168 h 29.52 q 3.024,0 4.896,1.872 4.032,3.888 13.968,3.888 13.68,0 13.68,-4.176 0,-2.592 -4.32,-4.032002 -4.32,-1.584 -17.136,-3.024 -40.752,-4.896 -40.752,-31.248 0,-14.832 13.104,-23.904 13.104,-9.216 34.992,-9.216 22.032,0 35.568,9.648 13.536,9.504 13.536,20.16 0,1.44 -1.008,2.304 -0.864,0.864 -2.448,0.864 h -30.96 q -2.592,0 -4.464,-1.728 -3.456,-3.168 -10.368,-3.168 -9.648,0 -9.648,4.032 0,2.16 3.744,3.456 3.744,1.152 14.976,2.448 z"
         transform="matrix(0.50635426,0,0,0.50635426,-58.985418,-2.3939405)"
         id="text2"
         inkscape:label="S" />
    </g>
    <g
       id="g20"
       style="filter:url(#filter1);opacity:0.5">
      <path
         style="font-size:144px;font-family:'Rubik Mono One';-inkscape-font-specification:'Rubik Mono One';text-align:center;text-anchor:middle;white-space:pre;fill:#6a4c93;stroke-width:0.188976;stroke-linecap:square;fill-opacity:1"
         d="m 1070.0597,32.706718 h 26.352 q 1.584,0 2.736,1.152 1.152,1.152 1.152,2.736 v 93.024002 q 0,1.584 -1.152,2.736 -1.152,1.152 -2.736,1.152 h -26.064 q -1.584,0 -2.736,-1.152 -1.152,-1.152 -1.152,-2.736 V 84.978718 l -10.512,20.736002 q -0.864,1.728 -2.592,2.736 -1.728,0.864 -3.456,0.864 h -9.792 q -2.448,0 -4.032,-1.296 -1.584,-1.296 -2.016,-2.304 l -10.512,-20.736002 v 44.640002 q 0,1.584 -1.152,2.736 -1.152,1.152 -2.736,1.152 h -26.06399 q -1.584,0 -2.736,-1.152 -1.152,-1.152 -1.152,-2.736 V 36.594718 q 0,-1.584 1.152,-2.736 1.152,-1.152 2.736,-1.152 h 26.35199 q 4.032,0 6.192,3.888 l 18.864,34.56 18.864,-34.56 q 2.16,-3.888 6.192,-3.888 z"
         transform="matrix(0.50635426,0,0,0.50635426,-58.985418,-2.3939405)"
         id="path6"
         inkscape:label="M" />
      <path
         style="font-size:144px;font-family:'Rubik Mono One';-inkscape-font-specification:'Rubik Mono One';text-align:center;text-anchor:middle;white-space:pre;fill:#4267ac;stroke-width:0.188976;stroke-linecap:square;fill-opacity:1"
         d="m 960.90763,124.43472 q -14.112,10.512 -38.304,10.512 -24.192,0 -38.448,-10.512 -14.112,-10.512 -14.112,-32.832002 v -55.008 q 0,-1.584 1.152,-2.736 1.152,-1.152 2.736,-1.152 h 30.096 q 1.584,0 2.736,1.152 1.152,1.152 1.152,2.736 v 57.312 q 0,5.904 3.888,9.072002 4.032,3.168 10.8,3.168 6.768,0 10.656,-3.168 4.032,-3.168002 4.032,-9.072002 v -57.312 q 0,-1.584 1.152,-2.736 1.152,-1.152 2.736,-1.152 h 30.096 q 1.584,0 2.736,1.152 1.152,1.152 1.152,2.736 v 55.008 q 0,22.320002 -14.256,32.832002 z"
         transform="matrix(0.50635426,0,0,0.50635426,-58.985418,-2.3939405)"
         id="path7"
         inkscape:label="U" />
      <path
         id="path8"
         style="font-size:144px;font-family:'Rubik Mono One';-inkscape-font-specification:'Rubik Mono One';text-align:center;text-anchor:middle;white-space:pre;fill:#1982c4;stroke-width:0.188976;stroke-linecap:square;fill-opacity:1"
         inkscape:label="R"
         d="M 755.99504 32.706419 C 754.93904 32.706419 754.02795 33.09063 753.25995 33.85863 C 752.49195 34.62663 752.10774 35.538748 752.10774 36.594748 L 752.10774 129.61869 C 752.10774 130.67469 752.49195 131.58681 753.25995 132.35481 C 754.02795 133.12281 754.93904 133.50702 755.99504 133.50702 L 787.09964 133.50702 C 788.15564 133.50702 789.06776 133.12281 789.83576 132.35481 C 790.60376 131.58681 790.98797 130.67469 790.98797 129.61869 L 790.98797 101.39513 L 803.08363 101.39513 L 815.75591 129.90648 C 816.90791 132.30648 818.92374 133.50702 821.80374 133.50702 L 854.49122 133.50702 C 855.35522 133.50702 856.07574 133.2186 856.65174 132.6426 C 857.32374 131.9706 857.65904 131.299 857.65904 130.627 C 857.65904 129.955 857.56324 129.42709 857.37124 129.04309 L 839.65944 95.922896 C 849.73944 90.066896 854.78004 80.610421 854.78004 67.554421 C 854.78004 56.802421 850.93997 48.306984 843.25997 42.066984 C 835.57997 35.826984 825.16348 32.706419 812.01148 32.706419 L 755.99504 32.706419 z M 790.98797 59.490986 L 808.98756 59.490986 C 811.19556 59.490986 812.82718 60.306286 813.88318 61.938286 C 815.03518 63.474286 815.61201 65.298522 815.61201 67.410522 C 815.61201 69.522522 815.03518 71.29886 813.88318 72.73886 C 812.73118 74.08286 811.09956 74.754464 808.98756 74.754464 L 790.98797 74.754464 L 790.98797 59.490986 z "
         transform="matrix(0.50635426,0,0,0.50635426,-58.985418,-2.3939405)" />
      <path
         style="font-size:144px;font-family:'Rubik Mono One';-inkscape-font-specification:'Rubik Mono One';text-align:center;text-anchor:middle;white-space:pre;fill:#52a675;stroke-width:0.188976;stroke-linecap:square;fill-opacity:1"
         d="m 628.12352,32.706718 h 99.36 q 1.584,0 2.736,1.152 1.152,1.152 1.152,2.736 v 23.184 q 0,1.584 -1.152,2.736 -1.152,1.152 -2.736,1.152 h -30.96 v 65.952002 q 0,1.584 -1.152,2.736 -1.152,1.152 -2.736,1.152 h -29.664 q -1.584,0 -2.736,-1.152 -1.152,-1.152 -1.152,-2.736 V 63.666718 h -30.96 q -1.584,0 -2.736,-1.152 -1.152,-1.152 -1.152,-2.736 v -23.184 q 0,-1.584 1.152,-2.736 1.152,-1.152 2.736,-1.152 z"
         transform="matrix(0.50635426,0,0,0.50635426,-58.985418,-2.3939405)"
         id="path9"
         inkscape:label="T" />
      <path
         style="font-size:144px;font-family:'Rubik Mono One';-inkscape-font-specification:'Rubik Mono One';text-align:center;text-anchor:middle;white-space:pre;fill:#8ac926;stroke-width:0.188976;stroke-linecap:square;fill-opacity:1"
         d="m 542.15546,71.586718 v 23.04 q 0,5.904002 3.888,9.072002 4.032,3.168 10.368,3.168 6.48,0 9.36,-2.016 2.88,-2.016 4.752,-5.904002 2.016,-3.888 5.184,-3.888 h 31.104 q 1.296,0 2.16,1.008 1.008,0.864 1.008,2.16 0,13.392002 -12.672,24.480002 -6.336,5.472 -16.848,8.928 -10.512,3.312 -24.768,3.312 -14.256,0 -26.064,-4.32 -11.664,-4.464 -19.008,-14.4 -7.344,-10.08 -7.344,-24.624002 v -16.992 q 0,-14.544 7.344,-24.624 13.824,-18.72 46.224,-18.72 13.104,0 23.616,3.456 10.512,3.312 16.848,8.784 12.672,11.088 12.672,24.48 0,1.296 -1.008,2.304 -0.864,0.864 -2.16,0.864 h -31.104 q -3.168,0 -5.184,-3.888 -1.872,-3.888 -4.752,-5.904 -2.88,-2.016 -9.36,-2.016 -6.336,0 -10.368,3.168 -3.888,3.168 -3.888,9.072 z"
         transform="matrix(0.50635426,0,0,0.50635426,-58.985418,-2.3939405)"
         id="path10"
         inkscape:label="C" />
      <path
         style="font-size:144px;font-family:'Rubik Mono One';-inkscape-font-specification:'Rubik Mono One';text-align:center;text-anchor:middle;white-space:pre;fill:#ffca3a;stroke-width:0.188976;stroke-linecap:square;fill-opacity:1"
         d="m 422.20341,105.42672 h 57.456 q 1.584,0 2.736,1.152 1.152,1.152 1.152,2.736 v 20.304 q 0,1.584 -1.152,2.736 -1.152,1.152 -2.736,1.152 h -91.008 q -1.584,0 -2.736,-1.152 -1.152,-1.152 -1.152,-2.736 V 36.594718 q 0,-1.584 1.152,-2.736 1.152,-1.152 2.736,-1.152 h 89.568 q 1.584,0 2.736,1.152 1.152,1.152 1.152,2.736 v 20.304 q 0,1.584 -1.152,2.736 -1.152,1.152 -2.736,1.152 h -56.016 v 9.072 h 48.096 q 1.584,0 2.736,1.152 1.152,1.152 1.152,2.736 v 18.72 q 0,1.584 -1.152,2.736 -1.152,1.152 -2.736,1.152 h -48.096 z"
         transform="matrix(0.50635426,0,0,0.50635426,-58.985418,-2.3939405)"
         id="path15"
         inkscape:label="E" />
      <path
         id="path19"
         style="font-size:144px;font-family:'Rubik Mono One';-inkscape-font-specification:'Rubik Mono One';text-align:center;text-anchor:middle;white-space:pre;fill:#ff924c;stroke-width:0.188976;stroke-linecap:square;fill-opacity:1"
         d="M 271.43574 32.706419 C 270.37974 32.706419 269.46762 33.09063 268.69962 33.85863 C 267.93162 34.62663 267.54741 35.538748 267.54741 36.594748 L 267.54741 129.61869 C 267.54741 130.67469 267.93162 131.58681 268.69962 132.35481 C 269.46762 133.12281 270.37974 133.50702 271.43574 133.50702 L 302.39542 133.50702 C 303.45142 133.50702 304.36353 133.12281 305.13153 132.35481 C 305.89953 131.58681 306.28375 130.67469 306.28375 129.61869 L 306.28375 101.97073 L 325.29165 101.97073 C 341.41965 101.97073 352.84304 98.946981 359.56304 92.89898 C 366.28304 86.75498 369.6431 78.499037 369.6431 68.131037 C 369.6431 57.763037 365.65934 49.26658 357.69134 42.64258 C 349.72334 36.01858 338.92365 32.706419 325.29165 32.706419 L 271.43574 32.706419 z M 306.42764 59.490986 L 324.71504 59.490986 C 327.01904 59.490986 328.84327 60.258387 330.18727 61.794387 C 331.53127 63.330387 332.20288 65.29832 332.20288 67.69832 C 332.20288 70.09832 331.48338 71.970455 330.04338 73.314455 C 328.69938 74.658455 326.92304 75.33108 324.71504 75.33108 L 306.42764 75.33108 L 306.42764 59.490986 z "
         transform="matrix(0.50635426,0,0,0.50635426,-58.985418,-2.3939405)"
         inkscape:label="P" />
      <path
         style="font-size:144px;font-family:'Rubik Mono One';-inkscape-font-specification:'Rubik Mono One';text-align:center;text-anchor:middle;white-space:pre;fill:#ff595e;stroke-width:0.188976;stroke-linecap:square;fill-opacity:1"
         d="m 196.1233,69.282718 q 23.616,2.736 33.552,10.224 10.08,7.344 10.08,22.176002 0,14.832 -14.544,24.048 -14.544,9.216 -38.592,9.216 -24.048,0 -37.44,-8.784 -13.248,-8.928 -13.248,-21.888 0,-3.168 3.312,-3.168 h 29.52 q 3.024,0 4.896,1.872 4.032,3.888 13.968,3.888 13.68,0 13.68,-4.176 0,-2.592 -4.32,-4.032002 -4.32,-1.584 -17.136,-3.024 -40.752,-4.896 -40.752,-31.248 0,-14.832 13.104,-23.904 13.104,-9.216 34.992,-9.216 22.032,0 35.568,9.648 13.536,9.504 13.536,20.16 0,1.44 -1.008,2.304 -0.864,0.864 -2.448,0.864 h -30.96 q -2.592,0 -4.464,-1.728 -3.456,-3.168 -10.368,-3.168 -9.648,0 -9.648,4.032 0,2.16 3.744,3.456 3.744,1.152 14.976,2.448 z"
         transform="matrix(0.50635426,0,0,0.50635426,-58.985418,-2.3939405)"
         id="path20"
         inkscape:label="S" />
    </g>
  </g>
</svg>
