<?xml version="1.0" encoding="UTF-8" standalone="no"?>
<!-- Created with Inkscape (http://www.inkscape.org/) -->

<svg
   width="960"
   height="150"
   viewBox="0 0 254 39.6875"
   version="1.1"
   id="svg1"
   sodipodi:docname="LogoTextLX.svg"
   inkscape:version="1.4.2 (ebf0e940d0, 2025-05-08)"
   inkscape:export-filename="LogoTextLX.png"
   inkscape:export-xdpi="96"
   inkscape:export-ydpi="96"
   xmlns:inkscape="http://www.inkscape.org/namespaces/inkscape"
   xmlns:sodipodi="http://sodipodi.sourceforge.net/DTD/sodipodi-0.dtd"
   xmlns="http://www.w3.org/2000/svg"
   xmlns:svg="http://www.w3.org/2000/svg">
  <sodipodi:namedview
     id="namedview1"
     pagecolor="#000000"
     bordercolor="#dbdbdb"
     borderopacity="0.24705882"
     inkscape:showpageshadow="2"
     inkscape:pageopacity="0.0"
     inkscape:pagecheckerboard="0"
     inkscape:deskcolor="#000000"
     inkscape:document-units="mm"
     inkscape:zoom="1.4142136"
     inkscape:cx="612.70803"
     inkscape:cy="168.29141"
     inkscape:window-width="2560"
     inkscape:window-height="1360"
     inkscape:window-x="0"
     inkscape:window-y="0"
     inkscape:window-maximized="1"
     inkscape:current-layer="layer1" />
  <defs
     id="defs1">
    <rect
       x="0"
       y="7.0990491"
       width="1233.2062"
       height="593.27765"
       id="rect2" />
    <rect
       x="0"
       y="0"
       width="1920"
       height="1080"
       id="rect1" />
    <filter
       style="color-interpolation-filters:sRGB"
       id="filter1"
       inkscape:label="filter1"
       x="0"
       y="0"
       width="1"
       height="1" />
  </defs>
  <g
     inkscape:label="Layer 1"
     inkscape:groupmode="layer"
     id="layer1">
    <g
       id="g1"
       transform="matrix(0.5201592,0,0,0.5201592,-5.1204378,-0.80006934)">
      <path
         style="font-size:144px;font-family:'Rubik Mono One';-inkscape-font-specification:'Rubik Mono One';text-align:center;text-anchor:middle;white-space:pre;fill:#6a4c93;fill-opacity:1;stroke-width:0.188976;stroke-linecap:square"
         d="m 1070.0597,32.706718 h 26.352 q 1.584,0 2.736,1.152 1.152,1.152 1.152,2.736 v 93.024002 q 0,1.584 -1.152,2.736 -1.152,1.152 -2.736,1.152 h -26.064 q -1.584,0 -2.736,-1.152 -1.152,-1.152 -1.152,-2.736 V 84.978718 l -10.512,20.736002 q -0.864,1.728 -2.592,2.736 -1.728,0.864 -3.456,0.864 h -9.792 q -2.448,0 -4.032,-1.296 -1.584,-1.296 -2.016,-2.304 l -10.512,-20.736002 v 44.640002 q 0,1.584 -1.152,2.736 -1.152,1.152 -2.736,1.152 h -26.06399 q -1.584,0 -2.736,-1.152 -1.152,-1.152 -1.152,-2.736 V 36.594718 q 0,-1.584 1.152,-2.736 1.152,-1.152 2.736,-1.152 h 26.35199 q 4.032,0 6.192,3.888 l 18.864,34.56 18.864,-34.56 q 2.16,-3.888 6.192,-3.888 z"
         transform="matrix(0.50635426,0,0,0.50635426,-58.985418,-2.3939405)"
         id="path18"
         inkscape:label="M" />
      <path
         style="font-size:144px;font-family:'Rubik Mono One';-inkscape-font-specification:'Rubik Mono One';text-align:center;text-anchor:middle;white-space:pre;fill:#4267ac;fill-opacity:1;stroke-width:0.188976;stroke-linecap:square"
         d="m 960.90763,124.43472 q -14.112,10.512 -38.304,10.512 -24.192,0 -38.448,-10.512 -14.112,-10.512 -14.112,-32.832002 v -55.008 q 0,-1.584 1.152,-2.736 1.152,-1.152 2.736,-1.152 h 30.096 q 1.584,0 2.736,1.152 1.152,1.152 1.152,2.736 v 57.312 q 0,5.904 3.888,9.072002 4.032,3.168 10.8,3.168 6.768,0 10.656,-3.168 4.032,-3.168002 4.032,-9.072002 v -57.312 q 0,-1.584 1.152,-2.736 1.152,-1.152 2.736,-1.152 h 30.096 q 1.584,0 2.736,1.152 1.152,1.152 1.152,2.736 v 55.008 q 0,22.320002 -14.256,32.832002 z"
         transform="matrix(0.50635426,0,0,0.50635426,-58.985418,-2.3939405)"
         id="path17"
         inkscape:label="U" />
      <path
         id="path16"
         style="font-size:144px;font-family:'Rubik Mono One';-inkscape-font-specification:'Rubik Mono One';text-align:center;text-anchor:middle;white-space:pre;fill:#1982c4;fill-opacity:1;stroke-width:0.188976;stroke-linecap:square"
         inkscape:label="R"
         d="m 755.99504,32.706419 c -1.056,0 -1.96709,0.384211 -2.73509,1.152211 -0.768,0.768 -1.15221,1.680118 -1.15221,2.736118 v 93.023942 c 0,1.056 0.38421,1.96812 1.15221,2.73612 0.768,0.768 1.67909,1.15221 2.73509,1.15221 h 31.1046 c 1.056,0 1.96812,-0.38421 2.73612,-1.15221 0.768,-0.768 1.15221,-1.68012 1.15221,-2.73612 v -28.22356 h 12.09566 l 12.67228,28.51135 c 1.152,2.4 3.16783,3.60054 6.04783,3.60054 h 32.68748 c 0.864,0 1.58452,-0.28842 2.16052,-0.86442 0.672,-0.672 1.0073,-1.3436 1.0073,-2.0156 0,-0.672 -0.0958,-1.19991 -0.2878,-1.58391 l -17.7118,-33.120194 c 10.08,-5.856 15.1206,-15.312475 15.1206,-28.368475 0,-10.752 -3.84007,-19.247437 -11.52007,-25.487437 -7.68,-6.24 -18.09649,-9.360565 -31.24849,-9.360565 z m 34.99293,26.784567 h 17.99959 c 2.208,0 3.83962,0.8153 4.89562,2.4473 1.152,1.536 1.72883,3.360236 1.72883,5.472236 0,2.112 -0.57683,3.888338 -1.72883,5.328338 -1.152,1.344 -2.78362,2.015604 -4.89562,2.015604 h -17.99959 z"
         transform="matrix(0.50635426,0,0,0.50635426,-58.985418,-2.3939405)" />
      <path
         style="font-size:144px;font-family:'Rubik Mono One';-inkscape-font-specification:'Rubik Mono One';text-align:center;text-anchor:middle;white-space:pre;fill:#52a675;fill-opacity:1;stroke-width:0.188976;stroke-linecap:square"
         d="m 628.12352,32.706718 h 99.36 q 1.584,0 2.736,1.152 1.152,1.152 1.152,2.736 v 23.184 q 0,1.584 -1.152,2.736 -1.152,1.152 -2.736,1.152 h -30.96 v 65.952002 q 0,1.584 -1.152,2.736 -1.152,1.152 -2.736,1.152 h -29.664 q -1.584,0 -2.736,-1.152 -1.152,-1.152 -1.152,-2.736 V 63.666718 h -30.96 q -1.584,0 -2.736,-1.152 -1.152,-1.152 -1.152,-2.736 v -23.184 q 0,-1.584 1.152,-2.736 1.152,-1.152 2.736,-1.152 z"
         transform="matrix(0.50635426,0,0,0.50635426,-58.985418,-2.3939405)"
         id="path14"
         inkscape:label="T" />
      <path
         style="font-size:144px;font-family:'Rubik Mono One';-inkscape-font-specification:'Rubik Mono One';text-align:center;text-anchor:middle;white-space:pre;fill:#8ac926;fill-opacity:1;stroke-width:0.188976;stroke-linecap:square"
         d="m 542.15546,71.586718 v 23.04 q 0,5.904002 3.888,9.072002 4.032,3.168 10.368,3.168 6.48,0 9.36,-2.016 2.88,-2.016 4.752,-5.904002 2.016,-3.888 5.184,-3.888 h 31.104 q 1.296,0 2.16,1.008 1.008,0.864 1.008,2.16 0,13.392002 -12.672,24.480002 -6.336,5.472 -16.848,8.928 -10.512,3.312 -24.768,3.312 -14.256,0 -26.064,-4.32 -11.664,-4.464 -19.008,-14.4 -7.344,-10.08 -7.344,-24.624002 v -16.992 q 0,-14.544 7.344,-24.624 13.824,-18.72 46.224,-18.72 13.104,0 23.616,3.456 10.512,3.312 16.848,8.784 12.672,11.088 12.672,24.48 0,1.296 -1.008,2.304 -0.864,0.864 -2.16,0.864 h -31.104 q -3.168,0 -5.184,-3.888 -1.872,-3.888 -4.752,-5.904 -2.88,-2.016 -9.36,-2.016 -6.336,0 -10.368,3.168 -3.888,3.168 -3.888,9.072 z"
         transform="matrix(0.50635426,0,0,0.50635426,-58.985418,-2.3939405)"
         id="path13"
         inkscape:label="C" />
      <path
         style="font-size:144px;font-family:'Rubik Mono One';-inkscape-font-specification:'Rubik Mono One';text-align:center;text-anchor:middle;white-space:pre;fill:#ffca3a;fill-opacity:1;stroke-width:0.188976;stroke-linecap:square"
         d="m 422.20341,105.42672 h 57.456 q 1.584,0 2.736,1.152 1.152,1.152 1.152,2.736 v 20.304 q 0,1.584 -1.152,2.736 -1.152,1.152 -2.736,1.152 h -91.008 q -1.584,0 -2.736,-1.152 -1.152,-1.152 -1.152,-2.736 V 36.594718 q 0,-1.584 1.152,-2.736 1.152,-1.152 2.736,-1.152 h 89.568 q 1.584,0 2.736,1.152 1.152,1.152 1.152,2.736 v 20.304 q 0,1.584 -1.152,2.736 -1.152,1.152 -2.736,1.152 h -56.016 v 9.072 h 48.096 q 1.584,0 2.736,1.152 1.152,1.152 1.152,2.736 v 18.72 q 0,1.584 -1.152,2.736 -1.152,1.152 -2.736,1.152 h -48.096 z"
         transform="matrix(0.50635426,0,0,0.50635426,-58.985418,-2.3939405)"
         id="path12"
         inkscape:label="E" />
      <path
         id="path11"
         style="font-size:144px;font-family:'Rubik Mono One';-inkscape-font-specification:'Rubik Mono One';text-align:center;text-anchor:middle;white-space:pre;fill:#ff924c;fill-opacity:1;stroke-width:0.188976;stroke-linecap:square"
         d="m 271.43574,32.706419 c -1.056,0 -1.96812,0.384211 -2.73612,1.152211 -0.768,0.768 -1.15221,1.680118 -1.15221,2.736118 v 93.023942 c 0,1.056 0.38421,1.96812 1.15221,2.73612 0.768,0.768 1.68012,1.15221 2.73612,1.15221 h 30.95968 c 1.056,0 1.96811,-0.38421 2.73611,-1.15221 0.768,-0.768 1.15222,-1.68012 1.15222,-2.73612 v -27.64796 h 19.0079 c 16.128,0 27.55139,-3.023749 34.27139,-9.07175 6.72,-6.144 10.08006,-14.399943 10.08006,-24.767943 0,-10.368 -3.98376,-18.864457 -11.95176,-25.488457 -7.968,-6.624 -18.76769,-9.936161 -32.39969,-9.936161 z m 34.9919,26.784567 h 18.2874 c 2.304,0 4.12823,0.767401 5.47223,2.303401 1.344,1.536 2.01561,3.503933 2.01561,5.903933 0,2.4 -0.7195,4.272135 -2.1595,5.616135 -1.344,1.344 -3.12034,2.016625 -5.32834,2.016625 h -18.2874 z"
         transform="matrix(0.50635426,0,0,0.50635426,-58.985418,-2.3939405)"
         inkscape:label="P" />
      <path
         style="font-size:144px;font-family:'Rubik Mono One';-inkscape-font-specification:'Rubik Mono One';text-align:center;text-anchor:middle;white-space:pre;fill:#ff595e;fill-opacity:1;stroke-width:0.188976;stroke-linecap:square"
         d="m 196.1233,69.282718 q 23.616,2.736 33.552,10.224 10.08,7.344 10.08,22.176002 0,14.832 -14.544,24.048 -14.544,9.216 -38.592,9.216 -24.048,0 -37.44,-8.784 -13.248,-8.928 -13.248,-21.888 0,-3.168 3.312,-3.168 h 29.52 q 3.024,0 4.896,1.872 4.032,3.888 13.968,3.888 13.68,0 13.68,-4.176 0,-2.592 -4.32,-4.032002 -4.32,-1.584 -17.136,-3.024 -40.752,-4.896 -40.752,-31.248 0,-14.832 13.104,-23.904 13.104,-9.216 34.992,-9.216 22.032,0 35.568,9.648 13.536,9.504 13.536,20.16 0,1.44 -1.008,2.304 -0.864,0.864 -2.448,0.864 h -30.96 q -2.592,0 -4.464,-1.728 -3.456,-3.168 -10.368,-3.168 -9.648,0 -9.648,4.032 0,2.16 3.744,3.456 3.744,1.152 14.976,2.448 z"
         transform="matrix(0.50635426,0,0,0.50635426,-58.985418,-2.3939405)"
         id="text2"
         inkscape:label="S" />
    </g>
    <g
       id="g20"
       style="opacity:0.5;filter:url(#filter1)"
       transform="matrix(0.5201592,0,0,0.5201592,-5.1204378,-0.80006934)">
      <path
         style="font-size:144px;font-family:'Rubik Mono One';-inkscape-font-specification:'Rubik Mono One';text-align:center;text-anchor:middle;white-space:pre;fill:#6a4c93;fill-opacity:1;stroke-width:0.188976;stroke-linecap:square"
         d="m 1070.0597,32.706718 h 26.352 q 1.584,0 2.736,1.152 1.152,1.152 1.152,2.736 v 93.024002 q 0,1.584 -1.152,2.736 -1.152,1.152 -2.736,1.152 h -26.064 q -1.584,0 -2.736,-1.152 -1.152,-1.152 -1.152,-2.736 V 84.978718 l -10.512,20.736002 q -0.864,1.728 -2.592,2.736 -1.728,0.864 -3.456,0.864 h -9.792 q -2.448,0 -4.032,-1.296 -1.584,-1.296 -2.016,-2.304 l -10.512,-20.736002 v 44.640002 q 0,1.584 -1.152,2.736 -1.152,1.152 -2.736,1.152 h -26.06399 q -1.584,0 -2.736,-1.152 -1.152,-1.152 -1.152,-2.736 V 36.594718 q 0,-1.584 1.152,-2.736 1.152,-1.152 2.736,-1.152 h 26.35199 q 4.032,0 6.192,3.888 l 18.864,34.56 18.864,-34.56 q 2.16,-3.888 6.192,-3.888 z"
         transform="matrix(0.50635426,0,0,0.50635426,-58.985418,-2.3939405)"
         id="path6"
         inkscape:label="M" />
      <path
         style="font-size:144px;font-family:'Rubik Mono One';-inkscape-font-specification:'Rubik Mono One';text-align:center;text-anchor:middle;white-space:pre;fill:#4267ac;fill-opacity:1;stroke-width:0.188976;stroke-linecap:square"
         d="m 960.90763,124.43472 q -14.112,10.512 -38.304,10.512 -24.192,0 -38.448,-10.512 -14.112,-10.512 -14.112,-32.832002 v -55.008 q 0,-1.584 1.152,-2.736 1.152,-1.152 2.736,-1.152 h 30.096 q 1.584,0 2.736,1.152 1.152,1.152 1.152,2.736 v 57.312 q 0,5.904 3.888,9.072002 4.032,3.168 10.8,3.168 6.768,0 10.656,-3.168 4.032,-3.168002 4.032,-9.072002 v -57.312 q 0,-1.584 1.152,-2.736 1.152,-1.152 2.736,-1.152 h 30.096 q 1.584,0 2.736,1.152 1.152,1.152 1.152,2.736 v 55.008 q 0,22.320002 -14.256,32.832002 z"
         transform="matrix(0.50635426,0,0,0.50635426,-58.985418,-2.3939405)"
         id="path7"
         inkscape:label="U" />
      <path
         id="path8"
         style="font-size:144px;font-family:'Rubik Mono One';-inkscape-font-specification:'Rubik Mono One';text-align:center;text-anchor:middle;white-space:pre;fill:#1982c4;fill-opacity:1;stroke-width:0.188976;stroke-linecap:square"
         inkscape:label="R"
         d="m 755.99504,32.706419 c -1.056,0 -1.96709,0.384211 -2.73509,1.152211 -0.768,0.768 -1.15221,1.680118 -1.15221,2.736118 v 93.023942 c 0,1.056 0.38421,1.96812 1.15221,2.73612 0.768,0.768 1.67909,1.15221 2.73509,1.15221 h 31.1046 c 1.056,0 1.96812,-0.38421 2.73612,-1.15221 0.768,-0.768 1.15221,-1.68012 1.15221,-2.73612 v -28.22356 h 12.09566 l 12.67228,28.51135 c 1.152,2.4 3.16783,3.60054 6.04783,3.60054 h 32.68748 c 0.864,0 1.58452,-0.28842 2.16052,-0.86442 0.672,-0.672 1.0073,-1.3436 1.0073,-2.0156 0,-0.672 -0.0958,-1.19991 -0.2878,-1.58391 l -17.7118,-33.120194 c 10.08,-5.856 15.1206,-15.312475 15.1206,-28.368475 0,-10.752 -3.84007,-19.247437 -11.52007,-25.487437 -7.68,-6.24 -18.09649,-9.360565 -31.24849,-9.360565 z m 34.99293,26.784567 h 17.99959 c 2.208,0 3.83962,0.8153 4.89562,2.4473 1.152,1.536 1.72883,3.360236 1.72883,5.472236 0,2.112 -0.57683,3.888338 -1.72883,5.328338 -1.152,1.344 -2.78362,2.015604 -4.89562,2.015604 h -17.99959 z"
         transform="matrix(0.50635426,0,0,0.50635426,-58.985418,-2.3939405)" />
      <path
         style="font-size:144px;font-family:'Rubik Mono One';-inkscape-font-specification:'Rubik Mono One';text-align:center;text-anchor:middle;white-space:pre;fill:#52a675;fill-opacity:1;stroke-width:0.188976;stroke-linecap:square"
         d="m 628.12352,32.706718 h 99.36 q 1.584,0 2.736,1.152 1.152,1.152 1.152,2.736 v 23.184 q 0,1.584 -1.152,2.736 -1.152,1.152 -2.736,1.152 h -30.96 v 65.952002 q 0,1.584 -1.152,2.736 -1.152,1.152 -2.736,1.152 h -29.664 q -1.584,0 -2.736,-1.152 -1.152,-1.152 -1.152,-2.736 V 63.666718 h -30.96 q -1.584,0 -2.736,-1.152 -1.152,-1.152 -1.152,-2.736 v -23.184 q 0,-1.584 1.152,-2.736 1.152,-1.152 2.736,-1.152 z"
         transform="matrix(0.50635426,0,0,0.50635426,-58.985418,-2.3939405)"
         id="path9"
         inkscape:label="T" />
      <path
         style="font-size:144px;font-family:'Rubik Mono One';-inkscape-font-specification:'Rubik Mono One';text-align:center;text-anchor:middle;white-space:pre;fill:#8ac926;fill-opacity:1;stroke-width:0.188976;stroke-linecap:square"
         d="m 542.15546,71.586718 v 23.04 q 0,5.904002 3.888,9.072002 4.032,3.168 10.368,3.168 6.48,0 9.36,-2.016 2.88,-2.016 4.752,-5.904002 2.016,-3.888 5.184,-3.888 h 31.104 q 1.296,0 2.16,1.008 1.008,0.864 1.008,2.16 0,13.392002 -12.672,24.480002 -6.336,5.472 -16.848,8.928 -10.512,3.312 -24.768,3.312 -14.256,0 -26.064,-4.32 -11.664,-4.464 -19.008,-14.4 -7.344,-10.08 -7.344,-24.624002 v -16.992 q 0,-14.544 7.344,-24.624 13.824,-18.72 46.224,-18.72 13.104,0 23.616,3.456 10.512,3.312 16.848,8.784 12.672,11.088 12.672,24.48 0,1.296 -1.008,2.304 -0.864,0.864 -2.16,0.864 h -31.104 q -3.168,0 -5.184,-3.888 -1.872,-3.888 -4.752,-5.904 -2.88,-2.016 -9.36,-2.016 -6.336,0 -10.368,3.168 -3.888,3.168 -3.888,9.072 z"
         transform="matrix(0.50635426,0,0,0.50635426,-58.985418,-2.3939405)"
         id="path10"
         inkscape:label="C" />
      <path
         style="font-size:144px;font-family:'Rubik Mono One';-inkscape-font-specification:'Rubik Mono One';text-align:center;text-anchor:middle;white-space:pre;fill:#ffca3a;fill-opacity:1;stroke-width:0.188976;stroke-linecap:square"
         d="m 422.20341,105.42672 h 57.456 q 1.584,0 2.736,1.152 1.152,1.152 1.152,2.736 v 20.304 q 0,1.584 -1.152,2.736 -1.152,1.152 -2.736,1.152 h -91.008 q -1.584,0 -2.736,-1.152 -1.152,-1.152 -1.152,-2.736 V 36.594718 q 0,-1.584 1.152,-2.736 1.152,-1.152 2.736,-1.152 h 89.568 q 1.584,0 2.736,1.152 1.152,1.152 1.152,2.736 v 20.304 q 0,1.584 -1.152,2.736 -1.152,1.152 -2.736,1.152 h -56.016 v 9.072 h 48.096 q 1.584,0 2.736,1.152 1.152,1.152 1.152,2.736 v 18.72 q 0,1.584 -1.152,2.736 -1.152,1.152 -2.736,1.152 h -48.096 z"
         transform="matrix(0.50635426,0,0,0.50635426,-58.985418,-2.3939405)"
         id="path15"
         inkscape:label="E" />
      <path
         id="path19"
         style="font-size:144px;font-family:'Rubik Mono One';-inkscape-font-specification:'Rubik Mono One';text-align:center;text-anchor:middle;white-space:pre;fill:#ff924c;fill-opacity:1;stroke-width:0.188976;stroke-linecap:square"
         d="m 271.43574,32.706419 c -1.056,0 -1.96812,0.384211 -2.73612,1.152211 -0.768,0.768 -1.15221,1.680118 -1.15221,2.736118 v 93.023942 c 0,1.056 0.38421,1.96812 1.15221,2.73612 0.768,0.768 1.68012,1.15221 2.73612,1.15221 h 30.95968 c 1.056,0 1.96811,-0.38421 2.73611,-1.15221 0.768,-0.768 1.15222,-1.68012 1.15222,-2.73612 v -27.64796 h 19.0079 c 16.128,0 27.55139,-3.023749 34.27139,-9.07175 6.72,-6.144 10.08006,-14.399943 10.08006,-24.767943 0,-10.368 -3.98376,-18.864457 -11.95176,-25.488457 -7.968,-6.624 -18.76769,-9.936161 -32.39969,-9.936161 z m 34.9919,26.784567 h 18.2874 c 2.304,0 4.12823,0.767401 5.47223,2.303401 1.344,1.536 2.01561,3.503933 2.01561,5.903933 0,2.4 -0.7195,4.272135 -2.1595,5.616135 -1.344,1.344 -3.12034,2.016625 -5.32834,2.016625 h -18.2874 z"
         transform="matrix(0.50635426,0,0,0.50635426,-58.985418,-2.3939405)"
         inkscape:label="P" />
      <path
         style="font-size:144px;font-family:'Rubik Mono One';-inkscape-font-specification:'Rubik Mono One';text-align:center;text-anchor:middle;white-space:pre;fill:#ff595e;fill-opacity:1;stroke-width:0.188976;stroke-linecap:square"
         d="m 196.1233,69.282718 q 23.616,2.736 33.552,10.224 10.08,7.344 10.08,22.176002 0,14.832 -14.544,24.048 -14.544,9.216 -38.592,9.216 -24.048,0 -37.44,-8.784 -13.248,-8.928 -13.248,-21.888 0,-3.168 3.312,-3.168 h 29.52 q 3.024,0 4.896,1.872 4.032,3.888 13.968,3.888 13.68,0 13.68,-4.176 0,-2.592 -4.32,-4.032002 -4.32,-1.584 -17.136,-3.024 -40.752,-4.896 -40.752,-31.248 0,-14.832 13.104,-23.904 13.104,-9.216 34.992,-9.216 22.032,0 35.568,9.648 13.536,9.504 13.536,20.16 0,1.44 -1.008,2.304 -0.864,0.864 -2.448,0.864 h -30.96 q -2.592,0 -4.464,-1.728 -3.456,-3.168 -10.368,-3.168 -9.648,0 -9.648,4.032 0,2.16 3.744,3.456 3.744,1.152 14.976,2.448 z"
         transform="matrix(0.50635426,0,0,0.50635426,-58.985418,-2.3939405)"
         id="path20"
         inkscape:label="S" />
    </g>
  </g>
</svg>
