<?xml version="1.0" encoding="UTF-8" standalone="no"?>
<!-- Created with Inkscape (http://www.inkscape.org/) -->

<svg
   width="1023.5928"
   height="1023.5928"
   viewBox="0 0 270.8256 270.8256"
   version="1.1"
   id="svg1"
   xml:space="preserve"
   sodipodi:docname="design.svg"
   inkscape:version="1.4.2 (ebf0e940d0, 2025-05-08)"
   xmlns:inkscape="http://www.inkscape.org/namespaces/inkscape"
   xmlns:sodipodi="http://sodipodi.sourceforge.net/DTD/sodipodi-0.dtd"
   xmlns="http://www.w3.org/2000/svg"
   xmlns:svg="http://www.w3.org/2000/svg"><sodipodi:namedview
     id="namedview1"
     pagecolor="#ffffff"
     bordercolor="#000000"
     borderopacity="0.25"
     inkscape:showpageshadow="2"
     inkscape:pageopacity="0.0"
     inkscape:pagecheckerboard="0"
     inkscape:deskcolor="#d1d1d1"
     inkscape:document-units="mm"
     showgrid="true"
     inkscape:zoom="0.53703704"
     inkscape:cx="-359.37931"
     inkscape:cy="815.58621"
     inkscape:window-width="2560"
     inkscape:window-height="1360"
     inkscape:window-x="0"
     inkscape:window-y="0"
     inkscape:window-maximized="1"
     inkscape:current-layer="layer1"
     inkscape:export-bgcolor="#ffffff00"><inkscape:grid
       id="grid2"
       units="mm"
       originx="540.00018"
       originy="540.00006"
       spacingx="4"
       spacingy="4"
       empcolor="#0099e5"
       empopacity="0.09803922"
       color="#0099e5"
       opacity="0.14901961"
       empspacing="5"
       enabled="true"
       visible="false"
       dotted="false" /><inkscape:page
       x="3.9851e-20"
       y="1.9916341e-20"
       width="270.82559"
       height="270.82559"
       id="page2"
       margin="0"
       bleed="0" /></sodipodi:namedview><defs
     id="defs1"><inkscape:path-effect
       effect="fillet_chamfer"
       id="path-effect32"
       is_visible="true"
       lpeversion="1"
       nodesatellites_param="F,0,0,1,0,10.583333,0,1 @ F,0,0,1,0,10.583333,0,1 @ F,0,0,1,0,10.583333,0,1 @ F,0,0,1,0,10.583333,0,1 @ F,0,0,1,0,10.583333,0,1 @ F,0,0,1,0,10.583333,0,1"
       radius="40"
       unit="px"
       method="auto"
       mode="F"
       chamfer_steps="1"
       flexible="false"
       use_knot_distance="true"
       apply_no_radius="true"
       apply_with_radius="true"
       only_selected="false"
       hide_knots="false" /></defs><g
     inkscape:label="Layer 1"
     inkscape:groupmode="layer"
     id="layer1"
     transform="translate(1.6357402e-4,8.1749424e-5)"><path
       id="path25"
       style="fill:#f50376;fill-opacity:1;stroke:none;stroke-width:29.6779;stroke-dasharray:none;stroke-opacity:1"
       d="M 263.99982,-8.1738735e-5 A 6.825218,6.825218 0 0 1 270.82542,6.8249481 V 128.58739 a 16.477536,16.477536 0 0 1 -4.82661,11.65107 l -29.02679,29.02737 -33.85343,-33.85342 17.74311,-17.74251 a 16.477477,16.477477 0 0 0 4.82603,-11.65107 V 51.962641 a 6.8252534,6.8252534 0 0 0 -6.82562,-6.825028 H 164.80652 A 16.477469,16.477469 0 0 0 153.15544,49.96365 L 135.41235,67.70617 101.55951,33.853334 130.58631,4.8259568 A 16.477537,16.477537 0 0 1 142.23796,-8.1738735e-5 Z M 33.852671,101.559 67.706092,135.41241 49.963577,153.15493 a 16.477609,16.477609 0 0 0 -4.826037,11.65165 v 54.05619 a 6.8251755,6.8251755 0 0 0 6.825032,6.82503 h 54.056178 a 16.477601,16.477601 0 0 0 11.65109,-4.82604 l 17.7431,-17.74251 33.85282,33.85282 -29.02679,29.02681 a 16.477587,16.477587 0 0 1 -11.65165,4.82662 H 6.8248797 A 6.8251826,6.8251826 0 0 1 -1.6356994e-4,264.00046 V 142.23803 A 16.477598,16.477598 0 0 1 4.825885,130.58637 Z"
       inkscape:export-filename="spectrum/light/spectrum_light.svg"
       inkscape:export-xdpi="96"
       inkscape:export-ydpi="96" /><path
       id="path26"
       style="display:inline;fill:#0c090d;fill-opacity:1;stroke:none;stroke-width:17.8068;stroke-dasharray:none;stroke-opacity:1"
       d="m 196.29357,67.70617 a 6.825218,6.825218 0 0 1 6.82561,6.825028 v 26.973572 a 16.477531,16.477531 0 0 1 -4.82662,11.65165 l -8.71498,8.71498 -40.62363,-40.623633 8.71497,-8.71556 a 16.477528,16.477528 0 0 1 11.65166,-4.826037 z m -115.045879,81.24785 40.623639,40.62362 -8.71498,8.71499 a 16.477537,16.477537 0 0 1 -11.65166,4.82603 H 74.531711 a 6.825218,6.825218 0 0 1 -6.825619,-6.82503 v -26.97357 a 16.47754,16.47754 0 0 1 4.826624,-11.65107 z" /><path
       style="fill:#0f79f8;fill-opacity:1;stroke:none;stroke-width:30.9454;stroke-dasharray:none;stroke-opacity:1"
       d="m 444.3598,350.86856 h -34.82635 a 25.550426,25.550426 157.5 0 0 -18.06688,7.48355 L 42.479172,707.33951 a 25.550426,25.550426 112.5 0 0 -7.483546,18.06688 v 34.82634 a 10.583333,10.583333 45 0 0 10.583333,10.58333 h 34.82634 a 25.550425,25.550425 157.5 0 0 18.066879,-7.48355 L 447.45957,414.34511 a 25.550433,25.550433 112.5 0 0 7.48355,-18.06688 l 10e-6,-34.82634 A 10.583331,10.583331 45.000005 0 0 444.3598,350.86856 Z"
       id="path27"
       sodipodi:nodetypes="ccccccc"
       inkscape:path-effect="#path-effect32"
       inkscape:original-d="M 454.94313,350.86856 H 398.95012 L 34.995626,714.82306 v 55.993 H 90.988632 L 454.94312,406.86156 Z"
       transform="matrix(-0.64490251,0,0,0.64490251,293.39399,-226.276)" /></g></svg>
