<?xml version="1.0" encoding="UTF-8" standalone="no"?>
<!-- Created with Inkscape (http://www.inkscape.org/) -->

<svg
   width="1023.5921"
   height="1023.5921"
   viewBox="0 0 270.82541 270.82541"
   version="1.1"
   id="svg1"
   xml:space="preserve"
   sodipodi:docname="design.svg"
   inkscape:version="1.4.2 (ebf0e940d0, 2025-05-08)"
   xmlns:inkscape="http://www.inkscape.org/namespaces/inkscape"
   xmlns:sodipodi="http://sodipodi.sourceforge.net/DTD/sodipodi-0.dtd"
   xmlns="http://www.w3.org/2000/svg"
   xmlns:svg="http://www.w3.org/2000/svg"><sodipodi:namedview
     id="namedview1"
     pagecolor="#ffffff"
     bordercolor="#000000"
     borderopacity="0.25"
     inkscape:showpageshadow="2"
     inkscape:pageopacity="0.0"
     inkscape:pagecheckerboard="0"
     inkscape:deskcolor="#d1d1d1"
     inkscape:document-units="mm"
     showgrid="true"
     inkscape:zoom="0.53703704"
     inkscape:cx="-359.37931"
     inkscape:cy="815.58621"
     inkscape:window-width="2560"
     inkscape:window-height="1360"
     inkscape:window-x="0"
     inkscape:window-y="0"
     inkscape:window-maximized="1"
     inkscape:current-layer="layer1"
     inkscape:export-bgcolor="#ffffff00"><inkscape:grid
       id="grid2"
       units="mm"
       originx="540"
       originy="540"
       spacingx="4"
       spacingy="4"
       empcolor="#0099e5"
       empopacity="0.09803922"
       color="#0099e5"
       opacity="0.14901961"
       empspacing="5"
       enabled="true"
       visible="false"
       dotted="false" /><inkscape:page
       x="0"
       y="0"
       width="270.82541"
       height="270.82541"
       id="page2"
       margin="0"
       bleed="0" /></sodipodi:namedview><defs
     id="defs1"><inkscape:path-effect
       effect="fillet_chamfer"
       id="path-effect36"
       is_visible="true"
       lpeversion="1"
       nodesatellites_param="F,0,0,1,0,10.583333,0,1 @ F,0,0,1,0,10.583333,0,1 @ F,0,0,1,0,10.583333,0,1 @ F,0,0,1,0,10.583333,0,1 @ F,0,0,1,0,10.583333,0,1 @ F,0,0,1,0,10.583333,0,1"
       radius="40"
       unit="px"
       method="auto"
       mode="F"
       chamfer_steps="1"
       flexible="false"
       use_knot_distance="true"
       apply_no_radius="true"
       apply_with_radius="true"
       only_selected="false"
       hide_knots="false" /></defs><g
     inkscape:label="Layer 1"
     inkscape:groupmode="layer"
     id="layer1"><path
       id="path33"
       style="fill:#f50376;fill-opacity:1;stroke:none;stroke-width:29.6779;stroke-dasharray:none;stroke-opacity:1"
       d="m 263.99982,0 a 6.8252139,6.8252139 0 0 1 6.8256,6.8250256 V 128.58739 a 16.477526,16.477526 0 0 1 -4.82661,11.65106 l -29.02678,29.02736 -33.85339,-33.85341 17.74308,-17.74249 a 16.477467,16.477467 0 0 0 4.82604,-11.65106 V 51.962692 a 6.8252493,6.8252493 0 0 0 -6.82562,-6.825024 h -54.05556 a 16.477459,16.477459 0 0 0 -11.65107,4.826034 L 135.41243,67.706211 101.55961,33.853396 130.5864,4.8260356 A 16.477527,16.477527 0 0 1 142.23803,0 Z M 33.852814,101.55902 67.706214,135.4124 49.96371,153.15492 a 16.477599,16.477599 0 0 0 -4.826035,11.65164 v 54.05616 a 6.8251713,6.8251713 0 0 0 6.825029,6.82503 h 54.056146 a 16.477591,16.477591 0 0 0 11.65107,-4.82604 l 17.7431,-17.74251 33.8528,33.85281 -29.02677,29.02679 a 16.477578,16.477578 0 0 1 -11.65165,4.82662 H 6.8250394 A 6.8251784,6.8251784 0 0 1 0,264.00038 V 142.23802 a 16.477587,16.477587 0 0 1 4.8260457,-11.65165 z"
       inkscape:export-filename="spectrum/dark/spectrum_dark.svg"
       inkscape:export-xdpi="96"
       inkscape:export-ydpi="96" /><path
       id="path34"
       style="display:inline;fill:#ffffff;fill-opacity:1;stroke:none;stroke-width:17.8068;stroke-dasharray:none;stroke-opacity:1"
       d="m 196.29361,67.706211 a 6.8252139,6.8252139 0 0 1 6.8256,6.825025 v 26.973554 a 16.477521,16.477521 0 0 1 -4.82662,11.65164 l -8.71496,8.71497 -40.62361,-40.6236 8.71497,-8.715555 a 16.477518,16.477518 0 0 1 11.65165,-4.826034 z m -115.045805,81.247799 40.623605,40.6236 -8.71497,8.71497 a 16.477527,16.477527 0 0 1 -11.65165,4.82604 H 74.531829 a 6.8252139,6.8252139 0 0 1 -6.825615,-6.82502 v -26.97356 a 16.47753,16.47753 0 0 1 4.826621,-11.65106 z" /><path
       style="fill:#0f79f8;fill-opacity:1;stroke:none;stroke-width:30.9454;stroke-dasharray:none;stroke-opacity:1"
       d="m 444.3598,350.86856 h -34.82635 a 25.550426,25.550426 157.5 0 0 -18.06688,7.48355 L 42.479172,707.33951 a 25.550426,25.550426 112.5 0 0 -7.483546,18.06688 v 34.82634 a 10.583333,10.583333 45 0 0 10.583333,10.58333 h 34.82634 a 25.550425,25.550425 157.5 0 0 18.066879,-7.48355 L 447.45957,414.34511 a 25.550433,25.550433 112.5 0 0 7.48355,-18.06688 l 10e-6,-34.82634 A 10.583331,10.583331 45.000005 0 0 444.3598,350.86856 Z"
       id="path35"
       sodipodi:nodetypes="ccccccc"
       inkscape:path-effect="#path-effect36"
       inkscape:original-d="M 454.94313,350.86856 H 398.95012 L 34.995626,714.82306 v 55.993 H 90.988632 L 454.94312,406.86156 Z"
       transform="matrix(-0.64490212,0,0,0.64490212,293.39397,-226.27578)" /></g></svg>
