<?xml version="1.0" encoding="UTF-8" standalone="no"?>
<svg
   height="24"
   viewBox="0 -960 960 960"
   width="24"
   version="1.1"
   id="svg1"
   sodipodi:docname="Add.svg"
   inkscape:version="1.3.2 (091e20ef0f, 2023-11-25, custom)"
   xmlns:inkscape="http://www.inkscape.org/namespaces/inkscape"
   xmlns:sodipodi="http://sodipodi.sourceforge.net/DTD/sodipodi-0.dtd"
   xmlns="http://www.w3.org/2000/svg"
   xmlns:svg="http://www.w3.org/2000/svg">
  <defs
     id="defs1">
    <inkscape:path-effect
       effect="fillet_chamfer"
       id="path-effect1"
       is_visible="true"
       lpeversion="1"
       nodesatellites_param="F,0,0,1,0,26,0,1 @ F,0,0,1,0,26,0,1 @ F,0,0,1,0,26,0,1 @ F,0,0,1,0,26,0,1 @ F,0,0,1,0,26,0,1 @ F,0,0,1,0,26,0,1 @ F,0,0,1,0,26,0,1 @ F,0,0,1,0,26,0,1 @ F,0,0,1,0,26,0,1 @ F,0,0,1,0,26,0,1 @ F,0,0,1,0,26,0,1 @ F,0,0,1,0,26,0,1"
       radius="26"
       unit="px"
       method="auto"
       mode="F"
       chamfer_steps="1"
       flexible="false"
       use_knot_distance="true"
       apply_no_radius="true"
       apply_with_radius="true"
       only_selected="false"
       hide_knots="false" />
  </defs>
  <sodipodi:namedview
     id="namedview1"
     pagecolor="#ffffff"
     bordercolor="#000000"
     borderopacity="0.25"
     inkscape:showpageshadow="2"
     inkscape:pageopacity="0.0"
     inkscape:pagecheckerboard="0"
     inkscape:deskcolor="#d1d1d1"
     inkscape:zoom="48.75"
     inkscape:cx="12"
     inkscape:cy="12"
     inkscape:window-width="2560"
     inkscape:window-height="1374"
     inkscape:window-x="1920"
     inkscape:window-y="29"
     inkscape:window-maximized="1"
     inkscape:current-layer="svg1" />
  <path
     d="M 414,-440 H 226 a 26,26 45 0 1 -26,-26 v -28 a 26,26 135 0 1 26,-26 h 188 a 26,26 135 0 0 26,-26 v -188 a 26,26 135 0 1 26,-26 h 28 a 26,26 45 0 1 26,26 v 188 a 26,26 45 0 0 26,26 h 188 a 26,26 45 0 1 26,26 v 28 a 26,26 135 0 1 -26,26 H 546 a 26,26 135 0 0 -26,26 v 188 a 26,26 135 0 1 -26,26 h -28 a 26,26 45 0 1 -26,-26 v -188 a 26,26 45 0 0 -26,-26 z"
     id="path1"
     inkscape:path-effect="#path-effect1"
     inkscape:original-d="M440-440H200v-80h240v-240h80v240h240v80H520v240h-80v-240Z"
     style="fill:#ffffff;fill-opacity:1" />
</svg>
