<?xml version="1.0" encoding="UTF-8" standalone="no"?>
<svg
   height="24"
   viewBox="0 -960 960 960"
   width="24"
   version="1.1"
   id="svg1"
   sodipodi:docname="arrow_back_FILL0_wght400_GRAD0_opsz24.svg"
   inkscape:version="1.3.2 (091e20e, 2023-11-25)"
   xmlns:inkscape="http://www.inkscape.org/namespaces/inkscape"
   xmlns:sodipodi="http://sodipodi.sourceforge.net/DTD/sodipodi-0.dtd"
   xmlns="http://www.w3.org/2000/svg"
   xmlns:svg="http://www.w3.org/2000/svg">
  <defs
     id="defs1">
    <inkscape:path-effect
       effect="fillet_chamfer"
       id="path-effect1"
       is_visible="true"
       lpeversion="1"
       nodesatellites_param="F,0,0,1,0,27,0,1 @ F,0,0,1,0,27,0,1 @ F,0,0,1,0,27,0,1 @ F,0,0,1,0,27,0,1 @ F,0,0,1,0,27,0,1 @ F,0,0,1,0,27,0,1 @ F,0,0,1,0,27,0,1 @ F,0,0,1,0,27,0,1 @ F,0,0,1,0,27,0,1"
       radius="27"
       unit="px"
       method="auto"
       mode="F"
       chamfer_steps="1"
       flexible="false"
       use_knot_distance="true"
       apply_no_radius="true"
       apply_with_radius="true"
       only_selected="false"
       hide_knots="false" />
  </defs>
  <sodipodi:namedview
     id="namedview1"
     pagecolor="#ffffff"
     bordercolor="#000000"
     borderopacity="0.25"
     inkscape:showpageshadow="2"
     inkscape:pageopacity="0.0"
     inkscape:pagecheckerboard="0"
     inkscape:deskcolor="#d1d1d1"
     inkscape:zoom="9.8333333"
     inkscape:cx="12"
     inkscape:cy="12"
     inkscape:window-width="1440"
     inkscape:window-height="847"
     inkscape:window-x="0"
     inkscape:window-y="25"
     inkscape:window-maximized="1"
     inkscape:current-layer="svg1" />
  <path
     d="m 332.09188,-420.90812 185.81624,185.81624 a 26.762119,26.762119 90.253515 0 1 -0.1682,38.01407 l -18.47984,18.15562 a 27.239995,27.239995 0.25351453 0 1 -38.35196,-0.16969 L 179.09188,-460.90812 a 27,27 90 0 1 0,-38.18376 l 281.81624,-281.81624 a 27.239995,27.239995 179.74649 0 1 38.35196,-0.16969 l 18.47984,18.15562 a 26.762119,26.762119 89.746485 0 1 0.1682,38.01407 L 332.09188,-539.09188 A 11.183766,11.183766 67.5 0 0 340,-520 h 433 a 27,27 45 0 1 27,27 v 26 a 27,27 135 0 1 -27,27 H 340 a 11.183766,11.183766 112.5 0 0 -7.90812,19.09188 z"
     id="path1"
     style="fill:#ffffff;fill-opacity:1"
     inkscape:path-effect="#path-effect1"
     inkscape:original-d="m 313,-440 224,224 -57,56 -320,-320 320,-320 57,56 -224,224 h 487 v 80 z"
     transform="matrix(1.2328831,0,0,1.2328831,-113.08615,111.78389)" />
</svg>
