<?xml version="1.0" encoding="UTF-8" standalone="no"?>
<svg
   version="1.1"
   width="24"
   height="24.000002"
   viewBox="0 0 18.000036 18.000023"
   id="svg5"
   sodipodi:docname="ArtNet.svg"
   inkscape:version="1.4 (e7c3feb100, 2024-10-09)"
   xmlns:inkscape="http://www.inkscape.org/namespaces/inkscape"
   xmlns:sodipodi="http://sodipodi.sourceforge.net/DTD/sodipodi-0.dtd"
   xmlns="http://www.w3.org/2000/svg"
   xmlns:svg="http://www.w3.org/2000/svg">
  <defs
     id="defs5" />
  <sodipodi:namedview
     id="namedview5"
     pagecolor="#ffffff"
     bordercolor="#000000"
     borderopacity="0.25"
     inkscape:showpageshadow="2"
     inkscape:pageopacity="0.0"
     inkscape:pagecheckerboard="0"
     inkscape:deskcolor="#d1d1d1"
     inkscape:document-units="in"
     inkscape:zoom="16.733802"
     inkscape:cx="1.8525378"
     inkscape:cy="21.513342"
     inkscape:window-width="2560"
     inkscape:window-height="1374"
     inkscape:window-x="1920"
     inkscape:window-y="29"
     inkscape:window-maximized="1"
     inkscape:current-layer="svg5">
    <inkscape:page
       x="0"
       y="0"
       width="18.000036"
       height="18.000023"
       id="page2"
       margin="0"
       bleed="0" />
  </sodipodi:namedview>
  <path
     d="m 1.1342094,16.031131 v -1.579545 h 1.1830077 v 0.212116 H 1.3401474 v 0.439642 h 0.5970785 v 0.209134 H 1.3401474 v 0.50185 h 0.9863724 v 0.216803 z m 2.1563137,-1.364376 v 1.364376 H 3.0860053 V 14.666755 H 2.5247885 v -0.215169 h 1.3293658 v 0.215169 z m 0.9088261,1.364376 v -1.579545 h 0.205725 v 0.645154 h 0.967838 V 14.451586 H 5.57743 v 1.579545 H 5.3729122 v -0.716026 h -0.967838 v 0.716026 z m 2.0159918,0 v -1.579545 h 1.1828657 v 0.212116 H 6.421066 v 0.439642 h 0.5972915 v 0.209134 H 6.421066 v 0.50185 h 0.9863724 v 0.216803 z M 8.8050479,14.656104 H 8.1010947 v 0.554967 h 0.7039532 c 0.051343,0 0.086139,-0.01172 0.1048864,-0.03565 0.018534,-0.02415 0.027553,-0.06583 0.027553,-0.125978 v -0.230082 c 0,-0.06022 -0.00944,-0.102117 -0.028334,-0.126475 -0.019173,-0.0245 -0.053544,-0.03678 -0.1041052,-0.03678 z m -0.9096782,1.375027 v -1.579545 h 0.989994 c 0.09182,0 0.1584303,0.02393 0.1989078,0.07243 0.040833,0.0485 0.061142,0.126403 0.061142,0.233491 v 0.353504 c 0,0.106093 -0.02031,0.183569 -0.061142,0.232071 -0.040477,0.0485 -0.1070878,0.0725 -0.1989078,0.0725 H 8.7049904 l 0.5612168,0.615542 H 8.9618449 L 8.4624095,15.415589 H 8.1010947 v 0.615542 z m 1.8135333,0 v -1.579545 h 0.1288175 l 0.9189095,1.056178 c 0.02116,0.02414 0.04325,0.05312 0.06725,0.08678 0.02315,0.03423 0.04751,0.07144 0.07243,0.112272 -0.0064,-0.05049 -0.01065,-0.103608 -0.01385,-0.159212 -0.0036,-0.05511 -0.005,-0.131658 -0.005,-0.229443 v -0.866573 h 0.188398 v 1.579545 h -0.114971 l -0.943693,-1.098644 c -0.0043,-0.0043 -0.011433,-0.01271 -0.020523,-0.02336 -0.046656,-0.05418 -0.08131,-0.105667 -0.1034661,-0.154027 0.00497,0.04793 0.00788,0.09885 0.010297,0.153033 0.00213,0.05454 0.00355,0.118308 0.00355,0.192233 v 0.930769 z m 1.993835,0 v -1.579545 h 1.182795 v 0.212116 h -0.97707 v 0.439642 h 0.597221 v 0.209134 h -0.597221 v 0.50185 h 0.986373 v 0.216803 z m 2.156314,-1.364376 v 1.364376 h -0.204731 v -1.364376 h -0.561217 v -0.215169 h 1.329579 v 0.215169 z"
     style="fill:#ffffff;fill-rule:evenodd;stroke-width:0.710131;fill-opacity:1"
     id="path1" />
  <path
     d="M 1.7904417,7.032134 H 1.175681 L 3.4781398,2.0365732 H 4.1792525 L 6.4746099,7.032134 H 5.8513987 L 5.1418355,5.4642351 H 2.5000049 Z M 4.9373176,5.0145799 3.8121146,2.5061831 2.7033155,5.0145799 Z M 7.4110601,2.527345 V 7.032134 H 6.8363508 V 2.0365732 h 1.5944579 c 0.3505208,0 0.6315198,0.022369 0.8459084,0.066823 0.2127553,0.044454 0.4061951,0.1181658 0.5801059,0.2212059 0.236545,0.1395408 0.422741,0.3257372 0.560436,0.5597965 0.137836,0.2331361 0.205938,0.4801198 0.205938,0.7412351 0,0.3864534 -0.136274,0.7190079 -0.408894,0.9978055 C 9.9401924,4.9032313 9.5995428,5.0554125 9.1891579,5.0801961 L 10.623197,7.032134 H 9.9305346 L 8.1691253,4.6234396 h 0.562282 c 0.3753754,0 0.6801637,-0.092601 0.9152882,-0.2775903 0.2352662,-0.1849892 0.35329,-0.4239484 0.35329,-0.7143921 0,-0.1755445 -0.036075,-0.3359632 -0.1085081,-0.4801198 C 9.8206063,3.0073938 9.7135185,2.8819846 9.5715636,2.7743287 9.454818,2.6853492 9.314141,2.6221475 9.1501007,2.5835164 8.9858473,2.5460214 8.69235,2.527345 8.2708161,2.527345 Z"
     style="fill:#ffffff;fill-rule:evenodd;stroke-width:0.710131;fill-opacity:1"
     id="path2" />
  <path
     d="M 14.384194,14.086578 H 13.555045 V 2.765239 H 11.132077 V 1.9688977 h 5.773581 V 2.765239 h -2.521464 z"
     style="fill:#ffffff;fill-rule:evenodd;stroke-width:0.710131;fill-opacity:1"
     id="path3" />
  <path
     d="m 9.2934052,10.342127 h 3.3954928 v 0.671429 H 9.2934052 v 2.415867 h 3.3954928 v 0.657155 H 8.4942234 V 7.2976521 H 12.688898 V 7.9645364 H 9.2934052 Z"
     style="fill:#ffffff;fill-rule:evenodd;stroke-width:0.710131;fill-opacity:1"
     id="path4" />
  <path
     d="M 6.6615165,13.274969 6.5637314,7.2976521 H 7.3776839 V 14.086578 H 6.3915246 L 1.8107515,8.0998165 1.9027135,14.086578 H 1.094371 V 7.2976521 h 0.9863724 z"
     style="fill:#ffffff;fill-rule:evenodd;stroke-width:0.710131;fill-opacity:1"
     id="path5" />
</svg>
