<?xml version="1.0" encoding="UTF-8" standalone="no"?>
<!-- Created with Inkscape (http://www.inkscape.org/) -->

<svg
   version="1.1"
   id="svg1"
   width="24"
   height="24"
   viewBox="0 0 24 24"
   sodipodi:docname="Auto.svg"
   inkscape:version="1.4 (e7c3feb100, 2024-10-09)"
   xml:space="preserve"
   xmlns:inkscape="http://www.inkscape.org/namespaces/inkscape"
   xmlns:sodipodi="http://sodipodi.sourceforge.net/DTD/sodipodi-0.dtd"
   xmlns="http://www.w3.org/2000/svg"
   xmlns:svg="http://www.w3.org/2000/svg"><defs
     id="defs1" /><sodipodi:namedview
     id="namedview1"
     pagecolor="#ffffff"
     bordercolor="#000000"
     borderopacity="0.25"
     inkscape:showpageshadow="2"
     inkscape:pageopacity="0.0"
     inkscape:pagecheckerboard="0"
     inkscape:deskcolor="#d1d1d1"
     inkscape:zoom="24.589916"
     inkscape:cx="20.109869"
     inkscape:cy="15.290821"
     inkscape:window-width="1920"
     inkscape:window-height="1043"
     inkscape:window-x="0"
     inkscape:window-y="0"
     inkscape:window-maximized="1"
     inkscape:current-layer="g1" /><g
     inkscape:groupmode="layer"
     inkscape:label="Image"
     id="g1"><path
       style="fill:#ffffff;stroke-width:0.891338;fill-opacity:1"
       d="M 2.7381797,21.261434 1.3491781,19.871969 8.1073799,13.113864 14.865582,6.3557587 16.254584,7.7452244 17.643586,9.13469 10.885383,15.892795 4.1271813,22.6509 Z m 5.4946667,-4.470924 4.0634406,-4.0636 -0.512438,-0.511208 -0.512438,-0.511209 -4.0729844,4.073145 -4.0729841,4.073145 0.5003573,0.501664 c 0.2751966,0.275916 0.5100883,0.501665 0.5219816,0.501665 0.011893,0 1.8501726,-1.828621 4.085065,-4.063602 z m 7.1232556,-8.1467359 -0.51166,-0.5116601 -1.336844,1.3363544 -1.336844,1.3363526 0.511289,0.512521 0.51129,0.51252 1.337214,-1.337214 1.337214,-1.3372139 z m 3.614971,9.5273739 c -0.05663,-0.09849 -0.350434,-0.631878 -0.652905,-1.185315 l -0.549947,-1.006249 -1.169436,-0.637159 c -0.643189,-0.350438 -1.169435,-0.643204 -1.169435,-0.650591 0,-0.0074 0.527175,-0.301946 1.171499,-0.654573 l 1.171499,-0.64114 0.611458,-1.119578 c 0.336302,-0.615766 0.6317,-1.145947 0.65644,-1.178178 0.03499,-0.04559 0.18735,0.202948 0.686289,1.119576 l 0.641307,1.17818 1.150389,0.627011 c 0.632714,0.344857 1.147984,0.645684 1.145045,0.668504 -0.0029,0.02282 -0.520681,0.323516 -1.150536,0.668214 l -1.145192,0.626721 -0.646759,1.181822 -0.646758,1.181821 z m 0.750793,-3.264504 c 0.155405,-0.08291 0.306675,-0.166766 0.336157,-0.186341 0.03707,-0.02462 -0.04986,-0.09128 -0.281932,-0.216183 -0.326002,-0.175464 -0.340777,-0.190185 -0.520049,-0.518156 l -0.184515,-0.337563 -0.06933,0.124548 c -0.315393,0.566612 -0.298939,0.547493 -0.625346,0.726636 -0.173398,0.09517 -0.315271,0.180628 -0.315271,0.189914 0,0.0093 0.140982,0.09471 0.313293,0.189826 0.253168,0.139751 0.334623,0.210474 0.424434,0.368514 0.06113,0.107566 0.148274,0.258255 0.193658,0.334866 l 0.08252,0.139293 0.181914,-0.332301 c 0.170321,-0.311124 0.199921,-0.341909 0.464467,-0.483053 z M 7.5873454,9.8562004 C 7.5687543,9.8280582 7.2245145,9.2042224 6.8223678,8.469899 L 6.0911922,7.1347649 4.7034508,6.3797669 C 3.940193,5.9645175 3.3155304,5.615368 3.3153119,5.6038778 3.3150933,5.5923875 3.9393859,5.2428271 4.7026286,4.827075 L 6.0903428,4.0711634 6.8428339,2.6874121 C 7.256704,1.9263495 7.607411,1.3029254 7.622183,1.3020243 7.6369551,1.301133 7.9909411,1.9255419 8.4088189,2.6896209 l 0.759778,1.3892339 1.3755551,0.7474465 c 0.756556,0.4110966 1.375555,0.760215 1.375555,0.7758196 0,0.015607 -0.619119,0.3655127 -1.375819,0.7775756 L 9.1680678,7.1289016 8.4075767,8.5181347 C 7.9893066,9.2822136 7.6412495,9.9073686 7.6341165,9.9073686 c -0.00713,0 -0.028181,-0.023023 -0.046771,-0.051172 z M 8.7308058,5.9424222 C 9.0025037,5.7954147 9.248732,5.6564453 9.2779797,5.6336021 9.316875,5.6032226 9.1839412,5.5118667 8.7830215,5.2934515 L 8.2348857,4.9948355 7.9308574,4.4391505 7.6268292,3.8834655 7.3230114,4.4421168 7.0191936,5.0007682 6.4821796,5.2918774 C 6.1868218,5.4519875 5.9451655,5.5923875 5.9451655,5.6038778 c 0,0.011489 0.2416563,0.1518902 0.5370141,0.3120003 L 7.0191936,6.2069873 7.3223873,6.7644906 7.625581,7.3219948 7.9311953,6.7658517 8.2368095,6.2097094 Z M 19.034454,8.5191445 C 19.011467,8.4898641 18.733129,7.9864659 18.415921,7.4004807 18.098714,6.8144956 17.811698,6.3028123 17.77811,6.2634063 17.744524,6.2240003 17.211268,5.9159619 16.593103,5.5788766 15.974937,5.2417913 15.461788,4.9540586 15.452772,4.93947 c -0.009,-0.014591 0.458253,-0.2857727 1.038378,-0.6026309 0.580125,-0.3168572 1.109691,-0.610135 1.176812,-0.6517284 0.09072,-0.056217 0.28287,-0.3716549 0.748762,-1.2292093 0.344698,-0.6344722 0.637496,-1.1540197 0.650663,-1.1545501 0.01317,-5.303e-4 0.310729,0.5238536 0.661248,1.1652987 l 0.63731,1.1662622 1.16669,0.6371862 c 0.641679,0.3504527 1.166388,0.6482068 1.166019,0.6616767 -3.69e-4,0.013468 -0.501805,0.2971141 -1.114301,0.6303212 -0.612496,0.3332071 -1.146295,0.6340336 -1.186221,0.6685034 -0.03992,0.034468 -0.349159,0.5703172 -0.687184,1.1907722 C 19.372921,8.041826 19.09183,8.554626 19.0863,8.560926 19.0808,8.567256 19.05744,8.548421 19.03445,8.519149 Z m 0.233552,-2.9048212 c 0.167456,-0.3104414 0.187585,-0.3306052 0.48768,-0.4885209 0.172158,-0.090593 0.307952,-0.1798149 0.301765,-0.1982718 -0.0062,-0.01846 -0.151246,-0.1135503 -0.322352,-0.2113193 C 19.449564,4.5530599 19.411083,4.5144641 19.26687,4.2465841 19.180455,4.0860577 19.094692,3.9497008 19.076295,3.9435684 c -0.0184,-0.00615 -0.108521,0.1291914 -0.200275,0.3007187 -0.158402,0.296122 -0.183174,0.3208825 -0.490632,0.4904275 -0.178093,0.098208 -0.323646,0.1882327 -0.323452,0.2000554 1.95e-4,0.011819 0.142603,0.096701 0.316463,0.1886214 0.303186,0.1602928 0.323241,0.180339 0.490578,0.4903454 0.09596,0.1777712 0.185696,0.3234835 0.199417,0.3238062 0.01372,3.226e-4 0.103547,-0.1451268 0.199612,-0.3232197 z"
       id="path8" /></g></svg>
