<?xml version="1.0" encoding="UTF-8" standalone="no"?>
<!-- Created with Inkscape (http://www.inkscape.org/) -->

<svg
   width="48"
   height="48"
   viewBox="0 0 12.7 12.7"
   version="1.1"
   id="svg5"
   inkscape:version="1.2.1 (9c6d41e4, 2022-07-14)"
   sodipodi:docname="Channel_lock.svg"
   xml:space="preserve"
   xmlns:inkscape="http://www.inkscape.org/namespaces/inkscape"
   xmlns:sodipodi="http://sodipodi.sourceforge.net/DTD/sodipodi-0.dtd"
   xmlns="http://www.w3.org/2000/svg"
   xmlns:svg="http://www.w3.org/2000/svg"><sodipodi:namedview
     id="namedview7"
     pagecolor="#000000"
     bordercolor="#000000"
     borderopacity="0.25"
     inkscape:showpageshadow="2"
     inkscape:pageopacity="0"
     inkscape:pagecheckerboard="0"
     inkscape:deskcolor="#d1d1d1"
     inkscape:document-units="mm"
     showgrid="true"
     inkscape:zoom="24.256878"
     inkscape:cx="29.847205"
     inkscape:cy="29.744141"
     inkscape:window-width="1280"
     inkscape:window-height="747"
     inkscape:window-x="0"
     inkscape:window-y="25"
     inkscape:window-maximized="1"
     inkscape:current-layer="text6368"><inkscape:grid
       type="xygrid"
       id="grid182"
       originx="6.35"
       originy="6.3500008" /></sodipodi:namedview><defs
     id="defs2"><rect
       x="-36"
       y="-15.999997"
       width="146.95293"
       height="86.190647"
       id="rect6370" /><inkscape:path-effect
       effect="fillet_chamfer"
       id="path-effect6314"
       is_visible="true"
       lpeversion="1"
       nodesatellites_param="F,0,0,1,0,0.26458333,0,1 @ F,0,0,1,0,0.26458333,0,1 @ F,0,0,1,0,0.26458333,0,1 @ F,0,0,1,0,0.26458333,0,1 @ F,0,0,1,0,0.26458333,0,1 @ F,0,0,1,0,0.26458333,0,1 @ F,0,0,1,0,0.26458333,0,1 @ F,0,0,1,0,0.26458333,0,1 @ F,0,0,1,0,0.26458333,0,1 @ F,0,0,1,0,0.26458333,0,1 @ F,0,0,1,0,0.26458333,0,1 @ F,0,0,1,0,0.26458333,0,1 @ F,0,0,1,0,0.26458333,0,1 @ F,0,0,1,0,0.26458333,0,1 @ F,0,0,1,0,0.26458333,0,1 @ F,0,0,1,0,0.26458333,0,1 @ F,0,0,1,0,0.26458333,0,1 @ F,0,0,1,0,0.26458333,0,1 @ F,0,0,1,0,0.26458333,0,1 | F,0,0,1,0,0.26458333,0,1 @ F,0,0,1,0,0.26458333,0,1 @ F,0,0,1,0,0.26458333,0,1 @ F,0,0,1,0,0.26458333,0,1 | F,0,0,1,0,0.26458333,0,1 @ F,0,0,1,0,0.26458333,0,1 @ F,0,0,1,0,0.26458333,0,1 @ F,0,0,1,0,0.26458333,0,1 @ F,0,0,1,0,0.26458333,0,1 @ F,0,0,1,0,0.26458333,0,1 @ F,0,0,1,0,0.26458333,0,1 | F,0,0,1,0,0.26458333,0,1 @ F,0,0,1,0,0.26458333,0,1"
       unit="px"
       method="auto"
       mode="F"
       radius="1"
       chamfer_steps="1"
       flexible="false"
       use_knot_distance="true"
       apply_no_radius="true"
       apply_with_radius="true"
       only_selected="false"
       hide_knots="false" /><inkscape:path-effect
       effect="fillet_chamfer"
       id="path-effect8815"
       is_visible="true"
       lpeversion="1"
       nodesatellites_param="F,0,0,1,0,0,0,1 @ F,0,0,1,0,0.52916667,0,1 @ F,0,0,1,0,0.52916667,0,1 @ F,0,0,1,0,0,0,1"
       unit="px"
       method="auto"
       mode="F"
       radius="2"
       chamfer_steps="1"
       flexible="false"
       use_knot_distance="true"
       apply_no_radius="true"
       apply_with_radius="true"
       only_selected="false"
       hide_knots="false" /><inkscape:path-effect
       effect="fillet_chamfer"
       id="path-effect8498"
       is_visible="true"
       lpeversion="1"
       nodesatellites_param="F,0,0,1,0,0.13229167,0,1 @ F,0,0,1,0,0.13229167,0,1 @ F,0,0,1,0,0.13229167,0,1 @ F,0,0,1,0,0.13229167,0,1 @ F,0,0,1,0,0.13229167,0,1 @ F,0,0,1,0,0.13229167,0,1 @ F,0,0,1,0,0.13229167,0,1 @ F,0,0,1,0,0.13229167,0,1 | F,0,0,1,0,0.13229167,0,1 @ F,0,0,1,0,0.13229167,0,1 @ F,0,0,1,0,0.13229167,0,1 @ F,0,0,1,0,0.13229167,0,1 @ F,0,0,1,0,0.13229167,0,1 @ F,0,0,1,0,0.13229167,0,1 @ F,0,0,1,0,0.13229167,0,1 @ F,0,0,1,0,0.13229167,0,1 | F,0,0,1,0,0.13229167,0,1 @ F,0,0,1,0,0.13229167,0,1 @ F,0,0,1,0,0.13229167,0,1 @ F,0,0,1,0,0.13229167,0,1 | F,0,0,1,0,0.13229167,0,1 @ F,0,0,1,0,0.13229167,0,1 @ F,0,0,1,0,0.13229167,0,1 @ F,0,0,1,0,0.13229167,0,1 | F,0,0,1,0,0.13229167,0,1 @ F,0,0,1,0,0.13229167,0,1 @ F,0,0,1,0,0.13229167,0,1 @ F,0,0,1,0,0.13229167,0,1 | F,0,0,1,0,0.13229167,0,1 @ F,0,0,1,0,0.13229167,0,1 @ F,0,0,1,0,0.13229167,0,1 @ F,0,0,1,0,0.13229167,0,1 | F,0,0,1,0,0.13229167,0,1 @ F,0,0,1,0,0.13229167,0,1 @ F,0,0,1,0,0.13229167,0,1 @ F,0,0,1,0,0.13229167,0,1 | F,0,0,1,0,0.13229167,0,1 @ F,0,0,1,0,0.13229167,0,1 @ F,0,0,1,0,0.13229167,0,1 @ F,0,0,1,0,0.13229167,0,1 | F,0,0,1,0,0.13229167,0,1 @ F,0,0,1,0,0.13229167,0,1 @ F,0,0,1,0,0.13229167,0,1 @ F,0,0,1,0,0.13229167,0,1 | F,0,0,1,0,0.13229167,0,1 @ F,0,0,1,0,0.13229167,0,1 @ F,0,0,1,0,0.13229167,0,1 @ F,0,0,1,0,0.13229167,0,1"
       unit="px"
       method="auto"
       mode="F"
       radius="0.5"
       chamfer_steps="1"
       flexible="false"
       use_knot_distance="true"
       apply_no_radius="true"
       apply_with_radius="true"
       only_selected="false"
       hide_knots="false" /><inkscape:path-effect
       effect="fillet_chamfer"
       id="path-effect8494"
       is_visible="true"
       lpeversion="1"
       nodesatellites_param="F,0,0,1,0,0.13229167,0,1 @ F,0,0,1,0,0.13229167,0,1 @ F,0,0,1,0,0.13229167,0,1 @ F,0,0,1,0,0.13229167,0,1 @ F,0,0,1,0,0.13229167,0,1 @ F,0,0,1,0,0.13229167,0,1 @ F,0,0,1,0,0.13229167,0,1 @ F,0,0,1,0,0.13229167,0,1 | F,0,0,1,0,0.13229167,0,1 @ F,0,0,1,0,0.13229167,0,1 @ F,0,0,1,0,0.13229167,0,1 @ F,0,0,1,0,0.13229167,0,1 @ F,0,0,1,0,0.13229167,0,1 @ F,0,0,1,0,0.13229167,0,1 @ F,0,0,1,0,0.13229167,0,1 @ F,0,0,1,0,0.13229167,0,1 | F,0,0,1,0,0.13229167,0,1 @ F,0,0,1,0,0.13229167,0,1 @ F,0,0,1,0,0.13229167,0,1 @ F,0,0,1,0,0.13229167,0,1 | F,0,0,1,0,0.13229167,0,1 @ F,0,0,1,0,0.13229167,0,1 @ F,0,0,1,0,0.13229167,0,1 @ F,0,0,1,0,0.13229167,0,1 | F,0,0,1,0,0.13229167,0,1 @ F,0,0,1,0,0.13229167,0,1 @ F,0,0,1,0,0.13229167,0,1 @ F,0,0,1,0,0.13229167,0,1 | F,0,0,1,0,0.13229167,0,1 @ F,0,0,1,0,0.13229167,0,1 @ F,0,0,1,0,0.13229167,0,1 @ F,0,0,1,0,0.13229167,0,1 | F,0,0,1,0,0.13229167,0,1 @ F,0,0,1,0,0.13229167,0,1 @ F,0,0,1,0,0.13229167,0,1 @ F,0,0,1,0,0.13229167,0,1 | F,0,0,1,0,0.13229167,0,1 @ F,0,0,1,0,0.13229167,0,1 @ F,0,0,1,0,0.13229167,0,1 @ F,0,0,1,0,0.13229167,0,1 | F,0,0,1,0,0.13229167,0,1 @ F,0,0,1,0,0.13229167,0,1 @ F,0,0,1,0,0.13229167,0,1 @ F,0,0,1,0,0.13229167,0,1 | F,0,0,1,0,0.13229167,0,1 @ F,0,0,1,0,0.13229167,0,1 @ F,0,0,1,0,0.13229167,0,1 @ F,0,0,1,0,0.13229167,0,1"
       unit="px"
       method="auto"
       mode="F"
       radius="0.5"
       chamfer_steps="1"
       flexible="false"
       use_knot_distance="true"
       apply_no_radius="true"
       apply_with_radius="true"
       only_selected="false"
       hide_knots="false" /><inkscape:path-effect
       effect="fillet_chamfer"
       id="path-effect8486"
       is_visible="true"
       lpeversion="1"
       nodesatellites_param="F,0,0,1,0,0.13229167,0,1 @ F,0,0,1,0,0.13229167,0,1 @ F,0,0,1,0,0.13229167,0,1 @ F,0,0,1,0,0.13229167,0,1 @ F,0,0,1,0,0.13229167,0,1 @ F,0,0,1,0,0.13229167,0,1 @ F,0,0,1,0,0.13229167,0,1 @ F,0,0,1,0,0.13229167,0,1 | F,0,0,1,0,0.13229167,0,1 @ F,0,0,1,0,0.13229167,0,1 @ F,0,0,1,0,0.13229167,0,1 @ F,0,0,1,0,0.13229167,0,1 @ F,0,0,1,0,0.13229167,0,1 @ F,0,0,1,0,0.13229167,0,1 @ F,0,0,1,0,0.13229167,0,1 @ F,0,0,1,0,0.13229167,0,1 | F,0,0,1,0,0.13229167,0,1 @ F,0,0,1,0,0.13229167,0,1 @ F,0,0,1,0,0.13229167,0,1 @ F,0,0,1,0,0.13229167,0,1 | F,0,0,1,0,0.13229167,0,1 @ F,0,0,1,0,0.13229167,0,1 @ F,0,0,1,0,0.13229167,0,1 @ F,0,0,1,0,0.13229167,0,1 | F,0,0,1,0,0.13229167,0,1 @ F,0,0,1,0,0.13229167,0,1 @ F,0,0,1,0,0.13229167,0,1 @ F,0,0,1,0,0.13229167,0,1 | F,0,0,1,0,0.13229167,0,1 @ F,0,0,1,0,0.13229167,0,1 @ F,0,0,1,0,0.13229167,0,1 @ F,0,0,1,0,0.13229167,0,1 | F,0,0,1,0,0.13229167,0,1 @ F,0,0,1,0,0.13229167,0,1 @ F,0,0,1,0,0.13229167,0,1 @ F,0,0,1,0,0.13229167,0,1 | F,0,0,1,0,0.13229167,0,1 @ F,0,0,1,0,0.13229167,0,1 @ F,0,0,1,0,0.13229167,0,1 @ F,0,0,1,0,0.13229167,0,1 | F,0,0,1,0,0.13229167,0,1 @ F,0,0,1,0,0.13229167,0,1 @ F,0,0,1,0,0.13229167,0,1 @ F,0,0,1,0,0.13229167,0,1 | F,0,0,1,0,0.13229167,0,1 @ F,0,0,1,0,0.13229167,0,1 @ F,0,0,1,0,0.13229167,0,1 @ F,0,0,1,0,0.13229167,0,1"
       unit="px"
       method="auto"
       mode="F"
       radius="0.5"
       chamfer_steps="1"
       flexible="false"
       use_knot_distance="true"
       apply_no_radius="true"
       apply_with_radius="true"
       only_selected="false"
       hide_knots="false" /><inkscape:path-effect
       effect="fillet_chamfer"
       id="path-effect8480"
       is_visible="true"
       lpeversion="1"
       nodesatellites_param="F,0,0,1,0,0.396875,0,1 @ F,0,0,1,0,0.396875,0,1 @ F,0,0,1,0,0.396875,0,1 @ F,0,0,1,0,0.396875,0,1 @ F,0,0,1,0,0.396875,0,1 @ F,0,0,1,0,0.396875,0,1 @ F,0,0,1,0,0.396875,0,1 @ F,0,0,1,0,0.396875,0,1 | F,0,0,1,0,0.396875,0,1 @ F,0,0,1,0,0.396875,0,1 @ F,0,0,1,0,0.396875,0,1 @ F,0,0,1,0,0.396875,0,1 @ F,0,0,1,0,0.396875,0,1 @ F,0,0,1,0,0.396875,0,1 @ F,0,0,1,0,0.396875,0,1 @ F,0,0,1,0,0.396875,0,1 | F,0,0,1,0,0.396875,0,1 @ F,0,0,1,0,0.396875,0,1 @ F,0,0,1,0,0.396875,0,1 @ F,0,0,1,0,0.396875,0,1 | F,0,0,1,0,0.396875,0,1 @ F,0,0,1,0,0.396875,0,1 @ F,0,0,1,0,0.396875,0,1 @ F,0,0,1,0,0.396875,0,1 | F,0,0,1,0,0.396875,0,1 @ F,0,0,1,0,0.396875,0,1 @ F,0,0,1,0,0.396875,0,1 @ F,0,0,1,0,0.396875,0,1 | F,0,0,1,0,0.396875,0,1 @ F,0,0,1,0,0.396875,0,1 @ F,0,0,1,0,0.396875,0,1 @ F,0,0,1,0,0.396875,0,1 | F,0,0,1,0,0.396875,0,1 @ F,0,0,1,0,0.396875,0,1 @ F,0,0,1,0,0.396875,0,1 @ F,0,0,1,0,0.396875,0,1 | F,0,0,1,0,0.396875,0,1 @ F,0,0,1,0,0.396875,0,1 @ F,0,0,1,0,0.396875,0,1 @ F,0,0,1,0,0.396875,0,1 | F,0,0,1,0,0.396875,0,1 @ F,0,0,1,0,0.396875,0,1 @ F,0,0,1,0,0.396875,0,1 @ F,0,0,1,0,0.396875,0,1 | F,0,0,1,0,0.396875,0,1 @ F,0,0,1,0,0.396875,0,1 @ F,0,0,1,0,0.396875,0,1 @ F,0,0,1,0,0.396875,0,1"
       unit="px"
       method="auto"
       mode="F"
       radius="1.5"
       chamfer_steps="1"
       flexible="false"
       use_knot_distance="true"
       apply_no_radius="true"
       apply_with_radius="true"
       only_selected="false"
       hide_knots="false" /></defs><g
     inkscape:label="Layer 1"
     inkscape:groupmode="layer"
     id="layer1"><g
       aria-label="DMX"
       transform="matrix(0.03929325,0,0,0.03929325,4.754634,7.736024)"
       id="text6368"
       style="font-weight:bold;font-size:53.3333px;font-family:'Arial Rounded MT Bold';-inkscape-font-specification:'Arial Rounded MT Bold,  Bold';text-align:center;text-anchor:middle;white-space:pre;shape-inside:url(#rect6370);display:inline;fill:#ffffff;stroke:#ffffff;stroke-width:3.77953;stroke-linecap:round;stroke-linejoin:round;stroke-dashoffset:7.93701"><path
         d="m -11.624971,-6.1153158 h 10.0781193 q 3.9322893,0 6.7447876,0.7291662 2.8124983,0.7291662 5.1041641,2.7343734 5.963538,5.1041636 5.963538,15.5208242 0,3.437498 -0.598958,6.276038 -0.598958,2.83854 -1.848958,5.130205 -1.249999,2.265624 -3.203123,4.062498 -1.5364571,1.380207 -3.3593727,2.21354 -1.8229155,0.833333 -3.9322893,1.171874 -2.0833321,0.338542 -4.7135388,0.338542 H -11.468721 q -2.109374,0 -3.177081,-0.625 -1.067708,-0.651041 -1.406249,-1.796874 -0.3125,-1.171874 -0.3125,-3.020831 V -1.3757353 q 0,-2.4999985 1.119791,-3.6197895 1.119791,-1.119791 3.619789,-1.119791 z m 2.9947901,6.11978798 V 25.915915 h 5.8593716 q 1.92708214,0 3.02083149,-0.104167 1.09374931,-0.104166 2.26562361,-0.520833 1.1718743,-0.416666 2.0312488,-1.171874 3.880206,-3.281248 3.880206,-11.302076 0,-5.6510388 -1.7187489,-8.4635371 Q 5.0156443,1.5409296 2.5156458,0.78572171 0.01564733,0.00447218 -3.5260172,0.00447218 Z"
         id="path6441" /><path
         d="M 35.953124,26.30654 29.833336,1.9836377 V 28.337789 q 0,2.187498 -0.989583,3.281248 -0.963541,1.093749 -2.578123,1.093749 -1.562499,0 -2.552082,-1.067708 -0.989583,-1.093749 -0.989583,-3.307289 V -1.8705267 q 0,-2.4999985 1.302083,-3.359373 1.302082,-0.8854161 3.515623,-0.8854161 h 2.395832 q 2.161457,0 3.124998,0.3906247 0.989582,0.3906248 1.458332,1.4062492 0.46875,1.0156244 1.067708,3.3072897 l 5.546872,20.9114462 5.546871,-20.9114462 q 0.598958,-2.2916653 1.067708,-3.3072897 0.46875,-1.0156244 1.432291,-1.4062492 0.989583,-0.3906247 3.15104,-0.3906247 h 2.395831 q 2.213541,0 3.515623,0.8854161 1.302083,0.8593745 1.302083,3.359373 V 28.337789 q 0,2.187498 -0.989583,3.281248 -0.963541,1.093749 -2.604165,1.093749 -1.536457,0 -2.52604,-1.093749 -0.989583,-1.09375 -0.989583,-3.281248 V 1.9836377 L 46.317701,26.30654 q -0.598958,2.36979 -0.989583,3.489581 -0.364583,1.093749 -1.380207,2.005207 -1.015624,0.911458 -2.812498,0.911458 -1.354166,0 -2.291666,-0.598958 -0.937499,-0.572916 -1.458332,-1.484374 -0.520833,-0.911458 -0.833333,-2.005207 -0.286458,-1.119791 -0.598958,-2.317707 z"
         id="path6443" /><path
         d="M 66.083313,24.639874 74.624974,12.165923 67.437479,1.0721799 q -1.015625,-1.6145824 -1.536458,-2.760415 -0.494791,-1.1718744 -0.494791,-2.239582 0,-1.0937494 0.963541,-1.9531239 0.989583,-0.8854161 2.395832,-0.8854161 1.614582,0 2.499998,0.9635411 0.911458,0.9374994 2.499999,3.5156229 l 5.729163,9.2708278 6.119788,-9.2708278 q 0.755208,-1.1718743 1.276041,-2.0052072 0.546875,-0.8333328 1.041666,-1.3802075 0.494792,-0.5468746 1.09375,-0.8072912 0.624999,-0.2864581 1.43229,-0.2864581 1.458333,0 2.369791,0.8854161 0.937499,0.8593745 0.937499,2.0572905 0,1.7447906 -2.005207,4.73958047 L 84.234344,12.165923 92.333297,24.639874 q 1.09375,1.640624 1.588541,2.734374 0.494791,1.067707 0.494791,2.031248 0,0.911458 -0.442708,1.666666 -0.442708,0.755208 -1.249999,1.197916 -0.807291,0.442708 -1.822916,0.442708 -1.093749,0 -1.848957,-0.46875 -0.755208,-0.442708 -1.223957,-1.119791 -0.46875,-0.677083 -1.744791,-2.630206 l -6.718746,-10.572911 -7.135412,10.88541 q -0.833333,1.302083 -1.197916,1.822916 -0.338542,0.520833 -0.833333,1.015624 -0.494792,0.494792 -1.171875,0.78125 -0.677082,0.286458 -1.58854,0.286458 -1.406249,0 -2.343749,-0.859374 -0.911458,-0.859375 -0.911458,-2.499999 0,-1.927082 1.901041,-4.713539 z"
         id="path6445" /></g><path
       d="M 2.8847875,11.924838 C 2.7836604,11.900184 2.6885839,11.860563 2.5995579,11.805975 2.4752631,11.729762 2.3048421,11.55934 2.2286326,11.435058 c -0.05459,-0.08902 -0.094213,-0.1841 -0.1188701,-0.285225 -0.034535,-0.14164 -0.030465,-0.380669 -0.030465,-0.526794 V 5.8138266 c 0,-0.1461253 -0.00407,-0.3851425 0.030459,-0.5267699 C 2.1344109,5.1859299 2.174032,5.0908534 2.2286199,5.0018273 2.3048334,4.8775325 2.4752555,4.7071113 2.599537,4.6309019 2.6885619,4.5763119 2.7836374,4.5366886 2.8847635,4.5120321 3.0264032,4.4774976 3.2654321,4.4815675 3.4115574,4.4815675 l 0.00467,0 A 0.26458333,0.26458333 135 0 0 3.6808112,4.2169842 l 0,-0.5385089 c 0,-0.1461253 -0.0014,-0.3833241 0.011516,-0.5288293 C 3.7401638,2.6108592 3.9370242,2.1344841 4.2829087,1.7205208 4.3765782,1.6084149 4.5445167,1.4404766 4.6566132,1.3468136 5.0705749,1.0009252 5.5469486,0.80406099 6.0857346,0.75622105 6.231251,0.74330035 6.4687418,0.74330058 6.614247,0.75621928 7.1530334,0.80405553 7.6294081,1.0009159 8.0433711,1.3468005 c 0.1121058,0.093669 0.280044,0.261608 0.373707,0.3737046 0.3458883,0.4139617 0.5427525,0.8903352 0.5905925,1.4291205 0.012921,0.1455164 0.011518,0.3827244 0.011518,0.5288497 v 0.5385089 a 0.26458333,0.26458333 45 0 0 0.2645833,0.2645833 h 0.00467 c 0.1461253,0 0.3851425,-0.00407 0.5267699,0.030459 0.1011267,0.024654 0.1962034,0.064275 0.2852294,0.1188629 0.124295,0.076213 0.294715,0.2466359 0.370924,0.3709176 0.05459,0.089025 0.09421,0.1841001 0.118869,0.2852257 0.03453,0.1416397 0.03046,0.3806686 0.03046,0.5267939 v 4.8092124 c 0,0.146125 0.0041,0.385142 -0.03046,0.52677 -0.02465,0.101126 -0.06427,0.196202 -0.118862,0.285227 -0.07621,0.124295 -0.246635,0.294717 -0.370916,0.370926 -0.08902,0.05459 -0.1841006,0.09421 -0.2852264,0.11887 -0.1416397,0.03453 -0.3806686,0.03046 -0.5267939,0.03046 H 3.4115574 c -0.1461253,0 -0.3851425,0.0041 -0.5267699,-0.03046 z M 3.4115574,10.887622 H 9.2884447 A 0.26458333,0.26458333 135 0 0 9.553028,10.623039 V 5.8138266 A 0.26458333,0.26458333 45 0 0 9.2884447,5.5492433 H 3.4115574 A 0.26458333,0.26458333 135 0 0 3.1469741,5.8138266 l 0,4.8092124 a 0.26458333,0.26458333 45 0 0 0.2645833,0.264583 z M 5.0130708,4.4815675 H 7.6869312 A 0.26458333,0.26458333 135 0 0 7.9515145,4.2169842 l 0,-0.5385089 c 0,-0.1461253 0.00253,-0.3838725 -0.019393,-0.5282033 C 7.8946423,2.9035584 7.802836,2.6801277 7.656703,2.4799797 7.5706104,2.3620646 7.4018386,2.193294 7.283942,2.1072108 7.0837967,1.9610729 6.8603686,1.8692616 6.6136576,1.8317767 6.4693072,1.8098443 6.2307118,1.8098451 6.086381,1.831771 5.8396669,1.8692504 5.6162359,1.9610564 5.416088,2.1071889 5.2981728,2.1932815 5.1294024,2.3620533 5.0433193,2.4799501 4.8971816,2.6800957 4.8053704,2.9035241 4.7678856,3.1502354 4.7459533,3.2945858 4.7484875,3.53235 4.7484875,3.6784753 v 0.5385089 a 0.26458333,0.26458333 45 0 0 0.2645833,0.2645833 z m -1.8660967,6.1414715 0,-4.8092124 a 0,0 0 0 0 0,0 l 0,4.8092124 z"
       id="path5153"
       style="fill:#ffffff;fill-opacity:1;stroke-width:0.0133459"
       sodipodi:nodetypes="sssssscssssscssssssscccccccssssscccc"
       inkscape:path-effect="#path-effect6314"
       inkscape:original-d="m 3.1469741,11.955297 c -0.2936119,0 -0.5449606,-0.104543 -0.7540461,-0.31363 C 2.1838411,11.432581 2.0792977,11.181233 2.0792977,10.887622 V 5.5492433 c 0,-0.2936107 0.1045434,-0.5449594 0.3136303,-0.7540461 C 2.6020135,4.5861107 2.8533622,4.4815675 3.1469741,4.4815675 H 3.6808112 V 3.413892 c 0,-0.7384756 0.2602459,-1.3679594 0.7807376,-1.8884514 0.5204917,-0.5204918 1.1499757,-0.78073777 1.8884522,-0.78073777 0.7384751,0 1.3679585,0.26024597 1.8884502,0.78073777 0.5204917,0.520492 0.7807376,1.1499758 0.7807376,1.8884514 V 4.4815675 H 9.553028 c 0.2936105,0 0.544959,0.1045432 0.754046,0.3136297 0.209085,0.2090867 0.313628,0.4604354 0.313628,0.7540461 v 5.3383787 c 0,0.293611 -0.104543,0.544959 -0.313628,0.754045 -0.209087,0.209087 -0.4604355,0.31363 -0.754046,0.31363 z m 0,-1.067675 H 9.553028 V 5.5492433 H 3.1469741 Z M 4.7484875,4.4815675 h 3.203027 V 3.413892 c 0,-0.4448649 -0.1557031,-0.823 -0.4671093,-1.1344054 C 7.1730004,1.9680812 6.7948657,1.8123785 6.350001,1.8123785 c -0.444866,0 -0.8230014,0.1557027 -1.1344062,0.4671081 C 4.9041899,2.590892 4.7484875,2.9690271 4.7484875,3.413892 Z M 3.1469741,10.887622 V 5.5492433 Z" /></g></svg>
