<?xml version="1.0" encoding="UTF-8" standalone="no"?>
<svg
   height="24"
   viewBox="0 -960 960 960"
   width="24"
   version="1.1"
   id="svg1"
   sodipodi:docname="Check.svg"
   inkscape:version="1.3.2 (091e20e, 2023-11-25)"
   xmlns:inkscape="http://www.inkscape.org/namespaces/inkscape"
   xmlns:sodipodi="http://sodipodi.sourceforge.net/DTD/sodipodi-0.dtd"
   xmlns="http://www.w3.org/2000/svg"
   xmlns:svg="http://www.w3.org/2000/svg">
  <defs
     id="defs1">
    <inkscape:path-effect
       effect="fillet_chamfer"
       id="path-effect1"
       is_visible="true"
       lpeversion="1"
       nodesatellites_param="F,0,0,1,0,28,0,1 @ F,0,0,1,0,28,0,1 @ F,0,0,1,0,28,0,1 @ F,0,0,1,0,28,0,1 @ F,0,0,1,0,28,0,1 @ F,0,0,1,0,28,0,1"
       radius="28"
       unit="px"
       method="auto"
       mode="F"
       chamfer_steps="1"
       flexible="false"
       use_knot_distance="true"
       apply_no_radius="true"
       apply_with_radius="true"
       only_selected="false"
       hide_knots="false" />
  </defs>
  <sodipodi:namedview
     id="namedview1"
     pagecolor="#ffffff"
     bordercolor="#000000"
     borderopacity="0.25"
     inkscape:showpageshadow="2"
     inkscape:pageopacity="0.0"
     inkscape:pagecheckerboard="0"
     inkscape:deskcolor="#d1d1d1"
     inkscape:zoom="9.8333333"
     inkscape:cx="12"
     inkscape:cy="12"
     inkscape:window-width="1312"
     inkscape:window-height="449"
     inkscape:window-x="0"
     inkscape:window-y="25"
     inkscape:window-maximized="0"
     inkscape:current-layer="svg1" />
  <path
     d="M 362.20101,-259.79899 173.79899,-448.20101 a 28,28 90 0 1 0,-39.59798 l 17.40202,-17.40202 a 28,28 180 0 1 39.59798,0 l 131.40202,131.40202 a 28,28 180 0 0 39.59798,0 l 327.40202,-327.40202 a 28,28 0 0 1 39.59798,0 l 17.40202,17.40202 a 28,28 90 0 1 0,39.59798 l -384.40202,384.40202 a 28,28 0 0 1 -39.59798,0 z"
     id="path1"
     inkscape:path-effect="#path-effect1"
     inkscape:original-d="m 382,-240 -228,-228 57,-57 171,171 367,-367 57,57 z"
     style="fill:#ffffff;fill-opacity:1"
     transform="matrix(1.2846404,0,0,1.2846404,-136.62741,136.76973)" />
</svg>
