<?xml version="1.0" encoding="UTF-8" standalone="no"?>
<svg
   height="24"
   viewBox="0 -960 960 960"
   width="24"
   version="1.1"
   id="svg1"
   sodipodi:docname="Checklist.svg"
   inkscape:version="1.3.2 (091e20ef0f, 2023-11-25, custom)"
   xmlns:inkscape="http://www.inkscape.org/namespaces/inkscape"
   xmlns:sodipodi="http://sodipodi.sourceforge.net/DTD/sodipodi-0.dtd"
   xmlns="http://www.w3.org/2000/svg"
   xmlns:svg="http://www.w3.org/2000/svg">
  <defs
     id="defs1">
    <inkscape:path-effect
       effect="fillet_chamfer"
       id="path-effect1"
       is_visible="true"
       lpeversion="1"
       nodesatellites_param="F,0,0,1,0,30,0,1 @ F,0,0,1,0,30,0,1 @ F,0,0,1,0,30,0,1 @ F,0,0,1,0,30,0,1 @ F,0,0,1,0,30,0,1 @ F,0,0,1,0,30,0,1 | F,0,0,1,0,30,0,1 @ F,0,0,1,0,30,0,1 @ F,0,0,1,0,30,0,1 @ F,0,0,1,0,30,0,1 @ F,0,0,1,0,30,0,1 @ F,0,0,1,0,30,0,1 | F,0,0,1,0,30,0,1 @ F,0,0,1,0,30,0,1 @ F,0,0,1,0,30,0,1 @ F,0,0,1,0,30,0,1 | F,0,0,1,0,30,0,1 @ F,0,0,1,0,30,0,1 @ F,0,0,1,0,30,0,1 @ F,0,0,1,0,30,0,1"
       radius="30"
       unit="px"
       method="auto"
       mode="F"
       chamfer_steps="1"
       flexible="false"
       use_knot_distance="true"
       apply_no_radius="true"
       apply_with_radius="true"
       only_selected="false"
       hide_knots="false" />
  </defs>
  <sodipodi:namedview
     id="namedview1"
     pagecolor="#ffffff"
     bordercolor="#000000"
     borderopacity="0.25"
     inkscape:showpageshadow="2"
     inkscape:pageopacity="0.0"
     inkscape:pagecheckerboard="0"
     inkscape:deskcolor="#d1d1d1"
     inkscape:zoom="33.625"
     inkscape:cx="12"
     inkscape:cy="12"
     inkscape:window-width="1920"
     inkscape:window-height="1011"
     inkscape:window-x="1680"
     inkscape:window-y="32"
     inkscape:window-maximized="1"
     inkscape:current-layer="svg1" />
  <path
     d="m 633.7868,-221.2132 -99.5736,-99.5736 a 30,30 90 0 1 0,-42.4264 l 13.5736,-13.5736 a 30,30 0 0 1 42.4264,0 l 42.5736,42.5736 a 30,30 0 0 0 42.4264,0 l 127.5736,-127.5736 a 29.735688,29.735688 0.25351453 0 1 42.23785,0.18689 l 13.9507,14.19982 a 30.333849,30.333849 90.189994 0 1 -0.14147,42.66028 l -182.66776,183.47962 a 29.933555,29.933555 179.93648 0 1 -42.37932,0.047 z m 0,-320 -99.5736,-99.5736 a 30,30 90 0 1 0,-42.4264 l 13.5736,-13.5736 a 30,30 180 0 1 42.4264,0 l 42.5736,42.5736 a 30,30 180 0 0 42.4264,0 l 127.5736,-127.5736 a 29.735688,29.735688 0.25351453 0 1 42.23785,0.18689 l 13.9507,14.19982 a 30.333849,30.333849 90.189994 0 1 -0.14147,42.66028 l -182.66776,183.47962 a 29.933555,29.933555 179.93648 0 1 -42.37932,0.047 z M 80,-310 v -20 a 30,30 135 0 1 30,-30 h 300 a 30,30 45 0 1 30,30 v 20 a 30,30 135 0 1 -30,30 l -300,0 a 30,30 45 0 1 -30,-30 z m 0,-320 v -20 a 30,30 135 0 1 30,-30 l 300,0 a 30,30 45 0 1 30,30 v 20 a 30,30 135 0 1 -30,30 H 110 a 30,30 45 0 1 -30,-30 z"
     id="path1"
     inkscape:path-effect="#path-effect1"
     inkscape:original-d="M655-200 513-342l56-56 85 85 170-170 56 57-225 226Zm0-320L513-662l56-56 85 85 170-170 56 57-225 226ZM80-280v-80h360v80H80Zm0-320v-80h360v80H80Z"
     style="fill:#ffffff;fill-opacity:1" />
</svg>
