<?xml version="1.0" encoding="UTF-8" standalone="no"?>
<svg
   height="24px"
   viewBox="0 -960 960 960"
   width="24px"
   fill="#e8eaed"
   version="1.1"
   id="svg1"
   sodipodi:docname="CloseLoop.svg"
   inkscape:version="1.3.2 (091e20ef0f, 2023-11-25, custom)"
   xmlns:inkscape="http://www.inkscape.org/namespaces/inkscape"
   xmlns:sodipodi="http://sodipodi.sourceforge.net/DTD/sodipodi-0.dtd"
   xmlns="http://www.w3.org/2000/svg"
   xmlns:svg="http://www.w3.org/2000/svg">
  <defs
     id="defs1" />
  <sodipodi:namedview
     id="namedview1"
     pagecolor="#ffffff"
     bordercolor="#000000"
     borderopacity="0.25"
     inkscape:showpageshadow="2"
     inkscape:pageopacity="0.0"
     inkscape:pagecheckerboard="0"
     inkscape:deskcolor="#d1d1d1"
     inkscape:zoom="32"
     inkscape:cx="6.46875"
     inkscape:cy="12.71875"
     inkscape:window-width="2560"
     inkscape:window-height="1374"
     inkscape:window-x="1920"
     inkscape:window-y="29"
     inkscape:window-maximized="1"
     inkscape:current-layer="svg1" />
  <path
     d="m 367,-240 h -7 c -78,0 -144.16667,-27.16667 -198.5,-81.5 C 107.16667,-375.83333 80,-442 80,-520 80,-598 107.16667,-664.16667 161.5,-718.5 215.83333,-772.83333 282,-800 360,-800 h 240 c 78,0 144.16667,27.16667 198.5,81.5 54.33333,54.33333 81.5,120.5 81.5,198.5 0,78 -28.68088,150.26935 -81.5,198.5 -68.46541,62.51772 -187.81584,81.88855 -265.81584,81.88855 v -80 c 55.33333,0 154.77162,-10.83197 208.81584,-58.88855 38.14071,-33.91505 58.5,-86.16667 58.5,-141.5 0,-55.33333 -19.5,-102.5 -58.5,-141.5 -39,-39 -86.16667,-58.5 -141.5,-58.5 H 360 c -55.33333,0 -102.5,19.5 -141.5,58.5 -39,39 -58.5,86.16667 -58.5,141.5 0,55.33333 19.5,102.83333 58.5,142.5 39,39.66667 86.16667,61.5 141.5,65.5 h 16 l 144.05731,1.31633 L 520,-280 l -0.25678,38.22755 z"
     id="path1"
     sodipodi:nodetypes="cssssssssaccassssssscccccc"
     style="stroke:none;stroke-opacity:1" />
  <path
     id="use2"
     style="display:inline;fill:#e8eaed;fill-opacity:1;stroke:none;stroke-width:208.025;stroke-linecap:round"
     d="m 638.82302,-176 -56,56 -160,-160 160,-160 57,56 -64,64 -39.14797,39.49807 L 566.82302,-248 Z m -317.64604,-208 56,-56 160,160 -160,160 -57,-56 64,-64 39.14797,-39.49807 L 393.17698,-312 Z" />
</svg>
