<?xml version="1.0" encoding="UTF-8" standalone="no"?>
<svg
   height="24px"
   viewBox="0 -960 960 960"
   width="24px"
   fill="#e8eaed"
   version="1.1"
   id="svg1"
   sodipodi:docname="Component.svg"
   inkscape:version="1.4 (e7c3feb100, 2024-10-09)"
   xmlns:inkscape="http://www.inkscape.org/namespaces/inkscape"
   xmlns:sodipodi="http://sodipodi.sourceforge.net/DTD/sodipodi-0.dtd"
   xmlns="http://www.w3.org/2000/svg"
   xmlns:svg="http://www.w3.org/2000/svg">
  <defs
     id="defs1" />
  <sodipodi:namedview
     id="namedview1"
     pagecolor="#ffffff"
     bordercolor="#000000"
     borderopacity="0.25"
     inkscape:showpageshadow="2"
     inkscape:pageopacity="0.0"
     inkscape:pagecheckerboard="0"
     inkscape:deskcolor="#d1d1d1"
     inkscape:zoom="49.458333"
     inkscape:cx="11.98989"
     inkscape:cy="12"
     inkscape:window-width="2560"
     inkscape:window-height="1374"
     inkscape:window-x="1920"
     inkscape:window-y="29"
     inkscape:window-maximized="1"
     inkscape:current-layer="svg1" />
  <path
     d="M 266.66667,-746.66667 480,-960 693.33333,-746.66667 480,-533.33333 Z M -1.9999999e-6,-480 213.33333,-693.33333 426.66667,-480 213.33333,-266.66667 Z M 533.33333,-480 746.66667,-693.33333 960,-480 746.66667,-266.66667 Z M 266.66667,-213.33333 480,-426.66667 693.33333,-213.33333 480,1.9999999e-6 Z M 373.33334,-746.66667 480,-640 586.66666,-746.66667 480,-853.33334 Z M 640,-480 746.66667,-373.33334 853.33334,-480 746.66667,-586.66666 Z M 373.33334,-213.33333 480,-106.66667 586.66666,-213.33333 480,-320 Z M 106.66667,-480 213.33333,-373.33334 320,-480 213.33333,-586.66666 Z M 640,-480 Z M 480,-320 Z M 320,-480 Z m 160,-160 z"
     id="path1"
     style="stroke-width:0.942809" />
</svg>
