<?xml version="1.0" encoding="UTF-8" standalone="no"?>
<!-- Created with Inkscape (http://www.inkscape.org/) -->

<svg
   width="24"
   height="24"
   viewBox="0 0 6.3500001 6.3500001"
   version="1.1"
   id="svg1"
   sodipodi:docname="Corner.svg"
   inkscape:version="1.4 (e7c3feb100, 2024-10-09)"
   xmlns:inkscape="http://www.inkscape.org/namespaces/inkscape"
   xmlns:sodipodi="http://sodipodi.sourceforge.net/DTD/sodipodi-0.dtd"
   xmlns="http://www.w3.org/2000/svg"
   xmlns:svg="http://www.w3.org/2000/svg">
  <sodipodi:namedview
     id="namedview1"
     pagecolor="#ffffff"
     bordercolor="#000000"
     borderopacity="0.25"
     inkscape:showpageshadow="2"
     inkscape:pageopacity="0.0"
     inkscape:pagecheckerboard="0"
     inkscape:deskcolor="#d1d1d1"
     inkscape:document-units="mm"
     showgrid="true"
     inkscape:zoom="24.458333"
     inkscape:cx="6.8074958"
     inkscape:cy="13.696763"
     inkscape:window-width="2560"
     inkscape:window-height="1374"
     inkscape:window-x="1920"
     inkscape:window-y="29"
     inkscape:window-maximized="1"
     inkscape:current-layer="layer1">
    <inkscape:grid
       id="grid1"
       units="mm"
       originx="0"
       originy="0"
       spacingx="0.5"
       spacingy="0.5"
       empcolor="#0099e5"
       empopacity="0.30196078"
       color="#0099e5"
       opacity="0.14901961"
       empspacing="1"
       enabled="true"
       visible="true" />
  </sodipodi:namedview>
  <defs
     id="defs1">
    <inkscape:path-effect
       effect="fillet_chamfer"
       id="path-effect1"
       is_visible="true"
       lpeversion="1"
       nodesatellites_param="F,0,0,1,0,0.13229167,0,1 @ F,0,0,1,0,0.13229167,0,1 @ F,0,0,1,0,0.13229167,0,1 @ F,0,0,1,0,0.13229167,0,1 | F,0,0,1,0,0.13229167,0,1 @ F,0,0,1,0,0.13229167,0,1 @ F,0,0,1,0,0.13229167,0,1 @ F,0,0,1,0,0.13229167,0,1 | F,0,0,1,0,0.13229167,0,1 @ F,0,0,1,0,0.13229167,0,1 @ F,0,0,1,0,0.13229167,0,1 @ F,0,0,1,0,0.13229167,0,1"
       radius="0.5"
       unit="px"
       method="auto"
       mode="F"
       chamfer_steps="1"
       flexible="false"
       use_knot_distance="true"
       apply_no_radius="true"
       apply_with_radius="true"
       only_selected="false"
       hide_knots="false" />
  </defs>
  <g
     inkscape:label="Layer 1"
     inkscape:groupmode="layer"
     id="layer1">
    <path
       id="path1-5"
       style="fill:#ffffff;fill-opacity:1;stroke:none;stroke-width:1"
       d="M 1.6322917,0.99999993 5.3677082,1 A 0.13229167,0.13229167 135 0 0 5.4999999,0.86770833 V 0.6322917 A 0.13229167,0.13229167 45.000001 0 0 5.3677082,0.50000003 l -3.7354165,-1e-7 A 0.13229167,0.13229167 135 0 0 1.5,0.6322916 v 0.23541666 a 0.13229167,0.13229167 45.000001 0 0 0.1322917,0.13229167 z m -1.13229171,-0.3677082 0,0.23541658 a 0.13229166,0.13229166 45.000001 0 0 0.13229166,0.13229167 l 0.23541667,0 A 0.13229167,0.13229167 135 0 0 0.99999999,0.86770831 V 0.63229173 A 0.13229167,0.13229167 45 0 0 0.86770832,0.50000006 H 0.63229167 A 0.13229168,0.13229168 135 0 0 0.49999999,0.63229173 Z m 0,0.99999997 -2e-8,3.7354164 A 0.13229167,0.13229167 45 0 0 0.63229164,5.4999998 H 0.8677083 A 0.13229167,0.13229167 135 0 0 0.99999997,5.3677081 l 1e-8,-3.7354164 A 0.13229167,0.13229167 45 0 0 0.86770831,1.5 H 0.63229166 A 0.13229167,0.13229167 135 0 0 0.49999999,1.6322917 Z"
       inkscape:path-effect="#path-effect1"
       inkscape:original-d="M 1.5,0.99999993 5.4999999,1 V 0.50000003 L 1.5,0.49999993 Z m -1,-0.49999987 -2e-8,0.49999992 H 0.99999999 V 0.50000006 Z M 0.49999999,1.5 l -2e-8,3.9999998 h 0.5 L 0.99999998,1.5 Z" />
  </g>
</svg>
