<?xml version="1.0" encoding="UTF-8" standalone="no"?>
<svg
   height="24"
   viewBox="0 -960 960 960"
   width="24"
   version="1.1"
   id="svg1"
   sodipodi:docname="Grid.svg"
   inkscape:version="1.3.2 (091e20ef0f, 2023-11-25, custom)"
   xmlns:inkscape="http://www.inkscape.org/namespaces/inkscape"
   xmlns:sodipodi="http://sodipodi.sourceforge.net/DTD/sodipodi-0.dtd"
   xmlns="http://www.w3.org/2000/svg"
   xmlns:svg="http://www.w3.org/2000/svg">
  <defs
     id="defs1" />
  <sodipodi:namedview
     id="namedview1"
     pagecolor="#ffffff"
     bordercolor="#000000"
     borderopacity="0.25"
     inkscape:showpageshadow="2"
     inkscape:pageopacity="0.0"
     inkscape:pagecheckerboard="0"
     inkscape:deskcolor="#d1d1d1"
     inkscape:zoom="15.208334"
     inkscape:cx="6.7068492"
     inkscape:cy="17.589041"
     inkscape:window-width="1920"
     inkscape:window-height="1043"
     inkscape:window-x="3600"
     inkscape:window-y="51"
     inkscape:window-maximized="1"
     inkscape:current-layer="svg1" />
  <path
     d="m 167.52354,-63.364728 q -42.96551,0 -73.56216,-30.596652 -30.596652,-30.59665 -30.596652,-73.56216 0,-42.96552 30.596652,-73.56217 30.59665,-30.59665 73.56216,-30.59665 42.96552,0 73.56217,30.59665 30.59665,30.59665 30.59665,73.56217 0,42.96551 -30.59665,73.56216 -30.59665,30.596652 -73.56217,30.596652 z m 312.47646,0 q -42.96551,0 -73.56217,-30.596652 -30.59665,-30.59665 -30.59665,-73.56216 0,-42.96552 30.59665,-73.56217 30.59666,-30.59665 73.56217,-30.59665 42.96551,0 73.56217,30.59665 30.59665,30.59665 30.59665,73.56217 0,42.96551 -30.59665,73.56216 Q 522.96551,-63.364728 480,-63.364728 Z m 312.47646,0 q -42.96552,0 -73.56217,-30.596652 -30.59665,-30.59665 -30.59665,-73.56216 0,-42.96552 30.59665,-73.56217 30.59665,-30.59665 73.56217,-30.59665 42.96551,0 73.56216,30.59665 30.59665,30.59665 30.59665,73.56217 0,42.96551 -30.59665,73.56216 -30.59665,30.596652 -73.56216,30.596652 z M 167.52354,-375.84118 q -42.96551,0 -73.56216,-30.59665 Q 63.364728,-437.03449 63.364728,-480 q 0,-42.96551 30.596652,-73.56217 30.59665,-30.59665 73.56216,-30.59665 42.96552,0 73.56217,30.59665 30.59665,30.59666 30.59665,73.56217 0,42.96551 -30.59665,73.56217 -30.59665,30.59665 -73.56217,30.59665 z m 312.47646,0 q -42.96551,0 -73.56217,-30.59665 -30.59665,-30.59666 -30.59665,-73.56217 0,-42.96551 30.59665,-73.56217 30.59666,-30.59665 73.56217,-30.59665 42.96551,0 73.56217,30.59665 30.59665,30.59666 30.59665,73.56217 0,42.96551 -30.59665,73.56217 -30.59666,30.59665 -73.56217,30.59665 z m 312.47646,0 q -42.96552,0 -73.56217,-30.59665 -30.59665,-30.59666 -30.59665,-73.56217 0,-42.96551 30.59665,-73.56217 30.59665,-30.59665 73.56217,-30.59665 42.96551,0 73.56216,30.59665 30.59665,30.59666 30.59665,73.56217 0,42.96551 -30.59665,73.56217 -30.59665,30.59665 -73.56216,30.59665 z M 167.52354,-688.31764 q -42.96551,0 -73.56216,-30.59665 -30.596652,-30.59665 -30.596652,-73.56217 0,-42.96551 30.596652,-73.56216 30.59665,-30.59665 73.56216,-30.59665 42.96552,0 73.56217,30.59665 30.59665,30.59665 30.59665,73.56216 0,42.96552 -30.59665,73.56217 -30.59665,30.59665 -73.56217,30.59665 z m 312.47646,0 q -42.96551,0 -73.56217,-30.59665 -30.59665,-30.59665 -30.59665,-73.56217 0,-42.96551 30.59665,-73.56216 30.59666,-30.59665 73.56217,-30.59665 42.96551,0 73.56217,30.59665 30.59665,30.59665 30.59665,73.56216 0,42.96552 -30.59665,73.56217 -30.59666,30.59665 -73.56217,30.59665 z m 312.47646,0 q -42.96552,0 -73.56217,-30.59665 -30.59665,-30.59665 -30.59665,-73.56217 0,-42.96551 30.59665,-73.56216 30.59665,-30.59665 73.56217,-30.59665 42.96551,0 73.56216,30.59665 30.59665,30.59665 30.59665,73.56216 0,42.96552 -30.59665,73.56217 -30.59665,30.59665 -73.56216,30.59665 z"
     id="path1"
     style="fill:#ffffff;fill-opacity:1;stroke-width:1.30199" />
</svg>
