<?xml version="1.0" encoding="UTF-8" standalone="no"?>
<svg
   height="24"
   viewBox="0 -960 960 960"
   width="24"
   version="1.1"
   id="svg1"
   sodipodi:docname="dropdown.svg"
   inkscape:version="1.3.2 (091e20ef0f, 2023-11-25, custom)"
   xmlns:inkscape="http://www.inkscape.org/namespaces/inkscape"
   xmlns:sodipodi="http://sodipodi.sourceforge.net/DTD/sodipodi-0.dtd"
   xmlns="http://www.w3.org/2000/svg"
   xmlns:svg="http://www.w3.org/2000/svg">
  <defs
     id="defs1">
    <inkscape:path-effect
       effect="fillet_chamfer"
       id="path-effect1"
       is_visible="true"
       lpeversion="1"
       nodesatellites_param="F,0,0,1,0,34,0,1 @ F,0,0,1,0,34,0,1 @ F,0,0,1,0,34,0,1"
       radius="34"
       unit="px"
       method="auto"
       mode="F"
       chamfer_steps="1"
       flexible="false"
       use_knot_distance="true"
       apply_no_radius="true"
       apply_with_radius="true"
       only_selected="false"
       hide_knots="false" />
  </defs>
  <sodipodi:namedview
     id="namedview1"
     pagecolor="#ffffff"
     bordercolor="#000000"
     borderopacity="0.25"
     inkscape:showpageshadow="2"
     inkscape:pageopacity="0.0"
     inkscape:pagecheckerboard="0"
     inkscape:deskcolor="#d1d1d1"
     inkscape:zoom="15.208333"
     inkscape:cx="2.8931507"
     inkscape:cy="14.827397"
     inkscape:window-width="1920"
     inkscape:window-height="1043"
     inkscape:window-x="3600"
     inkscape:window-y="51"
     inkscape:window-maximized="1"
     inkscape:current-layer="svg1" />
  <path
     d="m 480,-80 c -55.33333,0 -107.33333,-10.5 -156,-31.5 -48.66667,-21 -91,-49.5 -127,-85.5 -36,-36 -64.5,-78.33333 -85.5,-127 -21,-48.66667 -31.5,-100.66667 -31.5,-156 0,-55.33333 10.5,-107.33333 31.5,-156 21,-48.66667 49.5,-91 85.5,-127 36,-36 78.33333,-64.5 127,-85.5 48.66667,-21 100.66667,-31.5 156,-31.5 55.33333,0 107.33333,10.5 156,31.5 48.66667,21 91,49.5 127,85.5 36,36 64.5,78.33333 85.5,127 21,48.66667 31.5,100.66667 31.5,156 0,55.33333 -10.5,107.33333 -31.5,156 -21,48.66667 -49.5,91 -85.5,127 -36,36 -78.33333,64.5 -127,85.5 -48.66667,21 -100.66667,31.5 -156,31.5 z m 0,-80 c 89.33333,0 165,-31 227,-93 62,-62 93,-137.66667 93,-227 0,-89.33333 -31,-165 -93,-227 -62,-62 -137.66667,-93 -227,-93 -89.33333,0 -165,31 -227,93 -62,62 -93,137.66667 -93,227 0,89.33333 31,165 93,227 62,62 137.66667,93 227,93 z"
     id="path1"
     sodipodi:nodetypes="ssssssssssssssssssssssssss"
     style="fill:#ffffff;fill-opacity:1" />
  <path
     d="M 504.04163,-384.04163 615.95837,-495.95837 A 14.083261,14.083261 67.5 0 0 606,-520 H 354 a 14.083261,14.083261 112.5 0 0 -9.95837,24.04163 l 111.91674,111.91674 a 34,34 180 0 0 48.08326,0 z"
     id="path1-5"
     style="display:inline;fill:#ffffff;fill-opacity:1"
     inkscape:path-effect="#path-effect1"
     inkscape:original-d="M 480,-360 640,-520 H 320 Z" />
</svg>
