<?xml version="1.0" encoding="UTF-8" standalone="no"?>
<!-- Created with Inkscape (http://www.inkscape.org/) -->

<svg
   width="48"
   height="48"
   viewBox="0 0 12.7 12.7"
   version="1.1"
   id="svg5"
   inkscape:version="1.2.1 (9c6d41e4, 2022-07-14)"
   sodipodi:docname="Effect.svg"
   xml:space="preserve"
   xmlns:inkscape="http://www.inkscape.org/namespaces/inkscape"
   xmlns:sodipodi="http://sodipodi.sourceforge.net/DTD/sodipodi-0.dtd"
   xmlns="http://www.w3.org/2000/svg"
   xmlns:svg="http://www.w3.org/2000/svg"><sodipodi:namedview
     id="namedview7"
     pagecolor="#000000"
     bordercolor="#000000"
     borderopacity="0.25"
     inkscape:showpageshadow="2"
     inkscape:pageopacity="0"
     inkscape:pagecheckerboard="0"
     inkscape:deskcolor="#d1d1d1"
     inkscape:document-units="mm"
     showgrid="true"
     inkscape:zoom="6.2285779"
     inkscape:cx="26.410523"
     inkscape:cy="30.26373"
     inkscape:window-width="1280"
     inkscape:window-height="747"
     inkscape:window-x="0"
     inkscape:window-y="25"
     inkscape:window-maximized="1"
     inkscape:current-layer="layer1"><inkscape:grid
       type="xygrid"
       id="grid182"
       originx="6.35"
       originy="6.3500008" /></sodipodi:namedview><defs
     id="defs2"><inkscape:path-effect
       effect="fillet_chamfer"
       id="path-effect8815"
       is_visible="true"
       lpeversion="1"
       nodesatellites_param="F,0,0,1,0,0,0,1 @ F,0,0,1,0,0.52916667,0,1 @ F,0,0,1,0,0.52916667,0,1 @ F,0,0,1,0,0,0,1"
       unit="px"
       method="auto"
       mode="F"
       radius="2"
       chamfer_steps="1"
       flexible="false"
       use_knot_distance="true"
       apply_no_radius="true"
       apply_with_radius="true"
       only_selected="false"
       hide_knots="false" /><inkscape:path-effect
       effect="fillet_chamfer"
       id="path-effect8498"
       is_visible="true"
       lpeversion="1"
       nodesatellites_param="F,0,0,1,0,0.13229167,0,1 @ F,0,0,1,0,0.13229167,0,1 @ F,0,0,1,0,0.13229167,0,1 @ F,0,0,1,0,0.13229167,0,1 @ F,0,0,1,0,0.13229167,0,1 @ F,0,0,1,0,0.13229167,0,1 @ F,0,0,1,0,0.13229167,0,1 @ F,0,0,1,0,0.13229167,0,1 | F,0,0,1,0,0.13229167,0,1 @ F,0,0,1,0,0.13229167,0,1 @ F,0,0,1,0,0.13229167,0,1 @ F,0,0,1,0,0.13229167,0,1 @ F,0,0,1,0,0.13229167,0,1 @ F,0,0,1,0,0.13229167,0,1 @ F,0,0,1,0,0.13229167,0,1 @ F,0,0,1,0,0.13229167,0,1 | F,0,0,1,0,0.13229167,0,1 @ F,0,0,1,0,0.13229167,0,1 @ F,0,0,1,0,0.13229167,0,1 @ F,0,0,1,0,0.13229167,0,1 | F,0,0,1,0,0.13229167,0,1 @ F,0,0,1,0,0.13229167,0,1 @ F,0,0,1,0,0.13229167,0,1 @ F,0,0,1,0,0.13229167,0,1 | F,0,0,1,0,0.13229167,0,1 @ F,0,0,1,0,0.13229167,0,1 @ F,0,0,1,0,0.13229167,0,1 @ F,0,0,1,0,0.13229167,0,1 | F,0,0,1,0,0.13229167,0,1 @ F,0,0,1,0,0.13229167,0,1 @ F,0,0,1,0,0.13229167,0,1 @ F,0,0,1,0,0.13229167,0,1 | F,0,0,1,0,0.13229167,0,1 @ F,0,0,1,0,0.13229167,0,1 @ F,0,0,1,0,0.13229167,0,1 @ F,0,0,1,0,0.13229167,0,1 | F,0,0,1,0,0.13229167,0,1 @ F,0,0,1,0,0.13229167,0,1 @ F,0,0,1,0,0.13229167,0,1 @ F,0,0,1,0,0.13229167,0,1 | F,0,0,1,0,0.13229167,0,1 @ F,0,0,1,0,0.13229167,0,1 @ F,0,0,1,0,0.13229167,0,1 @ F,0,0,1,0,0.13229167,0,1 | F,0,0,1,0,0.13229167,0,1 @ F,0,0,1,0,0.13229167,0,1 @ F,0,0,1,0,0.13229167,0,1 @ F,0,0,1,0,0.13229167,0,1"
       unit="px"
       method="auto"
       mode="F"
       radius="0.5"
       chamfer_steps="1"
       flexible="false"
       use_knot_distance="true"
       apply_no_radius="true"
       apply_with_radius="true"
       only_selected="false"
       hide_knots="false" /><inkscape:path-effect
       effect="fillet_chamfer"
       id="path-effect8494"
       is_visible="true"
       lpeversion="1"
       nodesatellites_param="F,0,0,1,0,0.13229167,0,1 @ F,0,0,1,0,0.13229167,0,1 @ F,0,0,1,0,0.13229167,0,1 @ F,0,0,1,0,0.13229167,0,1 @ F,0,0,1,0,0.13229167,0,1 @ F,0,0,1,0,0.13229167,0,1 @ F,0,0,1,0,0.13229167,0,1 @ F,0,0,1,0,0.13229167,0,1 | F,0,0,1,0,0.13229167,0,1 @ F,0,0,1,0,0.13229167,0,1 @ F,0,0,1,0,0.13229167,0,1 @ F,0,0,1,0,0.13229167,0,1 @ F,0,0,1,0,0.13229167,0,1 @ F,0,0,1,0,0.13229167,0,1 @ F,0,0,1,0,0.13229167,0,1 @ F,0,0,1,0,0.13229167,0,1 | F,0,0,1,0,0.13229167,0,1 @ F,0,0,1,0,0.13229167,0,1 @ F,0,0,1,0,0.13229167,0,1 @ F,0,0,1,0,0.13229167,0,1 | F,0,0,1,0,0.13229167,0,1 @ F,0,0,1,0,0.13229167,0,1 @ F,0,0,1,0,0.13229167,0,1 @ F,0,0,1,0,0.13229167,0,1 | F,0,0,1,0,0.13229167,0,1 @ F,0,0,1,0,0.13229167,0,1 @ F,0,0,1,0,0.13229167,0,1 @ F,0,0,1,0,0.13229167,0,1 | F,0,0,1,0,0.13229167,0,1 @ F,0,0,1,0,0.13229167,0,1 @ F,0,0,1,0,0.13229167,0,1 @ F,0,0,1,0,0.13229167,0,1 | F,0,0,1,0,0.13229167,0,1 @ F,0,0,1,0,0.13229167,0,1 @ F,0,0,1,0,0.13229167,0,1 @ F,0,0,1,0,0.13229167,0,1 | F,0,0,1,0,0.13229167,0,1 @ F,0,0,1,0,0.13229167,0,1 @ F,0,0,1,0,0.13229167,0,1 @ F,0,0,1,0,0.13229167,0,1 | F,0,0,1,0,0.13229167,0,1 @ F,0,0,1,0,0.13229167,0,1 @ F,0,0,1,0,0.13229167,0,1 @ F,0,0,1,0,0.13229167,0,1 | F,0,0,1,0,0.13229167,0,1 @ F,0,0,1,0,0.13229167,0,1 @ F,0,0,1,0,0.13229167,0,1 @ F,0,0,1,0,0.13229167,0,1"
       unit="px"
       method="auto"
       mode="F"
       radius="0.5"
       chamfer_steps="1"
       flexible="false"
       use_knot_distance="true"
       apply_no_radius="true"
       apply_with_radius="true"
       only_selected="false"
       hide_knots="false" /><inkscape:path-effect
       effect="fillet_chamfer"
       id="path-effect8486"
       is_visible="true"
       lpeversion="1"
       nodesatellites_param="F,0,0,1,0,0.13229167,0,1 @ F,0,0,1,0,0.13229167,0,1 @ F,0,0,1,0,0.13229167,0,1 @ F,0,0,1,0,0.13229167,0,1 @ F,0,0,1,0,0.13229167,0,1 @ F,0,0,1,0,0.13229167,0,1 @ F,0,0,1,0,0.13229167,0,1 @ F,0,0,1,0,0.13229167,0,1 | F,0,0,1,0,0.13229167,0,1 @ F,0,0,1,0,0.13229167,0,1 @ F,0,0,1,0,0.13229167,0,1 @ F,0,0,1,0,0.13229167,0,1 @ F,0,0,1,0,0.13229167,0,1 @ F,0,0,1,0,0.13229167,0,1 @ F,0,0,1,0,0.13229167,0,1 @ F,0,0,1,0,0.13229167,0,1 | F,0,0,1,0,0.13229167,0,1 @ F,0,0,1,0,0.13229167,0,1 @ F,0,0,1,0,0.13229167,0,1 @ F,0,0,1,0,0.13229167,0,1 | F,0,0,1,0,0.13229167,0,1 @ F,0,0,1,0,0.13229167,0,1 @ F,0,0,1,0,0.13229167,0,1 @ F,0,0,1,0,0.13229167,0,1 | F,0,0,1,0,0.13229167,0,1 @ F,0,0,1,0,0.13229167,0,1 @ F,0,0,1,0,0.13229167,0,1 @ F,0,0,1,0,0.13229167,0,1 | F,0,0,1,0,0.13229167,0,1 @ F,0,0,1,0,0.13229167,0,1 @ F,0,0,1,0,0.13229167,0,1 @ F,0,0,1,0,0.13229167,0,1 | F,0,0,1,0,0.13229167,0,1 @ F,0,0,1,0,0.13229167,0,1 @ F,0,0,1,0,0.13229167,0,1 @ F,0,0,1,0,0.13229167,0,1 | F,0,0,1,0,0.13229167,0,1 @ F,0,0,1,0,0.13229167,0,1 @ F,0,0,1,0,0.13229167,0,1 @ F,0,0,1,0,0.13229167,0,1 | F,0,0,1,0,0.13229167,0,1 @ F,0,0,1,0,0.13229167,0,1 @ F,0,0,1,0,0.13229167,0,1 @ F,0,0,1,0,0.13229167,0,1 | F,0,0,1,0,0.13229167,0,1 @ F,0,0,1,0,0.13229167,0,1 @ F,0,0,1,0,0.13229167,0,1 @ F,0,0,1,0,0.13229167,0,1"
       unit="px"
       method="auto"
       mode="F"
       radius="0.5"
       chamfer_steps="1"
       flexible="false"
       use_knot_distance="true"
       apply_no_radius="true"
       apply_with_radius="true"
       only_selected="false"
       hide_knots="false" /><inkscape:path-effect
       effect="fillet_chamfer"
       id="path-effect8480"
       is_visible="true"
       lpeversion="1"
       nodesatellites_param="F,0,0,1,0,0.396875,0,1 @ F,0,0,1,0,0.396875,0,1 @ F,0,0,1,0,0.396875,0,1 @ F,0,0,1,0,0.396875,0,1 @ F,0,0,1,0,0.396875,0,1 @ F,0,0,1,0,0.396875,0,1 @ F,0,0,1,0,0.396875,0,1 @ F,0,0,1,0,0.396875,0,1 | F,0,0,1,0,0.396875,0,1 @ F,0,0,1,0,0.396875,0,1 @ F,0,0,1,0,0.396875,0,1 @ F,0,0,1,0,0.396875,0,1 @ F,0,0,1,0,0.396875,0,1 @ F,0,0,1,0,0.396875,0,1 @ F,0,0,1,0,0.396875,0,1 @ F,0,0,1,0,0.396875,0,1 | F,0,0,1,0,0.396875,0,1 @ F,0,0,1,0,0.396875,0,1 @ F,0,0,1,0,0.396875,0,1 @ F,0,0,1,0,0.396875,0,1 | F,0,0,1,0,0.396875,0,1 @ F,0,0,1,0,0.396875,0,1 @ F,0,0,1,0,0.396875,0,1 @ F,0,0,1,0,0.396875,0,1 | F,0,0,1,0,0.396875,0,1 @ F,0,0,1,0,0.396875,0,1 @ F,0,0,1,0,0.396875,0,1 @ F,0,0,1,0,0.396875,0,1 | F,0,0,1,0,0.396875,0,1 @ F,0,0,1,0,0.396875,0,1 @ F,0,0,1,0,0.396875,0,1 @ F,0,0,1,0,0.396875,0,1 | F,0,0,1,0,0.396875,0,1 @ F,0,0,1,0,0.396875,0,1 @ F,0,0,1,0,0.396875,0,1 @ F,0,0,1,0,0.396875,0,1 | F,0,0,1,0,0.396875,0,1 @ F,0,0,1,0,0.396875,0,1 @ F,0,0,1,0,0.396875,0,1 @ F,0,0,1,0,0.396875,0,1 | F,0,0,1,0,0.396875,0,1 @ F,0,0,1,0,0.396875,0,1 @ F,0,0,1,0,0.396875,0,1 @ F,0,0,1,0,0.396875,0,1 | F,0,0,1,0,0.396875,0,1 @ F,0,0,1,0,0.396875,0,1 @ F,0,0,1,0,0.396875,0,1 @ F,0,0,1,0,0.396875,0,1"
       unit="px"
       method="auto"
       mode="F"
       radius="1.5"
       chamfer_steps="1"
       flexible="false"
       use_knot_distance="true"
       apply_no_radius="true"
       apply_with_radius="true"
       only_selected="false"
       hide_knots="false" /></defs><g
     inkscape:label="Layer 1"
     inkscape:groupmode="layer"
     id="layer1"><path
       d="m 1.6101578,7.7390608 q -0.1602582,0 -0.2535238,-0.1058333 -0.093266,-0.1058333 -0.093266,-0.2513542 0,-0.1455208 0.094205,-0.2513541 0.094218,-0.1058334 0.2506931,-0.1058334 0.1564878,0 0.256368,0.1058334 0.09988,0.1058333 0.09988,0.2513541 0,0.1455209 -0.097049,0.2513542 -0.097036,0.1058333 -0.2573073,0.1058333 z m 0,-2.06375 q -0.1602582,0 -0.2535238,-0.1058333 -0.093266,-0.1058333 -0.093266,-0.2513542 0,-0.1455208 0.094205,-0.2513541 0.094218,-0.1058334 0.2506931,-0.1058334 0.1564878,0 0.256368,0.1058334 0.09988,0.1058333 0.09988,0.2513541 0,0.1455209 -0.097049,0.2513542 -0.097036,0.1058333 -0.2573073,0.1058333 z M 3.176372,10.093853 q -0.2514203,0 -0.4075244,-0.1572688 Q 2.6127434,9.779329 2.6127434,9.5172196 q 0,-0.2620963 0.1565275,-0.4182004 0.1565275,-0.1561042 0.4109376,-0.1561042 0.2448057,0 0.4075245,0.1572683 0.1627187,0.1572551 0.1627187,0.4193646 0,0.2620963 -0.1613297,0.4182004 -0.1613164,0.1561047 -0.41275,0.1561047 z m 0,-2.1431255 q -0.2514203,0 -0.4075244,-0.1572683 -0.1561042,-0.1572551 -0.1561042,-0.41275 0,-0.2554817 0.1565275,-0.4115859 0.1565275,-0.1561041 0.4109376,-0.1561041 0.2448057,0 0.4075245,0.1572683 0.1627187,0.1572551 0.1627187,0.41275 0,0.2554817 -0.1613297,0.4115858 -0.1613164,0.1561042 -0.41275,0.1561042 z m 0,-2.0505208 q -0.2514203,0 -0.4075244,-0.1664362 -0.1561042,-0.1664229 -0.1561042,-0.4193646 0,-0.2529284 0.1565275,-0.4090326 0.1565275,-0.1561041 0.4109376,-0.1561041 0.2448057,0 0.4075245,0.1572683 0.1627187,0.1572551 0.1627187,0.4101968 0,0.2529284 -0.1613297,0.4182004 -0.1613164,0.165272 -0.41275,0.165272 z m 0,-2.143125 q -0.2514203,0 -0.4075244,-0.1572684 -0.1561042,-0.1572551 -0.1561042,-0.4193646 0,-0.2620962 0.1565275,-0.4182004 0.1565275,-0.1561041 0.4109376,-0.1561041 0.2448057,0 0.4075245,0.1572683 0.1627187,0.1572551 0.1627187,0.4193646 0,0.2620962 -0.1613297,0.4182004 -0.1613164,0.1561042 -0.41275,0.1561042 z m 2.143297,4.4053125 q -0.3124464,0 -0.5439569,-0.2307299 -0.2315104,-0.2307299 -0.2315104,-0.5490104 0,-0.3182806 0.2291424,-0.549791 0.2291424,-0.2315104 0.5451475,-0.2315104 0.3038872,0 0.5387049,0.2307299 0.2348177,0.2307299 0.2348177,0.5490104 0,0.3182805 -0.2327142,0.5497909 -0.2327011,0.2315105 -0.539631,0.2315105 z m 0,-2.06375 q -0.3124464,0 -0.5439569,-0.2293673 -0.2315104,-0.2293805 -0.2315104,-0.5457031 0,-0.3163359 0.2291424,-0.5511536 0.2291424,-0.2348177 0.5451475,-0.2348177 0.3038872,0 0.5387049,0.2320925 0.2348177,0.2320925 0.2348177,0.5523177 0,0.3202252 -0.2327142,0.5484283 -0.2327011,0.2282032 -0.539631,0.2282032 z m -1.72e-4,3.9952088 q -0.2514203,0 -0.4075244,-0.1572688 Q 4.7558684,9.779329 4.7558684,9.5172196 q 0,-0.2620963 0.1565275,-0.4182004 0.1565275,-0.1561042 0.4109376,-0.1561042 0.2448057,0 0.4075245,0.1572683 0.1627187,0.1572551 0.1627187,0.4193646 0,0.2620963 -0.1613297,0.4182004 -0.1613164,0.1561047 -0.41275,0.1561047 z m 0,-6.3367713 q -0.2514203,0 -0.4075244,-0.1572684 -0.1561042,-0.1572551 -0.1561042,-0.4193646 0,-0.2620962 0.1565275,-0.4182004 0.1565275,-0.1561041 0.4109376,-0.1561041 0.2448057,0 0.4075245,0.1572683 0.1627187,0.1572551 0.1627187,0.4193646 0,0.2620962 -0.1613297,0.4182004 -0.1613164,0.1561042 -0.41275,0.1561042 z m -0.00517,7.6861463 q -0.161581,0 -0.2541852,-0.100158 -0.092604,-0.100172 -0.092604,-0.251355 0,-0.151196 0.094496,-0.250414 0.094496,-0.09922 0.2513542,-0.09922 0.1568582,0 0.2626915,0.09988 0.1058334,0.09988 0.1058334,0.250692 0,0.150813 -0.1030023,0.250693 -0.1029891,0.09988 -0.2645836,0.09988 z m 0.00284,-9.4720838 q -0.1644253,0 -0.2570295,-0.1058334 -0.092604,-0.1058333 -0.092604,-0.2513541 0,-0.1455209 0.094496,-0.2513542 0.094496,-0.1058333 0.2513542,-0.1058333 0.1568582,0 0.2626915,0.1058333 0.1058334,0.1058333 0.1058334,0.2513542 0,0.1455208 -0.1001581,0.2513541 Q 5.4815793,1.9711442 5.317167,1.9711442 Z m 2.057691,6.19125 q -0.310502,0 -0.538705,-0.2307299 Q 6.60795,7.7009344 6.60795,7.3826539 q 0,-0.3182806 0.226642,-0.549791 0.226655,-0.2315104 0.539089,-0.2315104 0.305831,0 0.543956,0.2307299 0.238125,0.2307299 0.238125,0.5490104 0,0.3182805 -0.235201,0.5497909 -0.235214,0.2315105 -0.545703,0.2315105 z m 0,-2.06375 q -0.310502,0 -0.538705,-0.2293673 Q 6.60795,5.6398964 6.60795,5.3235738 q 0,-0.3163359 0.226642,-0.5511536 0.226655,-0.2348177 0.539089,-0.2348177 0.305831,0 0.543956,0.2320925 0.238125,0.2320925 0.238125,0.5523177 0,0.3202252 -0.235201,0.5484283 -0.235214,0.2282032 -0.545703,0.2282032 z m 0.0018,3.9952088 q -0.258035,0 -0.414139,-0.1572688 Q 6.806415,9.779329 6.806415,9.5172196 q 0,-0.2620963 0.156527,-0.4182004 Q 7.11947,8.942915 7.380494,8.942915 q 0.251421,0 0.41414,0.1572683 0.162718,0.1572551 0.162718,0.4193646 0,0.2620963 -0.161329,0.4182004 -0.161312,0.1561047 -0.419361,0.1561047 z m 0,-6.3367713 q -0.258035,0 -0.414139,-0.1572684 -0.156104,-0.1572551 -0.156104,-0.4193646 0,-0.2620962 0.156527,-0.4182004 0.156528,-0.1561041 0.417552,-0.1561041 0.251421,0 0.41414,0.1572683 0.162718,0.1572551 0.162718,0.4193646 0,0.2620962 -0.161329,0.4182004 -0.161317,0.1561042 -0.419365,0.1561042 z m 0.07988,7.6861463 q -0.160642,0 -0.253246,-0.100158 -0.0926,-0.100172 -0.0926,-0.251355 0,-0.151196 0.09222,-0.250414 0.09223,-0.09922 0.246063,-0.09922 0.159133,0 0.260998,0.0979 0.101864,0.0979 0.101864,0.246062 0,0.153458 -0.09733,0.255323 -0.09733,0.101865 -0.257968,0.101865 z M 7.378108,1.9711442 q -0.160258,0 -0.253523,-0.1058334 -0.09327,-0.1058333 -0.09327,-0.2513541 0,-0.1455209 0.09421,-0.2513542 0.09422,-0.1058333 0.250692,-0.1058333 0.156488,0 0.256368,0.1058333 0.09988,0.1058333 0.09988,0.2513542 0,0.1455208 -0.09705,0.2513541 -0.09704,0.1058334 -0.257307,0.1058334 z m 2.135069,8.1227088 q -0.25142,0 -0.407525,-0.1572688 Q 8.949548,9.779329 8.949548,9.5172196 q 0,-0.2620963 0.156528,-0.4182004 0.156527,-0.1561042 0.410937,-0.1561042 0.244806,0 0.407525,0.1572683 0.162718,0.1572551 0.162718,0.4193646 0,0.2620963 -0.161329,0.4182004 -0.161317,0.1561047 -0.41275,0.1561047 z m 0,-2.1431255 q -0.25142,0 -0.407525,-0.1572683 -0.156104,-0.1572551 -0.156104,-0.41275 0,-0.2554817 0.156528,-0.4115859 0.156527,-0.1561041 0.410937,-0.1561041 0.244806,0 0.407525,0.1572683 0.162718,0.1572551 0.162718,0.41275 0,0.2554817 -0.161329,0.4115858 -0.161317,0.1561042 -0.41275,0.1561042 z m 0,-2.0505208 q -0.25142,0 -0.407525,-0.1664362 -0.156104,-0.1664229 -0.156104,-0.4193646 0,-0.2529284 0.156528,-0.4090326 0.156527,-0.1561041 0.410937,-0.1561041 0.244806,0 0.407525,0.1572683 0.162718,0.1572551 0.162718,0.4101968 0,0.2529284 -0.161329,0.4182004 -0.161317,0.165272 -0.41275,0.165272 z m 0,-2.143125 q -0.25142,0 -0.407525,-0.1572684 -0.156104,-0.1572551 -0.156104,-0.4193646 0,-0.2620962 0.156528,-0.4182004 0.156527,-0.1561041 0.410937,-0.1561041 0.244806,0 0.407525,0.1572683 0.162718,0.1572551 0.162718,0.4193646 0,0.2620962 -0.161329,0.4182004 -0.161317,0.1561042 -0.41275,0.1561042 z m 1.569098,3.9819791 q -0.160258,0 -0.253524,-0.1058333 -0.09327,-0.1058333 -0.09327,-0.2513542 0,-0.1455208 0.09421,-0.2513541 0.09422,-0.1058334 0.250693,-0.1058334 0.156488,0 0.256368,0.1058334 0.09988,0.1058333 0.09988,0.2513541 0,0.1455209 -0.09705,0.2513542 -0.09704,0.1058333 -0.257307,0.1058333 z m 0,-2.06375 q -0.160258,0 -0.253524,-0.1058333 -0.09327,-0.1058333 -0.09327,-0.2513542 0,-0.1455208 0.09421,-0.2513541 0.09422,-0.1058334 0.250693,-0.1058334 0.156488,0 0.256368,0.1058334 0.09988,0.1058333 0.09988,0.2513541 0,0.1455209 -0.09705,0.2513542 -0.09704,0.1058333 -0.257307,0.1058333 z"
       id="path1103"
       style="fill:#ffffff;fill-opacity:1;stroke-width:0.0132292" /></g></svg>
