<?xml version="1.0" encoding="UTF-8" standalone="no"?>
<!-- Created with Inkscape (http://www.inkscape.org/) -->

<svg
   width="48"
   height="48"
   viewBox="0 0 12.7 12.7"
   version="1.1"
   id="svg5"
   inkscape:version="1.2.1 (9c6d41e4, 2022-07-14)"
   sodipodi:docname="Fixture_group.svg"
   xml:space="preserve"
   xmlns:inkscape="http://www.inkscape.org/namespaces/inkscape"
   xmlns:sodipodi="http://sodipodi.sourceforge.net/DTD/sodipodi-0.dtd"
   xmlns="http://www.w3.org/2000/svg"
   xmlns:svg="http://www.w3.org/2000/svg"><sodipodi:namedview
     id="namedview7"
     pagecolor="#000000"
     bordercolor="#000000"
     borderopacity="0.25"
     inkscape:showpageshadow="2"
     inkscape:pageopacity="0"
     inkscape:pagecheckerboard="0"
     inkscape:deskcolor="#d1d1d1"
     inkscape:document-units="mm"
     showgrid="true"
     inkscape:zoom="9.5366574"
     inkscape:cx="25.21848"
     inkscape:cy="22.28244"
     inkscape:window-width="1280"
     inkscape:window-height="747"
     inkscape:window-x="0"
     inkscape:window-y="25"
     inkscape:window-maximized="1"
     inkscape:current-layer="layer1"><inkscape:grid
       type="xygrid"
       id="grid182"
       originx="6.35"
       originy="6.35"
       visible="true"
       enabled="true" /></sodipodi:namedview><defs
     id="defs2"><inkscape:path-effect
       effect="fillet_chamfer"
       id="path-effect4426"
       is_visible="true"
       lpeversion="1"
       nodesatellites_param="F,0,0,1,0,0.26458333,0,1 @ F,0,0,1,0,0.26458333,0,1 @ F,0,0,1,0,0.26458333,0,1 @ F,0,0,1,0,0.26458333,0,1 @ F,0,0,1,0,0.26458333,0,1 | F,0,0,1,0,0.26458333,0,1 @ F,0,0,1,0,0.26458333,0,1 @ F,0,0,1,0,0.26458333,0,1 @ F,0,0,1,0,0.26458333,0,1 | F,0,0,1,0,0.26458333,0,1 @ F,0,0,1,0,0.26458333,0,1 @ F,0,0,1,0,0.26458333,0,1 @ F,0,0,1,0,0.26458333,0,1 @ F,0,0,1,0,0.26458333,0,1 @ F,0,0,1,0,0.26458333,0,1 @ F,0,0,1,0,0.26458333,0,1 @ F,0,0,1,0,0.26458333,0,1 @ F,0,0,1,0,0.26458333,0,1 | F,0,0,1,0,0.26458333,0,1 @ F,0,0,1,0,0.26458333,0,1 @ F,0,0,1,0,0.26458333,0,1 @ F,0,0,1,0,0.26458333,0,1 @ F,0,0,1,0,0.26458333,0,1 @ F,0,0,1,0,0.26458333,0,1 @ F,0,0,1,0,0.26458333,0,1 @ F,0,0,1,0,0.26458333,0,1 @ F,0,0,1,0,0.26458333,0,1"
       unit="px"
       method="auto"
       mode="F"
       radius="1"
       chamfer_steps="1"
       flexible="false"
       use_knot_distance="true"
       apply_no_radius="true"
       apply_with_radius="true"
       only_selected="false"
       hide_knots="false" /><inkscape:path-effect
       effect="fillet_chamfer"
       id="path-effect4420"
       is_visible="true"
       lpeversion="1"
       nodesatellites_param="F,0,0,1,0,0.26458333,0,1 @ F,0,0,1,0,0.26458333,0,1 @ F,0,0,1,0,0.26458333,0,1 @ F,0,0,1,0,0.26458333,0,1 @ F,0,0,1,0,0.26458333,0,1 | F,0,0,1,0,0.26458333,0,1 @ F,0,0,1,0,0.26458333,0,1 @ F,0,0,1,0,0.26458333,0,1 @ F,0,0,1,0,0.26458333,0,1 | F,0,0,1,0,0.26458333,0,1 @ F,0,0,1,0,0.26458333,0,1 @ F,0,0,1,0,0.26458333,0,1 @ F,0,0,1,0,0.26458333,0,1 @ F,0,0,1,0,0.26458333,0,1 @ F,0,0,1,0,0.26458333,0,1 @ F,0,0,1,0,0.26458333,0,1 @ F,0,0,1,0,0.26458333,0,1 @ F,0,0,1,0,0.26458333,0,1 | F,0,0,1,0,0.26458333,0,1 @ F,0,0,1,0,0.26458333,0,1 @ F,0,0,1,0,0.26458333,0,1 @ F,0,0,1,0,0.26458333,0,1 @ F,0,0,1,0,0.26458333,0,1 @ F,0,0,1,0,0.26458333,0,1 @ F,0,0,1,0,0.26458333,0,1 @ F,0,0,1,0,0.26458333,0,1 @ F,0,0,1,0,0.26458333,0,1"
       unit="px"
       method="auto"
       mode="F"
       radius="1"
       chamfer_steps="1"
       flexible="false"
       use_knot_distance="true"
       apply_no_radius="true"
       apply_with_radius="true"
       only_selected="false"
       hide_knots="false" /><inkscape:path-effect
       effect="fillet_chamfer"
       id="path-effect4414"
       is_visible="true"
       lpeversion="1"
       nodesatellites_param="F,0,0,1,0,0.26458333,0,1 @ F,0,0,1,0,0.26458333,0,1 @ F,0,0,1,0,0.26458333,0,1 @ F,0,0,1,0,0.26458333,0,1 @ F,0,0,1,0,0.26458333,0,1 | F,0,0,1,0,0.26458333,0,1 @ F,0,0,1,0,0.26458333,0,1 @ F,0,0,1,0,0.26458333,0,1 @ F,0,0,1,0,0.26458333,0,1 | F,0,0,1,0,0.26458333,0,1 @ F,0,0,1,0,0.26458333,0,1 @ F,0,0,1,0,0.26458333,0,1 @ F,0,0,1,0,0.26458333,0,1 @ F,0,0,1,0,0.26458333,0,1 @ F,0,0,1,0,0.26458333,0,1 @ F,0,0,1,0,0.26458333,0,1 @ F,0,0,1,0,0.26458333,0,1 @ F,0,0,1,0,0.26458333,0,1 | F,0,0,1,0,0.26458333,0,1 @ F,0,0,1,0,0.26458333,0,1 @ F,0,0,1,0,0.26458333,0,1 @ F,0,0,1,0,0.26458333,0,1 @ F,0,0,1,0,0.26458333,0,1 @ F,0,0,1,0,0.26458333,0,1 @ F,0,0,1,0,0.26458333,0,1 @ F,0,0,1,0,0.26458333,0,1 @ F,0,0,1,0,0.26458333,0,1"
       unit="px"
       method="auto"
       mode="F"
       radius="1"
       chamfer_steps="1"
       flexible="false"
       use_knot_distance="true"
       apply_no_radius="true"
       apply_with_radius="true"
       only_selected="false"
       hide_knots="false" /><inkscape:path-effect
       effect="fillet_chamfer"
       id="path-effect4406"
       is_visible="true"
       lpeversion="1"
       nodesatellites_param="F,0,0,1,0,0.26458333,0,1 @ F,0,0,1,0,0.26458333,0,1 @ F,0,0,1,0,0.26458333,0,1 @ F,0,0,1,0,0.26458333,0,1 @ F,0,0,1,0,0.26458333,0,1 | F,0,0,1,0,0.26458333,0,1 @ F,0,0,1,0,0.26458333,0,1 @ F,0,0,1,0,0.26458333,0,1 @ F,0,0,1,0,0.26458333,0,1 | F,0,0,1,0,0.26458333,0,1 @ F,0,0,1,0,0.26458333,0,1 @ F,0,0,1,0,0.26458333,0,1 @ F,0,0,1,0,0.26458333,0,1 @ F,0,0,1,0,0.26458333,0,1 @ F,0,0,1,0,0.26458333,0,1 @ F,0,0,1,0,0.26458333,0,1 @ F,0,0,1,0,0.26458333,0,1 @ F,0,0,1,0,0.26458333,0,1 | F,0,0,1,0,0.26458333,0,1 @ F,0,0,1,0,0.26458333,0,1 @ F,0,0,1,0,0.26458333,0,1 @ F,0,0,1,0,0.26458333,0,1 @ F,0,0,1,0,0.26458333,0,1 @ F,0,0,1,0,0.26458333,0,1 @ F,0,0,1,0,0.26458333,0,1 @ F,0,0,1,0,0.26458333,0,1 @ F,0,0,1,0,0.26458333,0,1"
       unit="px"
       method="auto"
       mode="F"
       radius="1"
       chamfer_steps="1"
       flexible="false"
       use_knot_distance="true"
       apply_no_radius="true"
       apply_with_radius="true"
       only_selected="false"
       hide_knots="false" /><inkscape:path-effect
       effect="fillet_chamfer"
       id="path-effect4400"
       is_visible="true"
       lpeversion="1"
       nodesatellites_param="F,0,0,1,0,0.26458333,0,1 @ F,0,0,1,0,0.26458333,0,1 @ F,0,0,1,0,0.26458333,0,1 @ F,0,0,1,0,0.26458333,0,1 @ F,0,0,1,0,0.26458333,0,1 | F,0,0,1,0,0.26458333,0,1 @ F,0,0,1,0,0.26458333,0,1 @ F,0,0,1,0,0.26458333,0,1 @ F,0,0,1,0,0.26458333,0,1 | F,0,0,1,0,0.26458333,0,1 @ F,0,0,1,0,0.26458333,0,1 @ F,0,0,1,0,0.26458333,0,1 @ F,0,0,1,0,0.26458333,0,1 @ F,0,0,1,0,0.26458333,0,1 @ F,0,0,1,0,0.26458333,0,1 @ F,0,0,1,0,0.26458333,0,1 @ F,0,0,1,0,0.26458333,0,1 @ F,0,0,1,0,0.26458333,0,1 | F,0,0,1,0,0.26458333,0,1 @ F,0,0,1,0,0.26458333,0,1 @ F,0,0,1,0,0.26458333,0,1 @ F,0,0,1,0,0.26458333,0,1 @ F,0,0,1,0,0.26458333,0,1 @ F,0,0,1,0,0.26458333,0,1 @ F,0,0,1,0,0.26458333,0,1 @ F,0,0,1,0,0.26458333,0,1 @ F,0,0,1,0,0.26458333,0,1"
       unit="px"
       method="auto"
       mode="F"
       radius="1"
       chamfer_steps="1"
       flexible="false"
       use_knot_distance="true"
       apply_no_radius="true"
       apply_with_radius="true"
       only_selected="false"
       hide_knots="false" /><inkscape:path-effect
       effect="fillet_chamfer"
       id="path-effect4354"
       is_visible="true"
       lpeversion="1"
       nodesatellites_param="F,0,0,1,0,0.26458333,0,1 @ F,0,0,1,0,0.26458333,0,1 @ F,0,0,1,0,0.26458333,0,1 @ F,0,0,1,0,0.26458333,0,1 @ F,0,0,1,0,0.26458333,0,1 | F,0,0,1,0,0.26458333,0,1 @ F,0,0,1,0,0.26458333,0,1 @ F,0,0,1,0,0.26458333,0,1 @ F,0,0,1,0,0.26458333,0,1 | F,0,0,1,0,0.26458333,0,1 @ F,0,0,1,0,0.26458333,0,1 @ F,0,0,1,0,0.26458333,0,1 @ F,0,0,1,0,0.26458333,0,1 @ F,0,0,1,0,0.26458333,0,1 @ F,0,0,1,0,0.26458333,0,1 @ F,0,0,1,0,0.26458333,0,1 @ F,0,0,1,0,0.26458333,0,1 @ F,0,0,1,0,0.26458333,0,1 | F,0,0,1,0,0.26458333,0,1 @ F,0,0,1,0,0.26458333,0,1 @ F,0,0,1,0,0.26458333,0,1 @ F,0,0,1,0,0.26458333,0,1 @ F,0,0,1,0,0.26458333,0,1 @ F,0,0,1,0,0.26458333,0,1 @ F,0,0,1,0,0.26458333,0,1 @ F,0,0,1,0,0.26458333,0,1 @ F,0,0,1,0,0.26458333,0,1"
       unit="px"
       method="auto"
       mode="F"
       radius="1"
       chamfer_steps="1"
       flexible="false"
       use_knot_distance="true"
       apply_no_radius="true"
       apply_with_radius="true"
       only_selected="false"
       hide_knots="false" /><inkscape:path-effect
       effect="fillet_chamfer"
       id="path-effect1875"
       is_visible="true"
       lpeversion="1"
       nodesatellites_param="F,0,0,1,0,0,0,1 @ F,0,0,1,0,0.26458333,0,1 @ F,0,0,1,0,0.26458333,0,1 @ F,0,0,1,0,0,0,1"
       unit="px"
       method="arc"
       mode="F"
       radius="12"
       chamfer_steps="1"
       flexible="false"
       use_knot_distance="true"
       apply_no_radius="false"
       apply_with_radius="false"
       only_selected="false"
       hide_knots="false" /><inkscape:path-effect
       effect="fillet_chamfer"
       id="path-effect8498"
       is_visible="true"
       lpeversion="1"
       nodesatellites_param="F,0,0,1,0,0.13229167,0,1 @ F,0,0,1,0,0.13229167,0,1 @ F,0,0,1,0,0.13229167,0,1 @ F,0,0,1,0,0.13229167,0,1 @ F,0,0,1,0,0.13229167,0,1 @ F,0,0,1,0,0.13229167,0,1 @ F,0,0,1,0,0.13229167,0,1 @ F,0,0,1,0,0.13229167,0,1 | F,0,0,1,0,0.13229167,0,1 @ F,0,0,1,0,0.13229167,0,1 @ F,0,0,1,0,0.13229167,0,1 @ F,0,0,1,0,0.13229167,0,1 @ F,0,0,1,0,0.13229167,0,1 @ F,0,0,1,0,0.13229167,0,1 @ F,0,0,1,0,0.13229167,0,1 @ F,0,0,1,0,0.13229167,0,1 | F,0,0,1,0,0.13229167,0,1 @ F,0,0,1,0,0.13229167,0,1 @ F,0,0,1,0,0.13229167,0,1 @ F,0,0,1,0,0.13229167,0,1 | F,0,0,1,0,0.13229167,0,1 @ F,0,0,1,0,0.13229167,0,1 @ F,0,0,1,0,0.13229167,0,1 @ F,0,0,1,0,0.13229167,0,1 | F,0,0,1,0,0.13229167,0,1 @ F,0,0,1,0,0.13229167,0,1 @ F,0,0,1,0,0.13229167,0,1 @ F,0,0,1,0,0.13229167,0,1 | F,0,0,1,0,0.13229167,0,1 @ F,0,0,1,0,0.13229167,0,1 @ F,0,0,1,0,0.13229167,0,1 @ F,0,0,1,0,0.13229167,0,1 | F,0,0,1,0,0.13229167,0,1 @ F,0,0,1,0,0.13229167,0,1 @ F,0,0,1,0,0.13229167,0,1 @ F,0,0,1,0,0.13229167,0,1 | F,0,0,1,0,0.13229167,0,1 @ F,0,0,1,0,0.13229167,0,1 @ F,0,0,1,0,0.13229167,0,1 @ F,0,0,1,0,0.13229167,0,1 | F,0,0,1,0,0.13229167,0,1 @ F,0,0,1,0,0.13229167,0,1 @ F,0,0,1,0,0.13229167,0,1 @ F,0,0,1,0,0.13229167,0,1 | F,0,0,1,0,0.13229167,0,1 @ F,0,0,1,0,0.13229167,0,1 @ F,0,0,1,0,0.13229167,0,1 @ F,0,0,1,0,0.13229167,0,1"
       unit="px"
       method="auto"
       mode="F"
       radius="0.5"
       chamfer_steps="1"
       flexible="false"
       use_knot_distance="true"
       apply_no_radius="true"
       apply_with_radius="true"
       only_selected="false"
       hide_knots="false" /><inkscape:path-effect
       effect="fillet_chamfer"
       id="path-effect8494"
       is_visible="true"
       lpeversion="1"
       nodesatellites_param="F,0,0,1,0,0.13229167,0,1 @ F,0,0,1,0,0.13229167,0,1 @ F,0,0,1,0,0.13229167,0,1 @ F,0,0,1,0,0.13229167,0,1 @ F,0,0,1,0,0.13229167,0,1 @ F,0,0,1,0,0.13229167,0,1 @ F,0,0,1,0,0.13229167,0,1 @ F,0,0,1,0,0.13229167,0,1 | F,0,0,1,0,0.13229167,0,1 @ F,0,0,1,0,0.13229167,0,1 @ F,0,0,1,0,0.13229167,0,1 @ F,0,0,1,0,0.13229167,0,1 @ F,0,0,1,0,0.13229167,0,1 @ F,0,0,1,0,0.13229167,0,1 @ F,0,0,1,0,0.13229167,0,1 @ F,0,0,1,0,0.13229167,0,1 | F,0,0,1,0,0.13229167,0,1 @ F,0,0,1,0,0.13229167,0,1 @ F,0,0,1,0,0.13229167,0,1 @ F,0,0,1,0,0.13229167,0,1 | F,0,0,1,0,0.13229167,0,1 @ F,0,0,1,0,0.13229167,0,1 @ F,0,0,1,0,0.13229167,0,1 @ F,0,0,1,0,0.13229167,0,1 | F,0,0,1,0,0.13229167,0,1 @ F,0,0,1,0,0.13229167,0,1 @ F,0,0,1,0,0.13229167,0,1 @ F,0,0,1,0,0.13229167,0,1 | F,0,0,1,0,0.13229167,0,1 @ F,0,0,1,0,0.13229167,0,1 @ F,0,0,1,0,0.13229167,0,1 @ F,0,0,1,0,0.13229167,0,1 | F,0,0,1,0,0.13229167,0,1 @ F,0,0,1,0,0.13229167,0,1 @ F,0,0,1,0,0.13229167,0,1 @ F,0,0,1,0,0.13229167,0,1 | F,0,0,1,0,0.13229167,0,1 @ F,0,0,1,0,0.13229167,0,1 @ F,0,0,1,0,0.13229167,0,1 @ F,0,0,1,0,0.13229167,0,1 | F,0,0,1,0,0.13229167,0,1 @ F,0,0,1,0,0.13229167,0,1 @ F,0,0,1,0,0.13229167,0,1 @ F,0,0,1,0,0.13229167,0,1 | F,0,0,1,0,0.13229167,0,1 @ F,0,0,1,0,0.13229167,0,1 @ F,0,0,1,0,0.13229167,0,1 @ F,0,0,1,0,0.13229167,0,1"
       unit="px"
       method="auto"
       mode="F"
       radius="0.5"
       chamfer_steps="1"
       flexible="false"
       use_knot_distance="true"
       apply_no_radius="true"
       apply_with_radius="true"
       only_selected="false"
       hide_knots="false" /><inkscape:path-effect
       effect="fillet_chamfer"
       id="path-effect8486"
       is_visible="true"
       lpeversion="1"
       nodesatellites_param="F,0,0,1,0,0.13229167,0,1 @ F,0,0,1,0,0.13229167,0,1 @ F,0,0,1,0,0.13229167,0,1 @ F,0,0,1,0,0.13229167,0,1 @ F,0,0,1,0,0.13229167,0,1 @ F,0,0,1,0,0.13229167,0,1 @ F,0,0,1,0,0.13229167,0,1 @ F,0,0,1,0,0.13229167,0,1 | F,0,0,1,0,0.13229167,0,1 @ F,0,0,1,0,0.13229167,0,1 @ F,0,0,1,0,0.13229167,0,1 @ F,0,0,1,0,0.13229167,0,1 @ F,0,0,1,0,0.13229167,0,1 @ F,0,0,1,0,0.13229167,0,1 @ F,0,0,1,0,0.13229167,0,1 @ F,0,0,1,0,0.13229167,0,1 | F,0,0,1,0,0.13229167,0,1 @ F,0,0,1,0,0.13229167,0,1 @ F,0,0,1,0,0.13229167,0,1 @ F,0,0,1,0,0.13229167,0,1 | F,0,0,1,0,0.13229167,0,1 @ F,0,0,1,0,0.13229167,0,1 @ F,0,0,1,0,0.13229167,0,1 @ F,0,0,1,0,0.13229167,0,1 | F,0,0,1,0,0.13229167,0,1 @ F,0,0,1,0,0.13229167,0,1 @ F,0,0,1,0,0.13229167,0,1 @ F,0,0,1,0,0.13229167,0,1 | F,0,0,1,0,0.13229167,0,1 @ F,0,0,1,0,0.13229167,0,1 @ F,0,0,1,0,0.13229167,0,1 @ F,0,0,1,0,0.13229167,0,1 | F,0,0,1,0,0.13229167,0,1 @ F,0,0,1,0,0.13229167,0,1 @ F,0,0,1,0,0.13229167,0,1 @ F,0,0,1,0,0.13229167,0,1 | F,0,0,1,0,0.13229167,0,1 @ F,0,0,1,0,0.13229167,0,1 @ F,0,0,1,0,0.13229167,0,1 @ F,0,0,1,0,0.13229167,0,1 | F,0,0,1,0,0.13229167,0,1 @ F,0,0,1,0,0.13229167,0,1 @ F,0,0,1,0,0.13229167,0,1 @ F,0,0,1,0,0.13229167,0,1 | F,0,0,1,0,0.13229167,0,1 @ F,0,0,1,0,0.13229167,0,1 @ F,0,0,1,0,0.13229167,0,1 @ F,0,0,1,0,0.13229167,0,1"
       unit="px"
       method="auto"
       mode="F"
       radius="0.5"
       chamfer_steps="1"
       flexible="false"
       use_knot_distance="true"
       apply_no_radius="true"
       apply_with_radius="true"
       only_selected="false"
       hide_knots="false" /><inkscape:path-effect
       effect="fillet_chamfer"
       id="path-effect8480"
       is_visible="true"
       lpeversion="1"
       nodesatellites_param="F,0,0,1,0,0.396875,0,1 @ F,0,0,1,0,0.396875,0,1 @ F,0,0,1,0,0.396875,0,1 @ F,0,0,1,0,0.396875,0,1 @ F,0,0,1,0,0.396875,0,1 @ F,0,0,1,0,0.396875,0,1 @ F,0,0,1,0,0.396875,0,1 @ F,0,0,1,0,0.396875,0,1 | F,0,0,1,0,0.396875,0,1 @ F,0,0,1,0,0.396875,0,1 @ F,0,0,1,0,0.396875,0,1 @ F,0,0,1,0,0.396875,0,1 @ F,0,0,1,0,0.396875,0,1 @ F,0,0,1,0,0.396875,0,1 @ F,0,0,1,0,0.396875,0,1 @ F,0,0,1,0,0.396875,0,1 | F,0,0,1,0,0.396875,0,1 @ F,0,0,1,0,0.396875,0,1 @ F,0,0,1,0,0.396875,0,1 @ F,0,0,1,0,0.396875,0,1 | F,0,0,1,0,0.396875,0,1 @ F,0,0,1,0,0.396875,0,1 @ F,0,0,1,0,0.396875,0,1 @ F,0,0,1,0,0.396875,0,1 | F,0,0,1,0,0.396875,0,1 @ F,0,0,1,0,0.396875,0,1 @ F,0,0,1,0,0.396875,0,1 @ F,0,0,1,0,0.396875,0,1 | F,0,0,1,0,0.396875,0,1 @ F,0,0,1,0,0.396875,0,1 @ F,0,0,1,0,0.396875,0,1 @ F,0,0,1,0,0.396875,0,1 | F,0,0,1,0,0.396875,0,1 @ F,0,0,1,0,0.396875,0,1 @ F,0,0,1,0,0.396875,0,1 @ F,0,0,1,0,0.396875,0,1 | F,0,0,1,0,0.396875,0,1 @ F,0,0,1,0,0.396875,0,1 @ F,0,0,1,0,0.396875,0,1 @ F,0,0,1,0,0.396875,0,1 | F,0,0,1,0,0.396875,0,1 @ F,0,0,1,0,0.396875,0,1 @ F,0,0,1,0,0.396875,0,1 @ F,0,0,1,0,0.396875,0,1 | F,0,0,1,0,0.396875,0,1 @ F,0,0,1,0,0.396875,0,1 @ F,0,0,1,0,0.396875,0,1 @ F,0,0,1,0,0.396875,0,1"
       unit="px"
       method="auto"
       mode="F"
       radius="1.5"
       chamfer_steps="1"
       flexible="false"
       use_knot_distance="true"
       apply_no_radius="true"
       apply_with_radius="true"
       only_selected="false"
       hide_knots="false" /></defs><g
     inkscape:label="Layer 1"
     inkscape:groupmode="layer"
     id="layer1"><path
       d="m 8.4794665,10.97287 c -0.062704,-0.01808 -0.122623,-0.04306 -0.1797569,-0.07492 -0.1272212,-0.07095 -0.2987487,-0.242478 -0.3696971,-0.369687 -0.031865,-0.05713 -0.056841,-0.117052 -0.074927,-0.179756 -0.040367,-0.139948 0.082847,-0.261314 0.2289726,-0.261314 l 1.3134053,0 c 0.1461253,0 0.2693387,0.121356 0.2289784,0.261294 -0.018085,0.0627 -0.04306,0.122624 -0.074923,0.179758 -0.070951,0.127221 -0.2424801,0.298747 -0.3696894,0.369695 -0.057133,0.03186 -0.1170512,0.05684 -0.1797543,0.07493 -0.1399484,0.04037 -0.3826699,0.04037 -0.5226081,6e-6 z M 6.8981893,9.361965 V 8.9698451 A 0.26458333,0.26458333 135 0 1 7.1627726,8.7052618 H 10.31875 a 0.26458333,0.26458333 45 0 1 0.264583,0.2645833 V 9.361965 A 0.26458333,0.26458333 135 0 1 10.31875,9.6265483 H 7.1627726 A 0.26458333,0.26458333 45 0 1 6.8981893,9.361965 Z M 6.7908129,8.1016071 C 6.4366563,7.8557678 6.1377943,7.5556039 5.894227,7.2011154 5.811491,7.0807013 5.691314,6.8760806 5.6270688,6.7448745 5.4377345,6.3582024 5.3272138,5.9481781 5.2955065,5.5148017 5.2848459,5.3690931 5.2849033,5.1318219 5.2946798,4.9860514 5.3455345,4.227794 5.6183072,3.5646444 6.1129977,2.9966024 6.2089545,2.8864174 6.3767286,2.7186436 6.4869018,2.6226957 7.0549417,2.1279998 7.7180892,1.8552219 8.4763445,1.804362 c 0.145785,-0.00978 0.3830347,-0.00978 0.5288052,-1.8e-6 0.7582581,0.050855 1.4214083,0.3236275 1.9894513,0.8183183 0.110186,0.095957 0.277959,0.2637307 0.373907,0.3739041 0.494695,0.5680398 0.767472,1.2311873 0.818332,1.9894424 0.0098,0.145785 0.0098,0.3830638 -8.24e-4,0.5287673 C 12.15431,5.948169 12.04379,6.3581936 11.854457,6.7448659 11.79021,6.8760769 11.670033,7.0806983 11.587299,7.2011092 11.343733,7.5555983 11.044871,7.8557628 10.690715,8.1016027 10.570698,8.1849138 10.349714,8.244619 10.203589,8.244619 H 7.2779334 c -0.1461253,0 -0.3671062,-0.059703 -0.4871205,-0.1430119 z M 7.5543192,7.3233334 h 2.3728835 c 0.1461253,0 0.3622303,-0.067645 0.4727313,-0.1631759 0.178302,-0.1541454 0.33095,-0.3270624 0.457942,-0.5187511 0.08067,-0.1217638 0.190577,-0.3325207 0.244171,-0.4683909 0.08318,-0.2108672 0.136231,-0.4303412 0.15916,-0.6584221 0.01461,-0.1453339 0.01456,-0.3829149 0.0012,-0.5283745 C 11.215912,4.4812157 11.03354,4.0356704 10.715264,3.6495828 10.622344,3.5368654 10.454344,3.368865 10.341635,3.2759511 9.9555486,2.9576715 9.510004,2.7752957 9.0050014,2.7288237 8.8595313,2.7154371 8.621998,2.7154373 8.4765384,2.728822 7.9715352,2.7752906 7.5259898,2.9576628 7.1399023,3.2759387 7.0271849,3.3688587 6.8591845,3.5368594 6.7662705,3.6495679 6.447991,4.035654 6.2656152,4.4811979 6.2191432,4.9861997 c -0.013387,0.1454701 -0.013439,0.3830579 0.00117,0.5283896 0.022929,0.2280809 0.075982,0.447555 0.1591585,0.6584223 0.053595,0.1358724 0.1635037,0.3466294 0.2441704,0.4683915 0.1269928,0.1916889 0.27964,0.3646062 0.4579418,0.5187518 0.1105029,0.095532 0.3266088,0.1631785 0.4727341,0.1631785 z"
       id="path4396"
       style="fill:#ffffff;fill-opacity:1;stroke-width:0.0113747;stroke-dasharray:none"
       inkscape:original-d="m 8.7407603,11.008475 q -0.3800302,0 -0.6506579,-0.270626 -0.2706277,-0.270627 -0.2706277,-0.650658 h 1.8425719 q 0,0.380031 -0.2706293,0.650658 -0.2706269,0.270626 -0.650657,0.270626 z M 6.8981893,9.6265483 V 8.7052618 H 10.583333 V 9.6265483 Z M 7.0133501,8.244619 Q 6.218741,7.7724602 5.7523402,6.9778513 5.2859394,6.1832426 5.2859394,5.2504408 q 0,-1.4395087 1.007656,-2.4471648 1.0076561,-1.0076562 2.4471649,-1.0076562 1.4395097,0 2.4471677,1.0076562 1.007654,1.0076561 1.007654,2.4471648 0,0.9328018 -0.4664,1.7274105 -0.466401,0.7946089 -1.26101,1.2667677 z M 7.2897359,7.3233334 h 2.9020501 q 0.518224,-0.3685141 0.800367,-0.9097696 0.282144,-0.5412552 0.282144,-1.163123 0,-1.0594784 -0.737028,-1.7965068 -0.7370288,-0.7370285 -1.7965087,-0.7370285 -1.0594784,0 -1.7965068,0.7370285 -0.7370286,0.7370284 -0.7370286,1.7965068 0,0.6218678 0.2821436,1.163123 0.282144,0.5412555 0.8003674,0.9097696 z m 1.4510247,0 z"
       inkscape:path-effect="#path-effect4400" /><path
       d="M 3.7151505,10.318122 C 3.6524466,10.300038 3.5925277,10.275064 3.5353939,10.243201 3.4081725,10.172251 3.236645,10.000723 3.1656966,9.8735139 3.1338314,9.8163802 3.1088557,9.7564614 3.0907693,9.6937575 3.0504026,9.5538091 3.1736167,9.4324432 3.319742,9.4324432 h 1.3134049 c 0.1461253,0 0.2693387,0.1213556 0.2289785,0.2612938 -0.018085,0.062705 -0.043059,0.1226241 -0.074923,0.1797585 -0.070951,0.1272205 -0.2424798,0.2987475 -0.3696892,0.3696955 -0.057133,0.03186 -0.1170513,0.05684 -0.1797545,0.07493 -0.1399484,0.04037 -0.3826699,0.04036 -0.5226081,5e-6 z M 2.1338734,8.7072175 v -0.39212 A 0.26458333,0.26458333 135 0 1 2.3984567,8.0505142 h 3.1559759 a 0.26458333,0.26458333 45 0 1 0.2645833,0.2645833 v 0.39212 A 0.26458333,0.26458333 135 0 1 5.5544326,8.9718008 H 2.3984567 A 0.26458333,0.26458333 45 0 1 2.1338734,8.7072175 Z M 2.026497,7.4468595 C 1.6723403,7.2010202 1.3734783,6.9008563 1.1299111,6.5463678 1.0471751,6.4259537 0.92699807,6.221333 0.8627529,6.0901269 0.67341861,5.7034548 0.56289782,5.2934305 0.53119053,4.8600541 0.52053,4.7143455 0.52058734,4.4770743 0.53036387,4.3313038 0.58121861,3.5730465 0.85399123,2.9098969 1.3486817,2.3418549 1.4446385,2.2316699 1.6124125,2.0638961 1.7225858,1.9679481 2.2906256,1.4732521 2.9537732,1.2004742 3.7120285,1.1496143 c 0.145785,-0.00978 0.3830347,-0.00978 0.5288052,-1.8e-6 0.7582577,0.050855 1.4214078,0.3236275 1.9894504,0.8183184 0.110185,0.095957 0.2779587,0.2637308 0.3739066,0.3739042 0.4946951,0.5680397 0.7674725,1.2311872 0.8183323,1.9894423 0.00978,0.145785 0.00984,0.3830638 -8.242e-4,0.5287673 C 7.3899928,5.2934214 7.2794734,5.7034459 7.0901407,6.0901183 7.0258937,6.2213293 6.9057161,6.4259506 6.8229827,6.5463614 6.5794156,6.9008506 6.2805541,7.2010151 5.9263983,7.4468551 5.8063807,7.5301662 5.5853969,7.5898715 5.4392716,7.5898715 l -2.9256541,0 c -0.1461253,0 -0.3671062,-0.059704 -0.4871205,-0.143012 z m 0.7635062,-0.7782737 2.3728825,0 c 0.1461253,0 0.3622298,-0.067645 0.4727313,-0.163176 C 5.8139189,6.3512645 5.9665662,6.1783475 6.093559,5.9866589 6.174227,5.8648951 6.2841356,5.6541382 6.3377301,5.5182681 6.4209074,5.3074008 6.4739608,5.0879267 6.4968903,4.8598458 6.511501,4.7145119 6.5114484,4.4769309 6.4980637,4.3314713 6.4515951,3.8264681 6.2692229,3.3809228 5.950947,2.9948352 5.858027,2.8821178 5.6900263,2.7141174 5.5773178,2.6212034 5.1912316,2.302924 4.7456875,2.1205483 4.2406854,2.0740763 4.0952153,2.0606896 3.857682,2.0606898 3.7122224,2.0740745 3.2072192,2.1205431 2.7616738,2.3029153 2.3755863,2.6211911 2.2628689,2.7141111 2.0948685,2.8821118 2.0019545,2.9948203 1.6836751,3.3809064 1.5012994,3.8264504 1.4548274,4.3314521 c -0.013387,0.1454701 -0.013439,0.3830579 0.00117,0.5283896 0.022929,0.2280809 0.075982,0.4475551 0.1591584,0.6584224 0.053595,0.1358724 0.1635037,0.3466294 0.2441704,0.4683915 0.1269927,0.1916889 0.2796399,0.3646061 0.4579417,0.5187517 0.1105028,0.095532 0.3266088,0.1631785 0.4727341,0.1631785 z"
       id="path4416"
       style="fill:#ffffff;fill-opacity:1;stroke-width:0.0113747;stroke-dasharray:none"
       inkscape:original-d="m 3.9764443,10.353727 q -0.3800302,0 -0.6506579,-0.270625 Q 3.0551587,9.8124742 3.0551587,9.4324432 h 1.8425715 q 0,0.380031 -0.2706283,0.6506588 -0.2706274,0.270625 -0.6506576,0.270625 z M 2.1338734,8.9718008 V 8.0505142 H 5.8190159 V 8.9718008 Z M 2.2490342,7.5898715 Q 1.454425,7.1177126 0.98802427,6.3231037 0.52162346,5.528495 0.52162346,4.5956932 q 0,-1.4395086 1.00765594,-2.4471647 1.0076561,-1.0076564 2.4471649,-1.0076564 1.4395091,0 2.4471662,1.0076564 1.0076547,1.0076561 1.0076547,2.4471647 0,0.9328018 -0.4663998,1.7274105 Q 6.4984633,7.1177126 5.7038549,7.5898715 Z M 2.5254199,6.6685858 H 5.427469 Q 5.9456925,6.3000718 6.2278357,5.7588163 6.5099802,5.217561 6.5099802,4.5956932 q 0,-1.0594783 -0.7370285,-1.7965068 Q 5.0359233,2.062158 3.9764443,2.062158 q -1.0594784,0 -1.7965068,0.7370284 -0.7370284,0.7370285 -0.7370284,1.7965068 0,0.6218678 0.2821435,1.1631231 0.2821439,0.5412555 0.8003673,0.9097695 z m 1.4510247,0 z"
       inkscape:path-effect="#path-effect4420" /></g></svg>
