<?xml version="1.0" encoding="UTF-8" standalone="no"?>
<svg
   height="24"
   viewBox="0 -960 960 960"
   width="24"
   version="1.1"
   id="svg1"
   sodipodi:docname="Horizontal_distribute.svg"
   inkscape:version="1.3.2 (091e20ef0f, 2023-11-25, custom)"
   xmlns:inkscape="http://www.inkscape.org/namespaces/inkscape"
   xmlns:sodipodi="http://sodipodi.sourceforge.net/DTD/sodipodi-0.dtd"
   xmlns="http://www.w3.org/2000/svg"
   xmlns:svg="http://www.w3.org/2000/svg">
  <defs
     id="defs1">
    <inkscape:path-effect
       effect="fillet_chamfer"
       id="path-effect1"
       is_visible="true"
       lpeversion="1"
       nodesatellites_param="F,0,0,1,0,34,0,1 @ F,0,0,1,0,34,0,1 @ F,0,0,1,0,34,0,1 @ F,0,0,1,0,34,0,1 | F,0,0,1,0,34,0,1 @ F,0,0,1,0,34,0,1 @ F,0,0,1,0,34,0,1 @ F,0,0,1,0,34,0,1 | F,0,0,1,0,34,0,1 @ F,0,0,1,0,34,0,1 @ F,0,0,1,0,34,0,1 @ F,0,0,1,0,34,0,1"
       radius="34"
       unit="px"
       method="auto"
       mode="F"
       chamfer_steps="1"
       flexible="false"
       use_knot_distance="true"
       apply_no_radius="true"
       apply_with_radius="true"
       only_selected="false"
       hide_knots="false" />
  </defs>
  <sodipodi:namedview
     id="namedview1"
     pagecolor="#ffffff"
     bordercolor="#000000"
     borderopacity="0.25"
     inkscape:showpageshadow="2"
     inkscape:pageopacity="0.0"
     inkscape:pagecheckerboard="0"
     inkscape:deskcolor="#d1d1d1"
     inkscape:zoom="29.666667"
     inkscape:cx="12"
     inkscape:cy="11.983146"
     inkscape:window-width="1920"
     inkscape:window-height="1011"
     inkscape:window-x="1680"
     inkscape:window-y="32"
     inkscape:window-maximized="1"
     inkscape:current-layer="svg1" />
  <path
     d="m 80,-114 v -732 a 34,34 135 0 1 34,-34 h 12 a 34,34 45 0 1 34,34 v 732 a 34,34 135 0 1 -34,34 h -12 a 34,34 45 0 1 -34,-34 z m 340,-200 v -332 a 34,34 135 0 1 34,-34 h 52 a 34,34 45 0 1 34,34 v 332 a 34,34 135 0 1 -34,34 h -52 a 34,34 45 0 1 -34,-34 z m 380,200 v -732 a 34,34 135 0 1 34,-34 h 12 a 34,34 45 0 1 34,34 v 732 a 34,34 135 0 1 -34,34 h -12 a 34,34 45 0 1 -34,-34 z"
     id="path1"
     inkscape:path-effect="#path-effect1"
     inkscape:original-d="M80-80v-800h80v800H80Zm340-200v-400h120v400H420ZM800-80v-800h80v800h-80Z"
     style="fill:#ffffff;fill-opacity:1" />
</svg>
