<?xml version="1.0" encoding="UTF-8" standalone="no"?>
<svg
   height="24px"
   viewBox="0 -960 960 960"
   width="24px"
   fill="#e3e3e3"
   version="1.1"
   id="svg1"
   sodipodi:docname="IPAddrV6.svg"
   inkscape:version="1.4.2 (ebf0e940d0, 2025-05-08)"
   xmlns:inkscape="http://www.inkscape.org/namespaces/inkscape"
   xmlns:sodipodi="http://sodipodi.sourceforge.net/DTD/sodipodi-0.dtd"
   xmlns="http://www.w3.org/2000/svg"
   xmlns:svg="http://www.w3.org/2000/svg">
  <defs
     id="defs1">
    <rect
       x="-4.8827586"
       y="0"
       width="26.882759"
       height="32.234483"
       id="rect1" />
  </defs>
  <sodipodi:namedview
     id="namedview1"
     pagecolor="#ffffff"
     bordercolor="#000000"
     borderopacity="0.25"
     inkscape:showpageshadow="2"
     inkscape:pageopacity="0.0"
     inkscape:pagecheckerboard="0"
     inkscape:deskcolor="#d1d1d1"
     inkscape:zoom="34.176828"
     inkscape:cx="7.9147193"
     inkscape:cy="13.079037"
     inkscape:window-width="2560"
     inkscape:window-height="1360"
     inkscape:window-x="0"
     inkscape:window-y="0"
     inkscape:window-maximized="1"
     inkscape:current-layer="svg1" />
  <path
     d="m 480,-80 c -55.33333,0 -107.33333,-10.5 -156,-31.5 -48.66667,-21 -91,-49.5 -127,-85.5 -36,-36 -64.5,-78.33333 -85.5,-127 -21,-48.66667 -31.5,-100.66667 -31.5,-156 0,-55.33333 10.5,-107.33333 31.5,-156 21,-48.66667 49.5,-91 85.5,-127 36,-36 78.33333,-64.5 127,-85.5 48.66667,-21 100.66667,-31.5 156,-31.5 13.33333,0 26.66667,0.83333 40,2.5 13.33333,1.66667 26.66667,3.16667 40,4.5 v 82 c -13.33333,-1.33333 -26.66667,-2.83333 -40,-4.5 -13.33333,-1.66667 -26.66667,-2.5 -40,-2.5 -17.33333,24 -32.33333,49.16667 -45,75.5 -12.66667,26.33333 -23,53.83333 -31,82.5 h 116 v 80 H 386 c -2,13.33333 -3.5,26.66667 -4.5,40 -1,13.33333 -1.5,26.66667 -1.5,40 0,13.33333 0.5,26.66667 1.5,40 1,13.33333 2.5,26.66667 4.5,40 h 188 c 2,-13.33333 3.5,-26.66667 4.5,-40 1,-13.33333 1.5,-26.66667 1.5,-40 0,-13.33333 -0.5,-26.66667 -1.5,-40 -1,-13.33333 -2.5,-26.66667 -4.5,-40 h 80 c 2,13.33333 3.5,26.66667 4.5,40 1,13.33333 1.5,26.66667 1.5,40 0,13.33333 -0.5,26.66667 -1.5,40 -1,13.33333 -2.5,26.66667 -4.5,40 h 136 c 3.33333,-13.33333 5.83333,-26.66667 7.5,-40 1.66667,-13.33333 2.5,-26.66667 2.5,-40 0,-13.33333 -0.83333,-26.66667 -2.5,-40 -1.66667,-13.33333 -4.16667,-26.66667 -7.5,-40 h 82 c 2.66667,13.33333 4.66667,26.66667 6,40 1.33333,13.33333 2,26.66667 2,40 0,55.33333 -10.5,107.33333 -31.5,156 -21,48.66667 -49.5,91 -85.5,127 -36,36 -78.33333,64.5 -127,85.5 -48.66667,21 -100.66667,31.5 -156,31.5 z M 170,-400 h 136 c -2,-13.33333 -3.5,-26.66667 -4.5,-40 -1,-13.33333 -1.5,-26.66667 -1.5,-40 0,-13.33333 0.5,-26.66667 1.5,-40 1,-13.33333 2.5,-26.66667 4.5,-40 H 170 c -3.33333,13.33333 -5.83333,26.66667 -7.5,40 -1.66667,13.33333 -2.5,26.66667 -2.5,40 0,13.33333 0.83333,26.66667 2.5,40 1.66667,13.33333 4.16667,26.66667 7.5,40 z m 206,222 c -12,-22.66667 -22.5,-45.83333 -31.5,-69.5 -9,-23.66667 -16.5,-47.83333 -22.5,-72.5 H 204 c 19.33333,34 43.66667,63.16667 73,87.5 29.33333,24.33333 62.33333,42.5 99,54.5 z M 204,-640 h 118 c 6,-24.66667 13.5,-48.83333 22.5,-72.5 9,-23.66667 19.5,-46.83333 31.5,-69.5 -36.66667,12 -69.66667,30.16667 -99,54.5 -29.33333,24.33333 -53.66667,53.5 -73,87.5 z m 276,478 c 17.33333,-24 32.33333,-49.16667 45,-75.5 12.66667,-26.33333 23,-53.83333 31,-82.5 H 404 c 8,28.66667 18.33333,56.16667 31,82.5 12.66667,26.33333 27.66667,51.5 45,75.5 z m 104,-16 c 36.66667,-12 69.66667,-30.16667 99,-54.5 29.33333,-24.33333 53.66667,-53.5 73,-87.5 H 638 c -6,24.66667 -13.5,48.83333 -22.5,72.5 -9,23.66667 -19.5,46.83333 -31.5,69.5 z"
     id="path1"
     sodipodi:nodetypes="ssssssssssccscsccccsssccsssccsssccsssccssssssccsssccsssccsccscccscsccsccsccsccsc" />
  <path
     style="font-size:6px;font-family:'Rubik Mono One';-inkscape-font-specification:'Rubik Mono One';text-align:center;text-anchor:middle;white-space:pre;stroke-width:1.13386"
     d="m 8.9965926,2.4892511 q 0.048,-0.006 0.15,-0.006 0.102,0 0.282,0.036 0.186,0.03 0.402,0.138 0.2220004,0.102 0.3960004,0.264 0.174,0.162 0.282,0.426 0.108,0.264 0.108,0.588 0,0.696 -0.57,1.14 -0.5640004,0.444 -1.4280004,0.444 -0.864,0 -1.446,-0.408 -0.582,-0.414 -0.582,-1.116 0,-0.606 0.594,-1.35 l 1.002,-1.266 q 0.084,-0.12 0.234,-0.12 h 1.206 q 0.054,0 0.09,0.042 0.042,0.036 0.042,0.084 0,0.048 -0.024,0.084 z m -0.03,1.758 q 0.15,-0.102 0.15,-0.288 0,-0.186 -0.15,-0.288 -0.144,-0.102 -0.354,-0.102 -0.21,0 -0.36,0.102 -0.144,0.102 -0.144,0.288 0,0.186 0.144,0.288 0.15,0.102 0.36,0.102 0.21,0 0.354,-0.102 z"
     id="text1"
     transform="matrix(71.989294,0,0,71.989294,135.60114,-1002.7184)"
     aria-label="6" />
</svg>
