<?xml version="1.0" encoding="UTF-8" standalone="no"?>
<svg
   height="24"
   viewBox="0 -960 960 960"
   width="24"
   version="1.1"
   id="svg1"
   sodipodi:docname="instant_mix_FILL0_wght400_GRAD0_opsz24.svg"
   inkscape:version="1.3.2 (091e20ef0f, 2023-11-25, custom)"
   xmlns:inkscape="http://www.inkscape.org/namespaces/inkscape"
   xmlns:sodipodi="http://sodipodi.sourceforge.net/DTD/sodipodi-0.dtd"
   xmlns="http://www.w3.org/2000/svg"
   xmlns:svg="http://www.w3.org/2000/svg">
  <defs
     id="defs1">
    <inkscape:path-effect
       effect="fillet_chamfer"
       id="path-effect1"
       is_visible="true"
       lpeversion="1"
       nodesatellites_param="F,0,0,1,0,24,0,1 @ F,0,0,1,0,24,0,1 @ F,0,0,1,0,24,0,1 @ F,0,0,1,0,24,0,1 @ F,0,0,1,0,24,0,1 @ F,0,0,1,0,24,0,1 @ F,0,0,1,0,24,0,1 @ F,0,0,1,0,24,0,1 | F,0,0,1,0,24,0,1 @ F,0,0,1,0,24,0,1 @ F,0,0,1,0,24,0,1 @ F,0,0,1,0,24,0,1 | F,0,0,1,0,24,0,1 @ F,0,0,1,0,24,0,1 @ F,0,0,1,0,24,0,1 @ F,0,0,1,0,24,0,1 @ F,0,0,1,0,24,0,1 @ F,0,0,1,0,24,0,1 @ F,0,0,1,0,24,0,1 @ F,0,0,1,0,24,0,1 | F,0,0,1,0,24,0,1 @ F,0,0,1,0,24,0,1 @ F,0,0,1,0,24,0,1 @ F,0,0,1,0,24,0,1 | F,0,0,1,0,24,0,1 @ F,0,0,1,0,24,0,1 @ F,0,0,1,0,24,0,1 @ F,0,0,1,0,24,0,1 @ F,0,0,1,0,24,0,1 @ F,0,0,1,0,24,0,1 @ F,0,0,1,0,24,0,1 @ F,0,0,1,0,24,0,1 | F,0,0,1,0,24,0,1 @ F,0,0,1,0,24,0,1 @ F,0,0,1,0,24,0,1 @ F,0,0,1,0,24,0,1"
       radius="24"
       unit="px"
       method="auto"
       mode="F"
       chamfer_steps="1"
       flexible="false"
       use_knot_distance="true"
       apply_no_radius="true"
       apply_with_radius="true"
       only_selected="false"
       hide_knots="false" />
  </defs>
  <sodipodi:namedview
     id="namedview1"
     pagecolor="#ffffff"
     bordercolor="#000000"
     borderopacity="0.25"
     inkscape:showpageshadow="2"
     inkscape:pageopacity="0.0"
     inkscape:pagecheckerboard="0"
     inkscape:deskcolor="#d1d1d1"
     inkscape:zoom="34.958333"
     inkscape:cx="11.985697"
     inkscape:cy="12"
     inkscape:window-width="1920"
     inkscape:window-height="1043"
     inkscape:window-x="3600"
     inkscape:window-y="51"
     inkscape:window-maximized="1"
     inkscape:current-layer="svg1" />
  <path
     d="m 200,-184 v -232 a 24,24 45 0 0 -24,-24 h -32 a 24,24 45 0 1 -24,-24 v -32 a 24,24 135 0 1 24,-24 h 192 a 24,24 45 0 1 24,24 v 32 a 24,24 135 0 1 -24,24 h -32 a 24,24 135 0 0 -24,24 v 232 a 24,24 135 0 1 -24,24 h -32 a 24,24 45 0 1 -24,-24 z m 0,-440 v -152 a 24,24 135 0 1 24,-24 h 32 a 24,24 45 0 1 24,24 v 152 a 24,24 135 0 1 -24,24 h -32 a 24,24 45 0 1 -24,-24 z m 160,0 v -32 a 24,24 135 0 1 24,-24 h 32 a 24,24 135 0 0 24,-24 v -72 a 24,24 135 0 1 24,-24 h 32 a 24,24 45 0 1 24,24 v 72 a 24,24 45 0 0 24,24 h 32 a 24,24 45 0 1 24,24 v 32 a 24,24 135 0 1 -24,24 H 384 a 24,24 45 0 1 -24,-24 z m 80,440 v -312 a 24,24 135 0 1 24,-24 h 32 a 24,24 45 0 1 24,24 v 312 a 24,24 135 0 1 -24,24 h -32 a 24,24 45 0 1 -24,-24 z m 240,0 v -72 a 24,24 45 0 0 -24,-24 h -32 a 24,24 45 0 1 -24,-24 v -32 a 24,24 135 0 1 24,-24 h 192 a 24,24 45 0 1 24,24 v 32 a 24,24 135 0 1 -24,24 h -32 a 24,24 135 0 0 -24,24 v 72 a 24,24 135 0 1 -24,24 h -32 a 24,24 45 0 1 -24,-24 z m 0,-280 v -312 a 24,24 135 0 1 24,-24 h 32 a 24,24 45 0 1 24,24 v 312 a 24,24 135 0 1 -24,24 h -32 a 24,24 45 0 1 -24,-24 z"
     id="path1"
     inkscape:path-effect="#path-effect1"
     inkscape:original-d="M200-160v-280h-80v-80h240v80h-80v280h-80Zm0-440v-200h80v200h-80Zm160 0v-80h80v-120h80v120h80v80H360Zm80 440v-360h80v360h-80Zm240 0v-120h-80v-80h240v80h-80v120h-80Zm0-280v-360h80v360h-80Z"
     style="fill:#ffffff;fill-opacity:1" />
</svg>
