<?xml version="1.0" encoding="UTF-8" standalone="no"?>
<svg
   height="24"
   viewBox="0 -960 960 960"
   width="24"
   version="1.1"
   id="svg1"
   sodipodi:docname="Rotate.svg"
   inkscape:version="1.3.2 (091e20ef0f, 2023-11-25, custom)"
   xmlns:inkscape="http://www.inkscape.org/namespaces/inkscape"
   xmlns:sodipodi="http://sodipodi.sourceforge.net/DTD/sodipodi-0.dtd"
   xmlns="http://www.w3.org/2000/svg"
   xmlns:svg="http://www.w3.org/2000/svg">
  <defs
     id="defs1">
    <inkscape:path-effect
       effect="fillet_chamfer"
       id="path-effect1"
       is_visible="true"
       lpeversion="1"
       nodesatellites_param="F,0,0,1,0,11,0,1 @ F,0,0,1,0,11,0,1 @ F,0,0,1,0,11,0,1 @ F,0,0,1,0,11,0,1 @ F,0,0,1,0,11,0,1 @ F,0,0,1,0,11,0,1 | F,0,0,1,0,11,0,1 @ F,0,0,1,0,11,0,1 @ F,0,0,1,0,11,0,1 @ F,0,0,1,0,11,0,1 @ F,0,0,1,0,11,0,1 @ F,0,0,1,0,11,0,1 @ F,0,0,1,0,11,0,1 @ F,0,0,1,0,11,0,1 @ F,0,0,1,0,11,0,1 @ F,0,0,1,0,11,0,1 @ F,0,0,1,0,11,0,1 @ F,0,0,1,0,11,0,1 @ F,0,0,1,0,11,0,1 @ F,0,0,1,0,11,0,1 @ F,0,0,1,0,11,0,1 @ F,0,0,1,0,11,0,1 @ F,0,0,1,0,11,0,1 @ F,0,0,1,0,11,0,1 @ F,0,0,1,0,11,0,1 | F,0,0,1,0,11,0,1 @ F,0,0,1,0,11,0,1 @ F,0,0,1,0,11,0,1 @ F,0,0,1,0,11,0,1 @ F,0,0,1,0,11,0,1 @ F,0,0,1,0,11,0,1 | F,0,0,1,0,11,0,1 @ F,0,0,1,0,11,0,1 @ F,0,0,1,0,11,0,1 @ F,0,0,1,0,11,0,1 @ F,0,0,1,0,11,0,1 @ F,0,0,1,0,11,0,1"
       radius="11"
       unit="px"
       method="auto"
       mode="F"
       chamfer_steps="1"
       flexible="false"
       use_knot_distance="true"
       apply_no_radius="true"
       apply_with_radius="true"
       only_selected="false"
       hide_knots="false" />
  </defs>
  <sodipodi:namedview
     id="namedview1"
     pagecolor="#ffffff"
     bordercolor="#000000"
     borderopacity="0.25"
     inkscape:showpageshadow="2"
     inkscape:pageopacity="0.0"
     inkscape:pagecheckerboard="0"
     inkscape:deskcolor="#d1d1d1"
     inkscape:zoom="29.666667"
     inkscape:cx="12.033708"
     inkscape:cy="11.983146"
     inkscape:window-width="1920"
     inkscape:window-height="1043"
     inkscape:window-x="3600"
     inkscape:window-y="51"
     inkscape:window-maximized="1"
     inkscape:current-layer="svg1" />
  <path
     d="m 522,-91 v -60 c 0,-6.07513 4.87772,-11.69522 10.85,-12.80636 15.35447,-2.85669 30.47623,-6.95453 45.36527,-12.2935 5.71828,-2.05048 14.86782,-5.70908 20.41527,-8.1846 14.66762,-6.54536 28.782,-14.35526 42.34314,-23.4297 5.04874,-3.37836 12.44711,-2.74288 16.66686,1.62758 l 40.71892,42.17316 c 4.21975,4.37046 3.73138,10.9104 -1.19034,14.47157 -22.21224,16.07195 -45.24708,29.57322 -69.10455,40.50382 -5.52285,2.53037 -14.59278,6.37859 -20.26114,8.56344 -24.14812,9.307809 -49.10736,15.675337 -74.87771,19.102583 C 526.90387,-80.471151 522,-84.924868 522,-91 Z m -90.88828,9.438388 c -83.47274,-13.070649 -153.6923,-49.686848 -210.65867,-109.848608 -4.17689,-4.41118 -10.75367,-11.74648 -14.68317,-16.37939 -53.49782,-63.07443 -81.37172,-136.14501 -83.62171,-219.21172 -0.16448,-6.07272 -0.1651,-15.92471 0.007,-21.99722 1.18866,-42.06572 9.22878,-81.84762 24.12037,-119.3457 2.24217,-5.64595 6.17535,-14.67918 8.75088,-20.18114 16.8743,-36.04762 38.47974,-68.07377 64.81634,-96.07844 4.16178,-4.42537 11.12854,-11.39213 15.55391,-15.55391 28.00467,-26.33659 60.03082,-47.94204 96.07844,-64.81634 5.50196,-2.57553 14.53519,-6.50871 20.18114,-8.75088 37.49808,-14.89159 77.27998,-22.93171 119.3457,-24.12037 C 477.07396,-798.01693 484.68626,-798 488,-798 l -54.22183,-54.22183 a 11.194675,11.194675 89.497457 0 1 -0.13763,-15.69159 l 40.71892,-42.17316 a 10.80871,10.80871 179.49746 0 1 15.41871,-0.13525 l 144.44366,144.44366 a 11,11 90 0 1 0,15.55634 l -144.44366,144.44366 a 11,11 0 0 1 -15.55634,0 l -40.44366,-40.44366 a 11,11 90 0 1 0,-15.55634 l 48.44366,-48.44366 A 4.2112293,4.2112293 88.366427 0 0 482,-718 c -80.54522,2.50946 -140.4087,27.06804 -190.58841,73.85837 -4.44298,4.14288 -11.41034,11.11024 -15.55322,15.55322 -46.79033,50.17971 -71.34891,110.04319 -73.67572,179.59044 -0.20313,6.07145 -0.2041,15.92467 0.01,21.99571 2.1557,61.14006 22.40665,115.4944 60.75283,163.06303 3.81254,4.72948 10.26395,12.1773 14.40286,16.62395 41.67287,44.77138 92.93735,72.62422 153.79344,83.55853 C 437.12083,-162.68246 442,-157.07513 442,-151 v 60 c 0,6.075132 -4.88645,10.37819 -10.88828,9.438388 z m 324.97486,-140.078928 -42.17316,-40.71892 c -4.37046,-4.21975 -5.00594,-11.61812 -1.62758,-16.66686 9.07444,-13.56114 16.88434,-27.67552 23.4297,-42.34314 2.47552,-5.54745 6.13412,-14.69699 8.1846,-20.41527 5.33897,-14.88904 9.43681,-30.0108 12.2935,-45.36527 C 757.30478,-393.12228 762.92487,-398 769,-398 h 60 c 6.07513,0 10.52885,4.90387 9.72799,10.92572 -3.42724,25.77035 -9.79477,50.72959 -19.10258,74.87771 -2.18485,5.66836 -6.03307,14.73828 -8.56344,20.26114 -10.9306,23.85747 -24.43187,46.89231 -40.50382,69.10455 -3.56117,4.92172 -10.10111,5.41009 -14.47157,1.19034 z M 829,-478 h -60 c -6.07513,0 -11.69522,-4.87772 -12.80636,-10.85 -2.85669,-15.35447 -6.95453,-30.47623 -12.2935,-45.36527 -2.05048,-5.71828 -5.70908,-14.86782 -8.1846,-20.41527 -6.54536,-14.66762 -14.35526,-28.782 -23.4297,-42.34314 -3.37836,-5.04874 -2.74288,-12.44711 1.62758,-16.66686 l 42.17316,-40.71892 c 4.37046,-4.21975 11.05322,-3.84424 14.7501,0.97624 15.94191,20.78718 29.23401,43.20503 39.87628,67.25353 2.45837,5.55521 6.14894,14.6904 8.26093,20.38638 9.19295,24.79311 15.72224,50.40581 19.58786,76.83811 C 839.44084,-482.89421 835.07513,-478 829,-478 Z"
     id="path1"
     inkscape:path-effect="#path-effect1"
     inkscape:original-d="m 522,-80 v -82 q 34,-5 66.5,-18 32.5,-13 61.5,-34 l 56,58 q -42,32 -88,51.5 -46,19.5 -96,24.5 z m -80,0 Q 304,-98 213,-199.5 122,-301 122,-438 q 0,-75 28.5,-140.5 28.5,-65.5 77,-114 48.5,-48.5 114,-77 Q 407,-798 482,-798 h 6 l -62,-62 56,-58 160,160 -160,160 -56,-56 64,-64 h -8 q -117,0 -198.5,81.5 Q 202,-555 202,-438 q 0,104 68,182.5 68,78.5 172,93.5 z m 322,-134 -58,-56 q 21,-29 34,-61.5 13,-32.5 18,-66.5 h 82 q -5,50 -24.5,96 -19.5,46 -51.5,88 z m 76,-264 h -82 q -5,-34 -18,-66.5 -13,-32.5 -34,-61.5 l 58,-56 q 32,39 51,86 19,47 25,98 z"
     style="fill:#ffffff;fill-opacity:1"
     transform="matrix(1.0794731,0,0,1.0794731,-38.180713,54.914977)" />
</svg>
