<?xml version="1.0" encoding="UTF-8" standalone="no"?>
<!-- Created with Inkscape (http://www.inkscape.org/) -->

<svg
   width="48"
   height="48"
   viewBox="0 0 12.7 12.7"
   version="1.1"
   id="svg5"
   inkscape:version="1.2.1 (9c6d41e4, 2022-07-14)"
   sodipodi:docname="Scene.svg"
   xml:space="preserve"
   xmlns:inkscape="http://www.inkscape.org/namespaces/inkscape"
   xmlns:sodipodi="http://sodipodi.sourceforge.net/DTD/sodipodi-0.dtd"
   xmlns="http://www.w3.org/2000/svg"
   xmlns:svg="http://www.w3.org/2000/svg"><sodipodi:namedview
     id="namedview7"
     pagecolor="#000000"
     bordercolor="#000000"
     borderopacity="0.25"
     inkscape:showpageshadow="2"
     inkscape:pageopacity="0"
     inkscape:pagecheckerboard="0"
     inkscape:deskcolor="#d1d1d1"
     inkscape:document-units="mm"
     showgrid="true"
     inkscape:zoom="9.9362517"
     inkscape:cx="23.600449"
     inkscape:cy="24.103657"
     inkscape:window-width="1280"
     inkscape:window-height="747"
     inkscape:window-x="0"
     inkscape:window-y="25"
     inkscape:window-maximized="1"
     inkscape:current-layer="layer1"><inkscape:grid
       type="xygrid"
       id="grid182"
       originx="6.35"
       originy="6.35" /></sodipodi:namedview><defs
     id="defs2"><inkscape:path-effect
       effect="fillet_chamfer"
       id="path-effect8498"
       is_visible="true"
       lpeversion="1"
       nodesatellites_param="F,0,0,1,0,0.13229167,0,1 @ F,0,0,1,0,0.13229167,0,1 @ F,0,0,1,0,0.13229167,0,1 @ F,0,0,1,0,0.13229167,0,1 @ F,0,0,1,0,0.13229167,0,1 @ F,0,0,1,0,0.13229167,0,1 @ F,0,0,1,0,0.13229167,0,1 @ F,0,0,1,0,0.13229167,0,1 | F,0,0,1,0,0.13229167,0,1 @ F,0,0,1,0,0.13229167,0,1 @ F,0,0,1,0,0.13229167,0,1 @ F,0,0,1,0,0.13229167,0,1 @ F,0,0,1,0,0.13229167,0,1 @ F,0,0,1,0,0.13229167,0,1 @ F,0,0,1,0,0.13229167,0,1 @ F,0,0,1,0,0.13229167,0,1 | F,0,0,1,0,0.13229167,0,1 @ F,0,0,1,0,0.13229167,0,1 @ F,0,0,1,0,0.13229167,0,1 @ F,0,0,1,0,0.13229167,0,1 | F,0,0,1,0,0.13229167,0,1 @ F,0,0,1,0,0.13229167,0,1 @ F,0,0,1,0,0.13229167,0,1 @ F,0,0,1,0,0.13229167,0,1 | F,0,0,1,0,0.13229167,0,1 @ F,0,0,1,0,0.13229167,0,1 @ F,0,0,1,0,0.13229167,0,1 @ F,0,0,1,0,0.13229167,0,1 | F,0,0,1,0,0.13229167,0,1 @ F,0,0,1,0,0.13229167,0,1 @ F,0,0,1,0,0.13229167,0,1 @ F,0,0,1,0,0.13229167,0,1 | F,0,0,1,0,0.13229167,0,1 @ F,0,0,1,0,0.13229167,0,1 @ F,0,0,1,0,0.13229167,0,1 @ F,0,0,1,0,0.13229167,0,1 | F,0,0,1,0,0.13229167,0,1 @ F,0,0,1,0,0.13229167,0,1 @ F,0,0,1,0,0.13229167,0,1 @ F,0,0,1,0,0.13229167,0,1 | F,0,0,1,0,0.13229167,0,1 @ F,0,0,1,0,0.13229167,0,1 @ F,0,0,1,0,0.13229167,0,1 @ F,0,0,1,0,0.13229167,0,1 | F,0,0,1,0,0.13229167,0,1 @ F,0,0,1,0,0.13229167,0,1 @ F,0,0,1,0,0.13229167,0,1 @ F,0,0,1,0,0.13229167,0,1"
       unit="px"
       method="auto"
       mode="F"
       radius="0.5"
       chamfer_steps="1"
       flexible="false"
       use_knot_distance="true"
       apply_no_radius="true"
       apply_with_radius="true"
       only_selected="false"
       hide_knots="false" /><inkscape:path-effect
       effect="fillet_chamfer"
       id="path-effect8494"
       is_visible="true"
       lpeversion="1"
       nodesatellites_param="F,0,0,1,0,0.13229167,0,1 @ F,0,0,1,0,0.13229167,0,1 @ F,0,0,1,0,0.13229167,0,1 @ F,0,0,1,0,0.13229167,0,1 @ F,0,0,1,0,0.13229167,0,1 @ F,0,0,1,0,0.13229167,0,1 @ F,0,0,1,0,0.13229167,0,1 @ F,0,0,1,0,0.13229167,0,1 | F,0,0,1,0,0.13229167,0,1 @ F,0,0,1,0,0.13229167,0,1 @ F,0,0,1,0,0.13229167,0,1 @ F,0,0,1,0,0.13229167,0,1 @ F,0,0,1,0,0.13229167,0,1 @ F,0,0,1,0,0.13229167,0,1 @ F,0,0,1,0,0.13229167,0,1 @ F,0,0,1,0,0.13229167,0,1 | F,0,0,1,0,0.13229167,0,1 @ F,0,0,1,0,0.13229167,0,1 @ F,0,0,1,0,0.13229167,0,1 @ F,0,0,1,0,0.13229167,0,1 | F,0,0,1,0,0.13229167,0,1 @ F,0,0,1,0,0.13229167,0,1 @ F,0,0,1,0,0.13229167,0,1 @ F,0,0,1,0,0.13229167,0,1 | F,0,0,1,0,0.13229167,0,1 @ F,0,0,1,0,0.13229167,0,1 @ F,0,0,1,0,0.13229167,0,1 @ F,0,0,1,0,0.13229167,0,1 | F,0,0,1,0,0.13229167,0,1 @ F,0,0,1,0,0.13229167,0,1 @ F,0,0,1,0,0.13229167,0,1 @ F,0,0,1,0,0.13229167,0,1 | F,0,0,1,0,0.13229167,0,1 @ F,0,0,1,0,0.13229167,0,1 @ F,0,0,1,0,0.13229167,0,1 @ F,0,0,1,0,0.13229167,0,1 | F,0,0,1,0,0.13229167,0,1 @ F,0,0,1,0,0.13229167,0,1 @ F,0,0,1,0,0.13229167,0,1 @ F,0,0,1,0,0.13229167,0,1 | F,0,0,1,0,0.13229167,0,1 @ F,0,0,1,0,0.13229167,0,1 @ F,0,0,1,0,0.13229167,0,1 @ F,0,0,1,0,0.13229167,0,1 | F,0,0,1,0,0.13229167,0,1 @ F,0,0,1,0,0.13229167,0,1 @ F,0,0,1,0,0.13229167,0,1 @ F,0,0,1,0,0.13229167,0,1"
       unit="px"
       method="auto"
       mode="F"
       radius="0.5"
       chamfer_steps="1"
       flexible="false"
       use_knot_distance="true"
       apply_no_radius="true"
       apply_with_radius="true"
       only_selected="false"
       hide_knots="false" /><inkscape:path-effect
       effect="fillet_chamfer"
       id="path-effect8486"
       is_visible="true"
       lpeversion="1"
       nodesatellites_param="F,0,0,1,0,0.13229167,0,1 @ F,0,0,1,0,0.13229167,0,1 @ F,0,0,1,0,0.13229167,0,1 @ F,0,0,1,0,0.13229167,0,1 @ F,0,0,1,0,0.13229167,0,1 @ F,0,0,1,0,0.13229167,0,1 @ F,0,0,1,0,0.13229167,0,1 @ F,0,0,1,0,0.13229167,0,1 | F,0,0,1,0,0.13229167,0,1 @ F,0,0,1,0,0.13229167,0,1 @ F,0,0,1,0,0.13229167,0,1 @ F,0,0,1,0,0.13229167,0,1 @ F,0,0,1,0,0.13229167,0,1 @ F,0,0,1,0,0.13229167,0,1 @ F,0,0,1,0,0.13229167,0,1 @ F,0,0,1,0,0.13229167,0,1 | F,0,0,1,0,0.13229167,0,1 @ F,0,0,1,0,0.13229167,0,1 @ F,0,0,1,0,0.13229167,0,1 @ F,0,0,1,0,0.13229167,0,1 | F,0,0,1,0,0.13229167,0,1 @ F,0,0,1,0,0.13229167,0,1 @ F,0,0,1,0,0.13229167,0,1 @ F,0,0,1,0,0.13229167,0,1 | F,0,0,1,0,0.13229167,0,1 @ F,0,0,1,0,0.13229167,0,1 @ F,0,0,1,0,0.13229167,0,1 @ F,0,0,1,0,0.13229167,0,1 | F,0,0,1,0,0.13229167,0,1 @ F,0,0,1,0,0.13229167,0,1 @ F,0,0,1,0,0.13229167,0,1 @ F,0,0,1,0,0.13229167,0,1 | F,0,0,1,0,0.13229167,0,1 @ F,0,0,1,0,0.13229167,0,1 @ F,0,0,1,0,0.13229167,0,1 @ F,0,0,1,0,0.13229167,0,1 | F,0,0,1,0,0.13229167,0,1 @ F,0,0,1,0,0.13229167,0,1 @ F,0,0,1,0,0.13229167,0,1 @ F,0,0,1,0,0.13229167,0,1 | F,0,0,1,0,0.13229167,0,1 @ F,0,0,1,0,0.13229167,0,1 @ F,0,0,1,0,0.13229167,0,1 @ F,0,0,1,0,0.13229167,0,1 | F,0,0,1,0,0.13229167,0,1 @ F,0,0,1,0,0.13229167,0,1 @ F,0,0,1,0,0.13229167,0,1 @ F,0,0,1,0,0.13229167,0,1"
       unit="px"
       method="auto"
       mode="F"
       radius="0.5"
       chamfer_steps="1"
       flexible="false"
       use_knot_distance="true"
       apply_no_radius="true"
       apply_with_radius="true"
       only_selected="false"
       hide_knots="false" /><inkscape:path-effect
       effect="fillet_chamfer"
       id="path-effect8480"
       is_visible="true"
       lpeversion="1"
       nodesatellites_param="F,0,0,1,0,0.396875,0,1 @ F,0,0,1,0,0.396875,0,1 @ F,0,0,1,0,0.396875,0,1 @ F,0,0,1,0,0.396875,0,1 @ F,0,0,1,0,0.396875,0,1 @ F,0,0,1,0,0.396875,0,1 @ F,0,0,1,0,0.396875,0,1 @ F,0,0,1,0,0.396875,0,1 | F,0,0,1,0,0.396875,0,1 @ F,0,0,1,0,0.396875,0,1 @ F,0,0,1,0,0.396875,0,1 @ F,0,0,1,0,0.396875,0,1 @ F,0,0,1,0,0.396875,0,1 @ F,0,0,1,0,0.396875,0,1 @ F,0,0,1,0,0.396875,0,1 @ F,0,0,1,0,0.396875,0,1 | F,0,0,1,0,0.396875,0,1 @ F,0,0,1,0,0.396875,0,1 @ F,0,0,1,0,0.396875,0,1 @ F,0,0,1,0,0.396875,0,1 | F,0,0,1,0,0.396875,0,1 @ F,0,0,1,0,0.396875,0,1 @ F,0,0,1,0,0.396875,0,1 @ F,0,0,1,0,0.396875,0,1 | F,0,0,1,0,0.396875,0,1 @ F,0,0,1,0,0.396875,0,1 @ F,0,0,1,0,0.396875,0,1 @ F,0,0,1,0,0.396875,0,1 | F,0,0,1,0,0.396875,0,1 @ F,0,0,1,0,0.396875,0,1 @ F,0,0,1,0,0.396875,0,1 @ F,0,0,1,0,0.396875,0,1 | F,0,0,1,0,0.396875,0,1 @ F,0,0,1,0,0.396875,0,1 @ F,0,0,1,0,0.396875,0,1 @ F,0,0,1,0,0.396875,0,1 | F,0,0,1,0,0.396875,0,1 @ F,0,0,1,0,0.396875,0,1 @ F,0,0,1,0,0.396875,0,1 @ F,0,0,1,0,0.396875,0,1 | F,0,0,1,0,0.396875,0,1 @ F,0,0,1,0,0.396875,0,1 @ F,0,0,1,0,0.396875,0,1 @ F,0,0,1,0,0.396875,0,1 | F,0,0,1,0,0.396875,0,1 @ F,0,0,1,0,0.396875,0,1 @ F,0,0,1,0,0.396875,0,1 @ F,0,0,1,0,0.396875,0,1"
       unit="px"
       method="auto"
       mode="F"
       radius="1.5"
       chamfer_steps="1"
       flexible="false"
       use_knot_distance="true"
       apply_no_radius="true"
       apply_with_radius="true"
       only_selected="false"
       hide_knots="false" /></defs><g
     inkscape:label="Layer 1"
     inkscape:groupmode="layer"
     id="layer1"><path
       d="M 6.7428506,7.7898413 C 6.8658103,7.757948 6.9819962,7.7102489 7.0914081,7.646744 7.2804595,7.5370147 7.5370029,7.2804697 7.6467272,7.0914373 7.7102348,6.9820269 7.7579365,6.8658426 7.7898325,6.7428844 7.8447258,6.5312726 7.8447246,6.1687446 7.7898412,5.9571498 7.757948,5.8341903 7.7102491,5.7180047 7.6467445,5.608593 7.5370153,5.4195415 7.2804703,5.1629982 7.0914379,5.0532738 6.9820271,4.989766 6.8658425,4.942064 6.742884,4.9101679 6.5312722,4.8552746 6.1687442,4.8552758 5.9571494,4.9101592 5.8341898,4.9420525 5.7180041,4.9897515 5.6085924,5.0532563 5.419541,5.1629855 5.1629977,5.4195307 5.0532733,5.6085631 4.9897656,5.7179736 4.9420638,5.8341581 4.9101677,5.9571164 c -0.054893,0.2116118 -0.054892,0.5741398 -8.7e-6,0.7857346 0.031893,0.1229595 0.079592,0.239145 0.1430969,0.3485566 0.1097292,0.1890514 0.3662743,0.4455948 0.5553066,0.5553193 0.1094106,0.063508 0.2255951,0.1112097 0.3485535,0.1431058 0.2116118,0.054893 0.5741398,0.054892 0.7857346,8.6e-6 z M 5.9545027,8.8017655 C 5.564501,8.7439902 5.2114002,8.5981051 4.8952,8.3641102 4.7191627,8.2338388 4.4661679,7.9808434 4.3359014,7.8048155 4.1019036,7.4886165 3.9560156,7.1355168 3.8982373,6.7455166 3.8661429,6.5288805 3.8661433,6.1711291 3.8982345,5.9545031 3.9560099,5.5645014 4.101895,5.2114004 4.33589,4.8952002 4.4661614,4.7191629 4.7191568,4.4661681 4.8951847,4.3359016 5.2113837,4.1019039 5.5644834,3.956016 5.9544838,3.8982379 c 0.2166362,-0.032094 0.5743876,-0.032094 0.7910135,-2.7e-6 0.3900011,0.057775 0.7431016,0.2036604 1.0593016,0.4376551 0.1760374,0.1302714 0.4290324,0.3832666 0.5592991,0.5592943 0.2339984,0.3161992 0.3798867,0.669299 0.437665,1.0592997 0.032095,0.216636 0.032094,0.5743875 2.8e-6,0.7910134 C 8.7439903,7.1354993 8.5981048,7.4886002 8.3641093,7.8048004 8.2338377,7.9808376 7.9808422,8.2338323 7.8048143,8.3640988 7.4886155,8.5980965 7.1355161,8.7439844 6.7455161,8.8017626 c -0.216636,0.032094 -0.5743874,0.032094 -0.7910134,2.9e-6 z M 2.4808748,6.846036 l -1.1903928,0 A 0.396875,0.396875 45 0 1 0.893607,6.449161 V 6.2508394 a 0.396875,0.396875 135 0 1 0.396875,-0.396875 h 1.1903928 a 0.396875,0.396875 45 0 1 0.396875,0.396875 V 6.449161 a 0.396875,0.396875 135 0 1 -0.396875,0.396875 z m 8.9286432,0 H 10.219125 A 0.396875,0.396875 45 0 1 9.82225,6.449161 V 6.2508394 a 0.396875,0.396875 135 0 1 0.396875,-0.396875 l 1.190393,0 a 0.396875,0.396875 45 0 1 0.396875,0.396875 V 6.449161 a 0.396875,0.396875 135 0 1 -0.396875,0.396875 z m -5.555554,-4.3651608 0,-1.190393 A 0.396875,0.396875 135 0 1 6.250839,0.8936072 H 6.44916 a 0.396875,0.396875 45 0 1 0.396875,0.396875 v 1.190393 A 0.396875,0.396875 135 0 1 6.44916,2.8777502 H 6.250839 A 0.396875,0.396875 45 0 1 5.853964,2.4808752 Z m 0,8.9286428 V 10.219125 A 0.396875,0.396875 135 0 1 6.250839,9.8222504 H 6.44916 a 0.396875,0.396875 45 0 1 0.396875,0.3968746 v 1.190393 A 0.396875,0.396875 135 0 1 6.44916,11.806393 H 6.250839 A 0.396875,0.396875 45 0 1 5.853964,11.409518 Z M 3.2859558,3.966941 2.6059536,3.3138696 a 0.3957022,0.3957022 88.927449 0 1 -0.01049,-0.5603367 l 0.155344,-0.1607948 a 0.38220887,0.38220887 0.09068794 0 1 0.550602,8.715e-4 L 3.9421979,3.261098 a 0.42034608,0.42034608 89.524028 0 1 0.00479,0.577128 L 3.8422539,3.9510212 A 0.39025481,0.39025481 178.36079 0 1 3.2859558,3.966941 Z M 9.3985311,10.106447 8.7454605,9.426445 A 0.41254561,0.41254561 90.048229 0 1 8.745942,8.8544202 L 8.8524116,8.7439328 a 0.39754374,0.39754374 178.89087 0 1 0.5616331,-0.010873 l 0.6800023,0.653071 a 0.39570169,0.39570169 88.927461 0 1 0.01049,0.5603363 L 9.9491923,10.107262 A 0.38228792,0.38228792 0.0848166 0 1 9.3985311,10.106447 Z M 8.7330592,3.2859565 9.3861312,2.6059539 a 0.39570205,0.39570205 178.92747 0 1 0.5603366,-0.01049 L 10.107262,2.7508074 A 0.38220917,0.38220917 90.090697 0 1 10.10639,3.3014096 L 9.4389026,3.9421982 a 0.42034616,0.42034616 179.52401 0 1 -0.5771281,0.00479 L 8.7489791,3.8422543 A 0.39025457,0.39025457 88.360781 0 1 8.7330592,3.2859565 Z M 2.5935527,9.3985318 3.2735549,8.7454604 a 0.41254556,0.41254556 0.0482085 0 1 0.5720248,4.813e-4 l 0.1104874,0.1064696 a 0.39754339,0.39754339 88.890882 0 1 0.010873,0.5616328 L 3.313869,10.094046 a 0.39570226,0.39570226 178.92745 0 1 -0.5603367,0.01049 L 2.5927379,9.9491929 a 0.38228775,0.38228775 90.08478 0 1 8.148e-4,-0.5506611 z"
       id="path6627"
       style="fill:#ffffff;fill-opacity:1;stroke-width:0.0124009"
       inkscape:path-effect="#path-effect8480"
       inkscape:original-d="m 6.35,7.8381074 q 0.6200444,0 1.0540766,-0.4340314 0.4340306,-0.434031 0.4340306,-1.0540756 0,-0.6200446 -0.4340306,-1.054076 Q 6.9700444,4.8618932 6.35,4.8618932 q -0.6200448,0 -1.054076,0.4340312 -0.434031,0.4340314 -0.434031,1.054076 0,0.6200446 0.434031,1.0540756 Q 5.7299552,7.8381074 6.35,7.8381074 Z m 0,0.9920714 q -1.0292744,0 -1.7547264,-0.7254522 -0.7254524,-0.7254524 -0.7254524,-1.7547262 0,-1.0292744 0.7254524,-1.7547266 0.725452,-0.725452 1.7547264,-0.725452 1.0292732,0 1.7547254,0.725452 0.7254538,0.7254522 0.7254538,1.7547266 0,1.0292738 -0.7254538,1.7547262 Q 7.3792732,8.8301788 6.35,8.8301788 Z M 2.8777498,6.846036 H 0.893607 V 5.8539644 h 1.9841428 z m 8.9286432,0 H 9.82225 V 5.8539644 h 1.984143 z M 5.853964,2.8777502 v -1.984143 h 0.992071 v 1.984143 z m 0,8.9286428 V 9.8222504 H 6.846035 V 11.806393 Z M 3.5721998,4.2418486 2.3197096,3.038962 3.0265606,2.307309 4.2170464,3.5473986 Z M 9.6734386,10.392691 8.470553,9.140201 9.1278006,8.458152 10.380291,9.6610378 Z M 8.4581516,3.5722004 9.6610388,2.31971 10.392691,3.026561 9.152602,4.2170468 Z M 2.3073088,9.6734394 3.5597988,8.4705528 4.241848,9.1278002 3.0389614,10.38029 Z M 6.35,6.3500004 Z" /></g></svg>
