<?xml version="1.0" encoding="UTF-8" standalone="no"?>
<svg
   height="24"
   viewBox="0 -960 960 960"
   width="24"
   version="1.1"
   id="svg1"
   sodipodi:docname="start_FILL0_wght400_GRAD0_opsz24.svg"
   inkscape:version="1.3.2 (091e20ef0f, 2023-11-25, custom)"
   xmlns:inkscape="http://www.inkscape.org/namespaces/inkscape"
   xmlns:sodipodi="http://sodipodi.sourceforge.net/DTD/sodipodi-0.dtd"
   xmlns="http://www.w3.org/2000/svg"
   xmlns:svg="http://www.w3.org/2000/svg">
  <defs
     id="defs1">
    <inkscape:path-effect
       effect="fillet_chamfer"
       id="path-effect1"
       is_visible="true"
       lpeversion="1"
       nodesatellites_param="F,0,0,1,0,23,0,1 @ F,0,0,1,0,23,0,1 @ F,0,0,1,0,23,0,1 @ F,0,0,1,0,23,0,1 | F,0,0,1,0,23,0,1 @ F,0,0,1,0,23,0,1 @ F,0,0,1,0,23,0,1 @ F,0,0,1,0,23,0,1 @ F,0,0,1,0,23,0,1 @ F,0,0,1,0,23,0,1 @ F,0,0,1,0,23,0,1 @ F,0,0,1,0,23,0,1 @ F,0,0,1,0,23,0,1"
       radius="23"
       unit="px"
       method="auto"
       mode="F"
       chamfer_steps="1"
       flexible="false"
       use_knot_distance="true"
       apply_no_radius="true"
       apply_with_radius="true"
       only_selected="false"
       hide_knots="false" />
  </defs>
  <sodipodi:namedview
     id="namedview1"
     pagecolor="#ffffff"
     bordercolor="#000000"
     borderopacity="0.25"
     inkscape:showpageshadow="2"
     inkscape:pageopacity="0.0"
     inkscape:pagecheckerboard="0"
     inkscape:deskcolor="#d1d1d1"
     inkscape:zoom="34.958333"
     inkscape:cx="12"
     inkscape:cy="12"
     inkscape:window-width="1920"
     inkscape:window-height="1043"
     inkscape:window-x="3600"
     inkscape:window-y="51"
     inkscape:window-maximized="1"
     inkscape:current-layer="svg1" />
  <path
     d="m 80,-263 0,-434 a 23,23 135 0 1 23,-23 h 34 a 23,23 45 0 1 23,23 l 0,434 a 23,23 135 0 1 -23,23 h -34 a 23,23 45 0 1 -23,-23 z m 543.59326,6.8811 -24.18652,-23.7622 a 22.797361,22.797361 89.746485 0 1 -0.14328,-32.38236 L 710.73654,-423.73654 A 9.5269119,9.5269119 67.5 0 0 704,-440 H 263 a 23,23 45 0 1 -23,-23 v -34 a 23,23 135 0 1 23,-23 h 441 a 9.5738903,9.5738903 112.59982 0 0 6.79331,-16.32002 L 600.20669,-647.67998 a 23.080279,23.080279 90.099818 0 1 0.0568,-32.58348 l 23.47308,-23.47308 a 23,23 180 0 1 32.52692,0 l 207.47308,207.47308 a 23,23 90 0 1 0,32.52692 l -207.47308,207.47308 a 23.20444,23.20444 179.74649 0 1 -32.6702,0.14456 z"
     id="path1"
     inkscape:path-effect="#path-effect1"
     inkscape:original-d="M80-240v-480h80v480H80Zm560 0-57-56 144-144H240v-80h487L584-664l56-56 240 240-240 240Z"
     style="fill:#ffffff;fill-opacity:1" />
</svg>
