<?xml version="1.0" encoding="UTF-8" standalone="no"?>
<svg
   height="24px"
   viewBox="0 -960 960 960"
   width="24px"
   fill="#e8eaed"
   version="1.1"
   id="svg1"
   sodipodi:docname="Stop.svg"
   inkscape:version="1.3.2 (091e20e, 2023-11-25)"
   xmlns:inkscape="http://www.inkscape.org/namespaces/inkscape"
   xmlns:sodipodi="http://sodipodi.sourceforge.net/DTD/sodipodi-0.dtd"
   xmlns="http://www.w3.org/2000/svg"
   xmlns:svg="http://www.w3.org/2000/svg">
  <defs
     id="defs1">
    <inkscape:path-effect
       effect="fillet_chamfer"
       id="path-effect1"
       is_visible="true"
       lpeversion="1"
       nodesatellites_param="F,0,0,1,0,31,0,1 @ F,0,0,1,0,31,0,1 | F,0,0,1,0,31,0,1 @ F,0,0,1,0,31,0,1 @ F,0,0,1,0,31,0,1 @ F,0,0,1,0,31,0,1 | F,0,0,1,0,31,0,1 @ F,0,0,1,0,31,0,1 @ F,0,0,1,0,31,0,1 @ F,0,0,1,0,31,0,1"
       radius="31"
       unit="px"
       method="auto"
       mode="F"
       chamfer_steps="1"
       flexible="false"
       use_knot_distance="true"
       apply_no_radius="true"
       apply_with_radius="true"
       only_selected="false"
       hide_knots="false" />
  </defs>
  <sodipodi:namedview
     id="namedview1"
     pagecolor="#ffffff"
     bordercolor="#000000"
     borderopacity="0.25"
     inkscape:showpageshadow="2"
     inkscape:pageopacity="0.0"
     inkscape:pagecheckerboard="0"
     inkscape:deskcolor="#d1d1d1"
     inkscape:zoom="15.810261"
     inkscape:cx="15.686015"
     inkscape:cy="13.598763"
     inkscape:window-width="1440"
     inkscape:window-height="847"
     inkscape:window-x="0"
     inkscape:window-y="25"
     inkscape:window-maximized="1"
     inkscape:current-layer="svg1" />
  <path
     d="m 320,-609 v 258 a 0,0 0 0 1 0,0 v -258 z m -80,338 v -418 a 31,31 135 0 1 31,-31 h 418 a 31,31 45 0 1 31,31 v 418 a 31,31 135 0 1 -31,31 H 271 a 31,31 45 0 1 -31,-31 z m 111,-49 h 258 a 31,31 135 0 0 31,-31 v -258 a 31,31 45 0 0 -31,-31 H 351 a 31,31 135 0 0 -31,31 v 258 a 31,31 45 0 0 31,31 z"
     id="path1"
     inkscape:path-effect="#path-effect1"
     inkscape:original-d="M320-640v320-320Zm-80 400v-480h480v480H240Zm80-80h320v-320H320v320Z"
     style="fill:#ffffff;fill-opacity:1" />
</svg>
