<?xml version="1.0" encoding="UTF-8" standalone="no"?>
<svg
   height="24"
   viewBox="0 -960 960 960"
   width="24"
   version="1.1"
   id="svg1"
   sodipodi:docname="terminal_FILL0_wght400_GRAD0_opsz24.svg"
   inkscape:version="1.3.2 (091e20ef0f, 2023-11-25, custom)"
   xmlns:inkscape="http://www.inkscape.org/namespaces/inkscape"
   xmlns:sodipodi="http://sodipodi.sourceforge.net/DTD/sodipodi-0.dtd"
   xmlns="http://www.w3.org/2000/svg"
   xmlns:svg="http://www.w3.org/2000/svg">
  <defs
     id="defs1">
    <inkscape:path-effect
       effect="fillet_chamfer"
       id="path-effect1"
       is_visible="true"
       lpeversion="1"
       nodesatellites_param="F,0,0,1,0,31,0,1 @ F,0,0,1,0,31,0,1 @ F,0,0,1,0,31,0,1 @ F,0,0,1,0,31,0,1 @ F,0,0,1,0,31,0,1 @ F,0,0,1,0,31,0,1 @ F,0,0,1,0,31,0,1 @ F,0,0,1,0,31,0,1 @ F,0,0,1,0,31,0,1 @ F,0,0,1,0,31,0,1 @ F,0,0,1,0,31,0,1 @ F,0,0,1,0,31,0,1 | F,0,0,1,0,31,0,1 @ F,0,0,1,0,31,0,1 @ F,0,0,1,0,31,0,1 @ F,0,0,1,0,31,0,1 | F,0,0,1,0,31,0,1 @ F,0,0,1,0,31,0,1 @ F,0,0,1,0,31,0,1 @ F,0,0,1,0,31,0,1 @ F,0,0,1,0,31,0,1 @ F,0,0,1,0,31,0,1 | F,0,0,1,0,31,0,1 @ F,0,0,1,0,31,0,1 @ F,0,0,1,0,31,0,1 @ F,0,0,1,0,31,0,1"
       radius="31"
       unit="px"
       method="auto"
       mode="F"
       chamfer_steps="1"
       flexible="false"
       use_knot_distance="true"
       apply_no_radius="true"
       apply_with_radius="true"
       only_selected="false"
       hide_knots="false" />
  </defs>
  <sodipodi:namedview
     id="namedview1"
     pagecolor="#ffffff"
     bordercolor="#000000"
     borderopacity="0.25"
     inkscape:showpageshadow="2"
     inkscape:pageopacity="0.0"
     inkscape:pagecheckerboard="0"
     inkscape:deskcolor="#d1d1d1"
     inkscape:zoom="30.416667"
     inkscape:cx="12"
     inkscape:cy="11.983562"
     inkscape:window-width="1920"
     inkscape:window-height="1043"
     inkscape:window-x="3600"
     inkscape:window-y="51"
     inkscape:window-maximized="1"
     inkscape:current-layer="svg1" />
  <path
     d="m 129.73456,-165.72656 c -0.27747,-0.1137 -0.55426,-0.22909 -0.83035,-0.34617 -15.66413,-6.64253 -36.188947,-27.16735 -42.831481,-42.83147 -0.117083,-0.2761 -0.232473,-0.55289 -0.34617,-0.83036 C 79.276274,-225.47598 80,-253.87917 80,-271 v -418 c 0,-17.12083 -0.723726,-45.52402 5.726559,-61.26544 0.113697,-0.27747 0.229087,-0.55426 0.34617,-0.83035 6.642534,-15.66413 27.167351,-36.18895 42.831471,-42.83148 0.2761,-0.11708 0.55289,-0.23247 0.83036,-0.34617 C 145.47598,-800.72373 173.87917,-800 191,-800 h 578 c 17.12083,0 45.52402,-0.72373 61.26544,5.72656 0.27747,0.1137 0.55426,0.22909 0.83035,0.34617 15.66413,6.64253 36.18895,27.16735 42.83148,42.83147 0.11708,0.2761 0.23247,0.55289 0.34617,0.83036 C 880.72373,-734.52402 880,-706.12083 880,-689 v 418 c 0,17.12083 0.72373,45.52402 -5.72656,61.26544 -0.1137,0.27747 -0.22909,0.55426 -0.34617,0.83035 -6.64253,15.66413 -27.16735,36.18895 -42.83147,42.83148 -0.2761,0.11708 -0.55289,0.23247 -0.83036,0.34617 C 814.52402,-159.27627 786.12083,-160 769,-160 H 191 c -17.12083,0 -45.52402,0.72373 -61.26544,-5.72656 z M 191,-240 h 578 a 31,31 135 0 0 31,-31 v -338 a 31,31 45 0 0 -31,-31 H 191 a 31,31 135 0 0 -31,31 v 338 a 31,31 45 0 0 31,31 z m 87.07969,-61.92031 -12.15938,-12.15938 a 31.15012,31.15012 89.861605 0 1 -0.10615,-43.94626 l 59.37168,-59.9481 a 31.15012,31.15012 89.861605 0 0 -0.10615,-43.94626 l -60.15938,-60.15938 a 30.726878,30.726878 90.253515 0 1 0.19312,-43.64578 l 12.77314,-12.54906 a 31.27555,31.27555 0.25351453 0 1 44.03374,0.19484 l 116.15938,116.15938 a 31,31 90 0 1 0,43.84062 l -116.15938,116.15938 a 31,31 0 0 1 -43.84062,0 z M 480,-311 v -18 a 31,31 135 0 1 31,-31 h 178 a 31,31 45 0 1 31,31 v 18 a 31,31 135 0 1 -31,31 H 511 a 31,31 45 0 1 -31,-31 z"
     id="path1"
     inkscape:path-effect="#path-effect1"
     inkscape:original-d="M160-160q-33 0-56.5-23.5T80-240v-480q0-33 23.5-56.5T160-800h640q33 0 56.5 23.5T880-720v480q0 33-23.5 56.5T800-160H160Zm0-80h640v-400H160v400Zm140-40-56-56 103-104-104-104 57-56 160 160-160 160Zm180 0v-80h240v80H480Z"
     style="fill:#ffffff;fill-opacity:1" />
</svg>
